<svg width="805" height="511" viewBox="0 0 805 511" fill="none" xmlns="http://www.w3.org/2000/svg">
<path d="M770 0H35C15.67 0 0 15.67 0 35V476C0 495.33 15.67 511 35 511H770C789.33 511 805 495.33 805 476V35C805 15.67 789.33 0 770 0Z" fill="black" style="fill:black;fill-opacity:1;"/>
<mask id="mask0_1119_6292" style="mask-type:alpha" maskUnits="userSpaceOnUse" x="0" y="0" width="805" height="511">
<path d="M770 0H35C15.67 0 0 15.67 0 35V476C0 495.33 15.67 511 35 511H770C789.33 511 805 495.33 805 476V35C805 15.67 789.33 0 770 0Z" fill="black" style="fill:black;fill-opacity:1;"/>
</mask>
<g mask="url(#mask0_1119_6292)">
<path d="M840.235 1370.28C578.011 1632.41 36.7252 1517.7 -366.489 1114.49C-769.742 711.273 -884.408 169.938 -622.275 -92.2199C-361.053 -353.42 177.191 -240.627 579.905 158.849C581.45 160.383 582.994 161.919 584.535 163.46C987.749 566.672 1102.41 1108.05 840.235 1370.28ZM-617.954 -87.944C-878.413 172.476 -764.144 710.484 -363.314 1111.32C37.5601 1512.15 575.497 1626.42 835.915 1365.96C981.629 1220.27 1010.07 987.688 936.665 740.854C1002.8 976.813 973.074 1198 833.36 1337.74C578.234 1592.91 51.4061 1481.24 -340.919 1088.92C-733.238 696.554 -844.862 169.764 -589.739 -85.3419C-449.939 -225.163 -228.567 -254.849 7.55518 -188.57C-239.417 -262.129 -472.163 -233.736 -617.954 -87.944ZM633.295 394.649C583.036 444.949 479.304 423.081 402.108 345.889C324.912 268.697 303.047 164.982 353.348 114.701C379.674 88.35 420.675 81.8152 464.848 92.6522C409.83 74.5642 357.454 79.8241 325.134 112.145C269.589 167.691 294.097 282.579 379.759 368.245C465.421 453.911 580.307 478.415 635.859 422.87C668.159 390.544 673.422 338.218 655.373 283.246C666.172 327.378 659.626 368.341 633.295 394.649ZM626.375 362.155C583.127 405.363 493.985 386.582 427.723 320.32C361.375 253.972 342.596 164.807 385.798 121.599C408.278 99.1302 443.122 93.4102 480.709 102.381C432.257 86.1312 386.039 90.553 357.629 118.981C309.135 167.497 330.515 267.818 405.329 342.63C480.188 417.488 580.529 438.914 629.023 390.375C657.484 361.914 661.881 315.58 645.533 267.032C654.581 304.707 648.882 339.646 626.375 362.155ZM619.5 329.664C583.3 365.902 508.8 350.12 453.338 294.664C397.876 239.208 382.138 164.675 418.338 128.483C418.901 127.92 419.473 127.369 420.055 126.832C420.255 126.649 420.455 126.476 420.655 126.297C421.043 125.947 421.429 125.597 421.825 125.256C422.071 125.045 422.325 124.845 422.575 124.639C422.931 124.339 423.285 124.039 423.649 123.756C423.923 123.539 424.206 123.334 424.483 123.121C424.83 122.856 425.173 122.586 425.525 122.33C425.82 122.115 426.125 121.909 426.425 121.698C426.767 121.457 427.107 121.211 427.453 120.978C427.767 120.766 428.089 120.566 428.407 120.36C428.747 120.14 429.084 119.914 429.429 119.701C429.774 119.488 430.099 119.301 430.435 119.101C430.771 118.901 431.11 118.693 431.453 118.501C431.796 118.309 432.153 118.116 432.509 117.924C432.846 117.74 433.181 117.55 433.523 117.372C433.889 117.181 434.26 117.002 434.629 116.818C434.965 116.65 435.298 116.477 435.639 116.318C436.02 116.136 436.408 115.965 436.794 115.79C437.129 115.638 437.46 115.481 437.794 115.334C438.194 115.16 438.594 114.999 438.994 114.834C439.327 114.697 439.655 114.555 439.994 114.423C440.41 114.259 440.83 114.107 441.25 113.951C441.579 113.829 441.904 113.701 442.236 113.584C442.669 113.43 443.107 113.284 443.544 113.143C443.869 113.035 444.191 112.921 444.519 112.817C444.969 112.675 445.424 112.543 445.879 112.409C446.199 112.309 446.517 112.209 446.839 112.122C447.306 111.99 447.78 111.87 448.252 111.747C448.568 111.665 448.88 111.577 449.198 111.498C449.683 111.378 450.174 111.269 450.663 111.158C450.973 111.088 451.28 111.013 451.59 110.946C452.09 110.838 452.603 110.741 453.112 110.646C453.412 110.588 453.712 110.523 454.018 110.469C454.54 110.369 455.068 110.289 455.595 110.203C455.895 110.155 456.182 110.103 456.478 110.057C457.02 109.975 457.566 109.904 458.112 109.831C458.398 109.794 458.683 109.751 458.97 109.716C459.531 109.648 460.096 109.591 460.661 109.532C460.939 109.504 461.214 109.471 461.494 109.445C462.074 109.391 462.658 109.345 463.243 109.305C463.511 109.285 463.777 109.261 464.043 109.244C464.643 109.205 465.243 109.177 465.851 109.15C466.108 109.138 466.364 109.122 466.623 109.112C467.242 109.089 467.866 109.076 468.489 109.065C468.736 109.065 468.981 109.052 469.228 109.049C469.867 109.042 470.511 109.049 471.155 109.049C471.39 109.049 471.624 109.049 471.86 109.049C472.519 109.059 473.182 109.08 473.846 109.102C474.07 109.11 474.292 109.114 474.516 109.124C475.195 109.15 475.877 109.188 476.56 109.224C476.771 109.236 476.981 109.246 477.193 109.26C477.893 109.306 478.593 109.36 479.293 109.421C479.493 109.438 479.693 109.451 479.893 109.469C480.61 109.533 481.331 109.608 482.053 109.688C482.24 109.708 482.425 109.725 482.613 109.746C483.35 109.83 484.09 109.924 484.83 110.023C485.004 110.046 485.177 110.066 485.35 110.09C486.106 110.19 486.865 110.309 487.624 110.427L488.106 110.5C488.88 110.624 489.657 110.759 490.437 110.9C490.583 110.926 490.73 110.95 490.878 110.977C491.671 111.123 492.466 111.277 493.262 111.44C493.396 111.467 493.53 111.492 493.662 111.52C494.473 111.687 495.285 111.864 496.098 112.048C496.22 112.076 496.341 112.101 496.462 112.129C496.545 112.148 496.629 112.17 496.712 112.189C454.767 97.7251 414.623 101.318 390.065 125.889C348.628 167.305 366.965 253.051 430.934 317.066C494.904 380.991 580.65 399.333 622.047 357.89C646.57 333.368 650.212 293.374 635.88 251.557C642.962 282.515 638.046 311.138 619.5 329.664ZM612.62 297.219C583.48 326.319 523.52 313.706 478.909 269.089C434.298 224.472 421.684 164.495 450.779 135.399C465.472 120.721 488.006 116.643 512.455 121.916C508.045 120.346 503.664 119.018 499.312 117.932H499.297C498.227 117.666 497.161 117.414 496.097 117.177L496.028 117.161C491.844 116.224 487.613 115.513 483.352 115.031L483.145 115.009C482.189 114.904 481.237 114.812 480.289 114.733L480.019 114.71C476.943 114.461 473.915 114.351 470.934 114.378H470.882C469.951 114.388 469.026 114.414 468.106 114.45L467.654 114.471C466.849 114.508 466.049 114.555 465.254 114.612L464.748 114.649C463.913 114.716 463.084 114.793 462.26 114.88L461.965 114.91C460.089 115.119 458.241 115.389 456.421 115.72C456.295 115.743 456.17 115.77 456.042 115.793C455.295 115.933 454.552 116.084 453.813 116.245C453.595 116.293 453.376 116.345 453.159 116.393C452.504 116.542 451.853 116.699 451.206 116.866C450.976 116.926 450.747 116.983 450.518 117.044C449.847 117.223 449.182 117.414 448.518 117.611C448.34 117.663 448.161 117.711 447.984 117.768C446.308 118.283 444.666 118.858 443.057 119.493C442.857 119.57 442.67 119.652 442.476 119.731C441.883 119.972 441.294 120.22 440.709 120.477C440.458 120.588 440.209 120.703 439.958 120.817C439.428 121.059 438.903 121.307 438.383 121.562C438.129 121.687 437.876 121.811 437.624 121.938C437.084 122.212 436.552 122.495 436.024 122.783C435.811 122.899 435.596 123.011 435.385 123.129C433.922 123.95 432.497 124.829 431.11 125.768C430.9 125.911 430.693 126.06 430.485 126.205C430.008 126.537 429.533 126.875 429.066 127.222C428.823 127.402 428.581 127.587 428.34 127.772C427.909 128.105 427.481 128.443 427.057 128.784C426.819 128.978 426.581 129.171 426.344 129.369C425.904 129.739 425.471 130.118 425.044 130.501C424.844 130.679 424.644 130.854 424.444 131.035C423.825 131.602 423.214 132.182 422.616 132.778C388.229 167.165 403.438 238.322 456.564 291.488C509.644 344.568 580.841 359.778 615.228 325.388C615.828 324.788 616.41 324.179 616.972 323.56C617.153 323.36 617.327 323.16 617.505 322.96C617.888 322.53 618.267 322.097 618.637 321.66C618.837 321.424 619.028 321.187 619.221 320.948C619.565 320.525 619.902 320.098 620.233 319.666C620.418 319.424 620.603 319.183 620.783 318.94C621.13 318.473 621.467 317.999 621.799 317.522C621.945 317.313 622.094 317.107 622.237 316.895C623.176 315.51 624.056 314.085 624.877 312.621C624.994 312.412 625.106 312.196 625.221 311.985C625.51 311.456 625.792 310.922 626.068 310.385C626.195 310.134 626.319 309.88 626.444 309.626C626.699 309.106 626.948 308.582 627.19 308.053C627.304 307.803 627.418 307.553 627.53 307.3C627.786 306.718 628.03 306.13 628.273 305.539C628.352 305.339 628.435 305.15 628.513 304.953C629.147 303.345 629.721 301.704 630.237 300.029C630.292 299.852 630.337 299.674 630.394 299.498C630.594 298.836 630.783 298.169 630.962 297.498C631.024 297.269 631.082 297.039 631.141 296.81C631.306 296.164 631.464 295.514 631.614 294.86C631.663 294.641 631.714 294.423 631.762 294.201C631.923 293.468 632.073 292.728 632.212 291.983C632.236 291.853 632.263 291.723 632.288 291.592C632.621 289.774 632.891 287.927 633.097 286.052C633.108 285.952 633.117 285.859 633.127 285.763C633.216 284.938 633.293 284.107 633.358 283.271C633.371 283.102 633.383 282.933 633.395 282.764C633.453 281.969 633.5 281.169 633.537 280.364C633.544 280.211 633.552 280.059 633.558 279.906C633.594 278.993 633.62 278.076 633.629 277.152C633.629 277.126 633.629 277.102 633.629 277.076C633.659 274.101 633.549 271.075 633.299 267.999C633.292 267.908 633.283 267.818 633.276 267.728C633.198 266.783 633.107 265.834 633.002 264.88L632.979 264.662C632.497 260.405 631.787 256.177 630.852 251.995C630.852 251.972 630.841 251.948 630.836 251.925C630.6 250.864 630.349 249.801 630.083 248.734C630.083 248.724 630.078 248.713 630.075 248.703C628.991 244.363 627.665 239.986 626.096 235.571C631.361 260.02 627.285 282.551 612.619 297.219H612.62ZM605.7 264.683C583.656 286.768 538.246 277.202 504.523 243.474C470.751 209.751 461.23 164.341 483.314 142.274C494.094 131.486 510.47 128.25 528.335 131.7C499.619 120.953 471.835 122.885 455.058 139.65C427.724 167.008 439.89 223.592 482.127 265.869C524.404 308.152 581.01 320.269 608.345 292.938C625.153 276.13 627.066 248.304 616.258 219.538C619.751 237.455 616.525 253.876 605.7 264.683ZM598.821 232.233C583.833 247.221 552.972 240.788 530.093 217.949C507.169 195.026 500.776 164.187 515.764 149.176C522.672 142.276 532.926 139.899 544.209 141.567C522.095 132.616 500.46 133.69 487.594 146.567C467.314 166.827 476.353 208.861 507.741 240.25C539.084 271.644 581.186 280.681 601.424 260.398C614.324 247.524 615.391 225.856 606.424 203.729C608.109 215.04 605.742 225.312 598.819 232.234L598.821 232.233ZM591.945 199.698C583.964 207.635 567.745 204.325 555.708 192.289C543.671 180.253 540.318 163.989 548.255 156.029C551.317 152.967 555.602 151.584 560.396 151.714C544.796 144.306 529.081 144.395 520.04 153.451C506.817 166.679 512.768 194.144 533.312 214.685C553.856 235.226 581.318 241.185 594.545 227.957C603.591 218.88 603.682 203.167 596.269 187.57C596.4 192.368 595.01 196.649 591.942 199.699L591.945 199.698ZM640.133 427.14C582.778 484.495 464.533 459.54 376.496 371.459C288.496 283.459 263.505 165.199 320.86 107.843C351.203 77.5121 398.598 70.201 449.545 83.075C387.745 62.892 328.96 68.8752 292.645 105.175C229.999 167.799 257.595 297.301 354.145 393.851C450.65 490.402 580.178 517.998 642.824 455.351C679.124 419.025 685.107 360.213 664.906 298.391C677.794 349.365 670.484 396.786 640.13 427.141L640.133 427.14ZM647.099 459.63C582.687 524.042 449.814 495.958 350.927 397.073C252.04 298.188 223.959 165.311 288.37 100.899C322.47 66.79 375.808 58.6231 433.133 73.1871C364.975 51.3681 300.291 58.2511 260.2 98.3431C190.5 168.019 221.181 312.03 328.575 419.423C435.969 526.816 580 557.499 649.651 487.845C689.851 447.624 696.671 382.683 674.651 314.322C689.409 371.856 681.307 425.419 647.1 459.63H647.099ZM653.929 492.08C582.512 563.589 435.088 532.417 325.312 422.689C215.585 312.911 184.458 165.511 255.88 94.0472C293.985 55.9632 353.654 47.016 417.689 63.576C342.762 39.71 271.689 47.3551 227.62 91.4251C150.866 168.179 184.68 326.757 302.961 445.085C421.202 563.322 579.78 597.05 656.534 520.295C700.554 476.295 708.234 405.345 684.466 330.521C700.963 394.482 692 454.053 653.926 492.08H653.929ZM660.809 524.616C582.289 603.091 420.317 568.875 299.742 448.259C179.127 327.638 144.871 165.618 223.342 87.1261C265.342 45.1261 331.242 35.3881 401.914 53.8731C320.419 28.1261 243.175 36.573 195.214 84.544C111.409 168.332 148.264 341.569 277.345 470.654C406.474 599.736 579.645 636.591 663.453 552.83C711.529 504.73 719.907 427.23 693.938 345.517C712.59 416.374 702.9 482.49 660.806 524.616H660.809ZM667.729 557.061C582.159 642.678 405.55 605.339 274.129 473.915C142.666 342.45 105.367 165.841 190.938 80.2701C236.908 34.2991 309.138 23.8 386.531 44.304C382.436 43.014 378.352 41.8045 374.278 40.6751L373.861 40.5602C372.681 40.2348 371.503 39.9158 370.325 39.6031L369.661 39.4281C368.548 39.1354 367.437 38.8489 366.326 38.5682L365.626 38.3932C364.489 38.1078 363.353 37.8292 362.217 37.5572L361.676 37.4261C360.381 37.1175 359.088 36.8175 357.797 36.5262L357.772 36.5201C353.747 35.6101 349.74 34.7825 345.751 34.0372L345.268 33.9481C344.135 33.7381 343.005 33.5343 341.881 33.337L341.162 33.212C340.095 33.0293 339.032 32.852 337.972 32.68L337.219 32.5592C336.135 32.3865 335.052 32.2198 333.971 32.0592L333.356 31.9671C332.129 31.7871 330.905 31.6153 329.682 31.452L329.542 31.4322C325.632 30.9109 321.745 30.4708 317.88 30.1122L317.28 30.0582C316.227 29.9629 315.176 29.8735 314.127 29.7901L313.311 29.7271C312.32 29.6512 311.329 29.5809 310.341 29.5162L309.494 29.461C308.487 29.3984 307.483 29.3415 306.48 29.2901L305.754 29.252C304.621 29.1974 303.493 29.1499 302.371 29.1092L302.061 29.096C299.522 29.0074 296.995 28.9562 294.481 28.9422C294.42 28.9422 294.358 28.9422 294.296 28.9422C293.15 28.9369 292.007 28.9388 290.866 28.9481L290.12 28.9571C289.163 28.9691 288.206 28.9855 287.251 29.0062L286.327 29.0301C285.423 29.0548 284.521 29.0837 283.619 29.117L282.669 29.1541C281.754 29.1935 280.841 29.2375 279.93 29.2862C279.647 29.3012 279.365 29.3152 279.082 29.3311C278.065 29.3892 277.051 29.4537 276.04 29.525C275.874 29.537 275.707 29.5472 275.54 29.5592C273.129 29.7325 270.734 29.943 268.355 30.191C268.212 30.206 268.07 30.2221 267.928 30.2381C266.917 30.3448 265.908 30.4585 264.904 30.5792C264.611 30.6142 264.318 30.6521 264.025 30.6891C263.168 30.795 262.312 30.9061 261.459 31.0221C261.119 31.0687 260.779 31.1165 260.439 31.1651C259.626 31.2798 258.816 31.3987 258.009 31.5221L256.969 31.6832C256.151 31.8125 255.334 31.9458 254.52 32.0831L253.565 32.2462C252.664 32.4042 251.767 32.5678 250.873 32.7372C250.651 32.7791 250.429 32.8192 250.206 32.8612C247.939 33.2965 245.693 33.7685 243.468 34.2772C243.257 34.3252 243.048 34.3771 242.837 34.4251C241.958 34.6285 241.081 34.8374 240.207 35.0521L239.228 35.2992C238.469 35.4905 237.713 35.6855 236.959 35.8841C236.596 35.9841 236.235 36.0781 235.873 36.1761C235.152 36.3721 234.433 36.5722 233.715 36.7762C233.348 36.8802 232.982 36.9848 232.615 37.0902C231.889 37.3022 231.165 37.5178 230.445 37.7372C230.104 37.8372 229.76 37.9431 229.42 38.0501C228.631 38.2948 227.844 38.5454 227.06 38.8021C226.798 38.8871 226.534 38.97 226.271 39.056C224.167 39.752 222.083 40.4855 220.018 41.2562C219.762 41.3562 219.507 41.4562 219.25 41.5482C218.489 41.8355 217.73 42.1275 216.974 42.4242C216.63 42.5592 216.288 42.6991 215.946 42.8351C215.279 43.1017 214.612 43.373 213.946 43.649C213.578 43.802 213.21 43.9571 212.846 44.1131C212.208 44.3838 211.571 44.6581 210.937 44.9361C210.568 45.0981 210.199 45.2611 209.831 45.4251C209.19 45.7118 208.551 46.0029 207.916 46.2982C207.567 46.4582 207.216 46.6181 206.872 46.7811C206.181 47.1064 205.493 47.4373 204.808 47.774C204.525 47.912 204.242 48.0461 203.96 48.1852C202.027 49.1432 200.116 50.1361 198.227 51.1642C197.95 51.3152 197.677 51.4702 197.401 51.6222C196.74 51.9882 196.081 52.3571 195.424 52.7291C195.083 52.9241 194.744 53.1232 194.405 53.3192C193.816 53.6612 193.231 54.0058 192.648 54.3531C192.289 54.5678 191.932 54.7841 191.576 55.002C191.012 55.3454 190.45 55.6924 189.89 56.0431C189.534 56.2664 189.179 56.4908 188.824 56.7162C188.259 57.0775 187.695 57.4425 187.134 57.8111C186.798 58.0321 186.462 58.2502 186.127 58.4742C185.52 58.8792 184.917 59.2912 184.316 59.7042C184.036 59.8962 183.754 60.0851 183.477 60.2791C181.725 61.5011 179.998 62.7591 178.296 64.0531C178.025 64.2581 177.757 64.4701 177.489 64.6781C176.911 65.1241 176.335 65.57 175.763 66.024C175.444 66.278 175.127 66.536 174.808 66.794C174.291 67.212 173.776 67.6332 173.262 68.0572C172.93 68.3322 172.601 68.609 172.271 68.8871C171.774 69.3071 171.279 69.7301 170.785 70.1561C170.458 70.4388 170.132 70.7231 169.806 71.0091C169.307 71.4485 168.811 71.8919 168.318 72.3392C168.01 72.6162 167.701 72.8932 167.397 73.1732C166.862 73.6642 166.333 74.1632 165.803 74.6632C165.548 74.9052 165.289 75.1431 165.035 75.3871C164.257 76.1331 163.485 76.8882 162.719 77.6522C71.8572 168.536 111.801 356.301 251.769 496.23C391.702 636.205 579.461 676.144 670.322 585.283C671.087 584.517 671.843 583.744 672.589 582.965C672.833 582.711 673.07 582.452 673.312 582.197C673.812 581.668 674.312 581.137 674.802 580.597C675.083 580.292 675.36 579.984 675.637 579.677C676.084 579.183 676.528 578.686 676.969 578.187C677.255 577.862 677.539 577.536 677.821 577.209C678.248 576.716 678.672 576.22 679.092 575.721C679.369 575.393 679.646 575.063 679.921 574.732C680.347 574.218 680.769 573.701 681.187 573.181C681.443 572.864 681.701 572.549 681.954 572.229C682.41 571.654 682.86 571.074 683.308 570.493C683.513 570.227 683.722 569.963 683.925 569.693C684.573 568.842 685.214 567.984 685.844 567.119C685.857 567.102 685.868 567.084 685.881 567.066C686.497 566.22 687.104 565.368 687.701 564.51C687.895 564.231 688.086 563.948 688.277 563.669C688.691 563.069 689.101 562.465 689.508 561.858C689.73 561.525 689.949 561.189 690.169 560.858C690.538 560.295 690.905 559.731 691.269 559.164C691.494 558.812 691.718 558.458 691.939 558.102C692.291 557.541 692.64 556.977 692.986 556.41C693.201 556.056 693.416 555.701 693.63 555.346C693.983 554.758 694.33 554.166 694.673 553.574C694.867 553.239 695.063 552.905 695.256 552.569C695.636 551.902 696.012 551.232 696.382 550.558C696.528 550.294 696.677 550.031 696.822 549.766C697.852 547.876 698.846 545.962 699.804 544.025C699.944 543.743 700.078 543.459 700.216 543.176C700.549 542.489 700.88 541.8 701.209 541.109C701.37 540.766 701.53 540.421 701.688 540.075C701.988 539.434 702.279 538.792 702.566 538.147C702.729 537.783 702.89 537.419 703.049 537.054C703.33 536.414 703.608 535.771 703.881 535.126C704.034 534.765 704.186 534.403 704.338 534.041C704.618 533.367 704.894 532.69 705.165 532.01C705.297 531.678 705.432 531.348 705.565 531.01C705.872 530.23 706.172 529.445 706.465 528.656C706.552 528.426 706.643 528.197 706.729 527.965C707.498 525.898 708.232 523.808 708.929 521.695C709.015 521.435 709.097 521.173 709.182 520.912C709.438 520.125 709.69 519.334 709.937 518.541C710.037 518.208 710.137 517.873 710.243 517.541C710.465 516.808 710.683 516.074 710.898 515.341C711.001 514.986 711.103 514.631 711.204 514.274C711.412 513.541 711.615 512.808 711.814 512.074C711.909 511.726 712.003 511.374 712.095 511.029C712.301 510.254 712.5 509.477 712.695 508.696C712.772 508.391 712.851 508.087 712.926 507.781C713.153 506.86 713.374 505.935 713.587 505.007C713.626 504.843 713.665 504.681 713.702 504.518C714.213 502.281 714.686 500.026 715.122 497.751C715.164 497.534 715.203 497.315 715.245 497.099C715.416 496.197 715.58 495.292 715.739 494.386C715.792 494.081 715.839 493.775 715.896 493.469C716.037 492.639 716.174 491.806 716.306 490.969C716.358 490.636 716.409 490.306 716.46 489.979C716.587 489.148 716.709 488.315 716.826 487.479C716.871 487.16 716.916 486.843 716.959 486.525C717.08 485.636 717.196 484.746 717.306 483.853C717.337 483.595 717.371 483.338 717.406 483.08C717.539 481.996 717.662 480.908 717.774 479.817C717.78 479.753 717.788 479.69 717.795 479.626C718.044 477.233 718.256 474.823 718.43 472.397C718.442 472.239 718.451 472.079 718.463 471.921C718.534 470.898 718.601 469.874 718.663 468.847C718.678 468.584 718.691 468.319 718.705 468.056C718.755 467.123 718.8 466.186 718.839 465.245C718.851 464.953 718.863 464.661 718.874 464.368C718.909 463.435 718.939 462.499 718.965 461.56C718.972 461.286 718.98 461.011 718.986 460.735C719.009 459.728 719.026 458.72 719.037 457.709C719.037 457.509 719.043 457.316 719.045 457.119C719.077 453.397 719.026 449.644 718.893 445.861C718.893 445.767 718.885 445.672 718.882 445.577C718.839 444.439 718.791 443.299 718.736 442.156C718.725 441.939 718.712 441.721 718.701 441.504C718.648 440.47 718.589 439.434 718.524 438.396C718.509 438.147 718.493 437.897 718.476 437.647C718.409 436.615 718.335 435.582 718.254 434.547C718.237 434.32 718.22 434.093 718.201 433.865C718.113 432.746 718.016 431.623 717.913 430.498C717.901 430.367 717.89 430.236 717.878 430.105C717.517 426.216 717.073 422.302 716.547 418.364C716.547 418.324 716.536 418.285 716.531 418.247C716.365 417.011 716.191 415.774 716.009 414.534C715.984 414.358 715.957 414.183 715.93 414.007C715.765 412.889 715.592 411.769 715.413 410.647C715.38 410.436 715.345 410.225 715.313 410.013C715.133 408.897 714.946 407.78 714.752 406.661C714.72 406.475 714.687 406.289 714.652 406.104C714.44 404.889 714.22 403.673 713.993 402.453C713.979 402.379 713.966 402.305 713.952 402.231C713.199 398.212 712.364 394.175 711.447 390.119C711.447 390.119 711.447 390.112 711.447 390.109C711.152 388.807 710.849 387.504 710.537 386.198C710.501 386.048 710.464 385.898 710.43 385.751C710.147 384.575 709.858 383.398 709.562 382.218L709.421 381.656C709.124 380.485 708.822 379.312 708.512 378.137L708.385 377.657C708.045 376.378 707.699 375.098 707.345 373.817L707.313 373.702C706.174 369.597 704.953 365.481 703.651 361.351C724.2 438.799 713.722 511.089 667.727 557.061H667.729ZM674.608 589.552C581.982 682.179 390.869 641.798 248.561 499.445C106.203 357.13 65.8222 166.016 158.449 73.3712C208.224 23.5922 286.46 12.231 370.276 34.461C275.591 4.94603 185.966 15.0112 130.188 70.7892C32.271 168.707 75.343 371.017 226.165 521.836C376.987 672.655 579.29 715.731 677.209 617.813C733.066 561.954 743.082 472.151 713.409 377.313C735.78 461.286 724.463 539.694 674.606 589.551L674.608 589.552ZM681.484 622.092C581.851 721.726 376.097 678.257 222.901 525.054C69.7449 371.902 26.2761 166.148 125.914 66.514C179.64 12.785 264.134 0.635193 354.605 24.8082C253.281 -6.6438 157.414 4.20821 97.7402 63.8912C-7.22974 168.862 38.8852 385.744 200.595 547.451C362.257 709.072 579.16 755.232 684.084 650.263C743.73 590.615 754.617 494.868 723.271 393.652C747.348 484.026 735.16 568.413 681.482 622.091L681.484 622.092ZM688.404 654.582C581.675 761.271 361.376 714.629 197.377 550.624C33.3329 386.624 -13.3112 166.346 93.4639 59.6161C151.138 1.91606 241.964 -10.9908 339.164 15.2062C231.105 -18.2788 128.874 -6.67398 65.2041 56.993C-46.8159 168.993 2.427 400.555 174.936 573.021C347.49 745.576 578.984 794.774 690.964 682.799C754.564 619.199 766.232 517.105 732.885 409.166C758.964 506.242 746.033 596.952 688.4 654.582H688.404ZM695.284 687.028C581.498 800.86 346.605 751.128 171.717 576.284C-3.1712 401.349 -52.8558 166.504 60.9292 52.7132C122.448 -8.81577 219.329 -22.5709 322.979 5.38414C208.489 -29.8439 100.269 -17.3919 32.8052 50.0721C-86.3168 169.145 -33.9858 415.19 149.367 598.59C332.767 781.99 578.854 834.275 697.93 715.243C765.486 647.663 777.878 539.229 742.472 424.559C770.577 528.367 756.882 625.424 695.282 687.027L695.284 687.028ZM702.205 719.478C581.318 840.406 331.884 787.592 146.147 601.854C-39.59 416.116 -92.4041 166.681 28.4839 45.7701C93.9909 -19.7299 197.308 -34.2038 307.778 -4.14076C186.447 -41.5068 71.7541 -28.3349 0.26709 43.1251C-125.865 169.304 -70.533 429.962 123.75 624.251C317.992 818.494 578.676 873.868 704.85 747.694C776.217 676.324 789.441 561.832 752.259 440.676C782.153 550.969 767.62 654.081 702.2 719.477L702.205 719.478ZM709.126 751.968C581.142 879.953 317.158 824.051 120.532 627.424C-76.0478 430.888 -131.949 166.834 -4.01123 38.8492C65.1827 -30.3338 174.241 -45.7238 290.905 -14.1508C163.376 -52.9818 42.9439 -38.8579 -32.2251 36.3121C-165.409 169.475 -106.907 444.683 98.1821 649.812C303.313 854.903 578.497 913.405 711.682 780.22C786.895 705.032 800.982 584.512 762.066 456.895C793.7 573.621 778.332 682.735 709.124 751.967L709.126 751.968ZM715.96 784.549C581.01 919.449 302.431 860.554 94.96 653.039C-112.509 445.568 -171.453 166.965 -36.5039 32.0191C36.6691 -41.1809 152.084 -57.3479 275.496 -23.7379C141.239 -64.6129 14.4501 -49.7478 -64.7148 29.3922C-204.951 169.656 -143.364 459.456 72.5679 675.435C288.547 891.415 578.368 952.96 718.607 812.675C797.827 733.48 812.648 606.535 771.622 472.128C805.361 595.685 789.23 711.275 715.958 784.548L715.96 784.549ZM722.881 816.994C580.881 959.041 287.619 896.967 69.3481 678.653C-148.964 460.336 -210.992 167.141 -68.9912 25.1161C8.11981 -52.0079 129.768 -68.9569 259.797 -33.4169C118.902 -76.2319 -14.1221 -60.5717 -97.2031 22.5152C-244.495 169.807 -179.821 474.18 46.9971 700.958C273.818 927.827 578.189 992.5 725.481 845.208C808.614 762.077 824.245 628.947 781.339 487.963C816.96 618.085 800.038 739.837 722.879 816.993L722.881 816.994ZM729.756 849.529C580.656 998.629 272.939 933.385 43.7778 704.224C-185.422 475.061 -250.584 167.317 -101.487 18.2181C-20.5068 -62.7609 107.28 -80.5298 243.853 -43.1508C96.401 -87.8058 -42.7681 -71.3269 -129.703 15.5951C-284.046 169.984 -216.285 488.907 21.4258 726.574C259.095 964.245 578.011 1032.05 732.4 877.658C819.442 790.64 835.843 651.243 790.975 503.594C828.557 640.399 810.849 768.437 729.754 849.528L729.756 849.529ZM736.681 881.98C580.528 1038.13 258.213 969.799 18.208 729.793C-221.797 489.787 -290.085 167.493 -133.932 11.3392C-48.9801 -73.6358 85.2041 -92.1528 228.557 -52.7028C74.3621 -99.4248 -71.1791 -82.1969 -162.102 8.73814C-323.546 170.183 -252.702 503.629 -4.18701 752.189C244.372 1000.7 577.837 1071.55 739.281 910.104C830.286 819.098 847.463 673.371 800.581 519.017C840.193 662.537 821.739 796.916 736.679 881.979L736.681 881.98ZM743.556 914.38C580.356 1077.59 243.446 1006.3 -7.40723 755.449C-258.254 504.549 -329.587 167.642 -166.382 4.45811C-77.5269 -84.3949 62.799 -103.719 212.691 -62.4118C51.903 -111.012 -99.8292 -92.976 -194.638 1.83604C-363.138 170.336 -289.115 518.396 -29.7578 777.755C229.599 1037.16 577.66 1111.14 746.157 942.637C840.999 847.771 859.006 695.971 810.348 535.132C851.72 685.106 832.422 825.515 743.555 914.384L743.556 914.38ZM750.432 946.915C580.176 1117.22 228.765 1042.72 -32.9761 780.974C-294.717 519.233 -369.176 167.822 -198.916 -2.43886C-106.265 -95.1029 40.0421 -115.293 196.348 -72.2728C29.1791 -122.552 -128.508 -103.649 -227.131 -5.03896C-402.677 170.51 -325.572 533.161 -55.3711 803.37C214.835 1073.62 577.486 1150.64 753.038 975.131C851.83 876.361 870.638 718.293 820.023 550.79C863.346 707.424 843.251 854.099 750.431 946.918L750.432 946.915ZM757.311 979.406C579.999 1156.72 213.953 1079.22 -58.5889 806.589C-331.214 534.004 -408.717 168.017 -231.404 -9.29579C-134.632 -106.079 18.3561 -126.958 181.684 -81.6469C7.48407 -134.255 -156.893 -114.678 -259.664 -11.9188C-442.223 170.663 -362.074 547.844 -80.939 828.981C200.11 1110.07 577.361 1190.22 759.914 1007.62C862.674 904.857 882.237 740.454 829.604 566.237C874.95 729.599 854.1 882.62 757.31 979.409L757.311 979.406ZM764.186 1011.94C579.863 1196.31 199.271 1115.63 -84.1611 832.159C-367.634 548.684 -448.311 168.153 -263.943 -16.216C-163.269 -116.878 -4.13013 -138.553 165.757 -91.3729C-14.9822 -145.834 -185.493 -125.458 -292.113 -18.8388C-481.772 170.84 -398.536 562.616 -106.598 854.561C185.34 1146.51 577.177 1229.78 766.833 1040.12C873.333 933.618 893.779 763.359 839.542 582.84C886.5 752.499 864.742 911.388 764.186 1011.94V1011.94ZM771.107 1044.39C579.687 1235.81 184.5 1152.14 -109.771 857.815C-404.093 563.497 -487.771 168.307 -296.388 -23.0958C-191.875 -127.609 -26.6191 -150.119 149.797 -101.115C-37.4921 -157.415 -214.142 -136.215 -324.603 -25.737C-521.318 170.997 -434.993 577.337 -132.167 880.163C170.613 1183 577 1269.32 773.752 1072.61C884.352 961.979 905.47 785.04 848.909 597.505C898.166 774.182 875.735 939.739 771.106 1044.39L771.107 1044.39ZM778.032 1076.89C579.511 1275.41 169.775 1188.56 -135.387 883.387C-440.549 578.218 -527.4 168.487 -328.887 -30.0368C-220.328 -138.609 -48.4969 -161.796 134.852 -110.568C-59.3419 -169.078 -242.548 -147.168 -357.102 -32.6149C-560.864 171.131 -471.461 592.066 -157.786 905.785C155.928 1219.46 576.861 1308.83 780.628 1105.1C895.028 990.702 917.003 807.767 858.733 613.802C909.722 796.899 886.461 968.455 778.032 1076.89V1076.89ZM784.907 1109.38C579.334 1314.91 155.007 1224.97 -161.002 908.958C-476.965 592.947 -566.902 168.658 -361.374 -36.8878C-249.074 -149.181 -71.4738 -173.288 118.073 -120.537C-82.3467 -180.572 -271.313 -157.759 -389.544 -39.5109C-600.362 171.308 -507.871 606.789 -183.353 931.355C141.16 1255.88 576.688 1348.37 787.507 1137.55C905.633 1019.42 928.507 830.692 868.687 630.475C921.243 819.819 897.079 997.178 784.907 1109.38V1109.38ZM791.787 1141.82C579.203 1354.41 140.281 1261.47 -186.571 934.573C-513.471 607.673 -606.447 168.816 -393.819 -43.7868C-277.59 -160.019 -93.7092 -184.901 102.528 -130.16C-104.588 -192.181 -299.872 -168.586 -422.078 -46.3688C-639.953 171.485 -544.328 621.605 -208.967 956.924C126.441 1292.33 576.513 1387.91 794.343 1170.08C916.611 1047.81 940.194 852.442 878.102 645.257C932.919 841.576 908.057 1025.55 791.787 1141.82V1141.82ZM798.662 1174.36C578.982 1394 125.6 1297.89 -212.186 960.187C-549.927 622.399 -646.039 168.987 -426.353 -50.6439C-306.053 -170.955 -115.598 -196.552 87.5688 -139.612C-126.442 -203.839 -328.279 -179.545 -454.568 -53.268C-679.453 171.632 -580.787 636.332 -234.536 982.583C111.629 1328.84 576.337 1427.5 801.264 1202.58C927.719 1076.12 951.918 873.918 887.375 659.593C944.622 863.076 919.125 1053.9 798.663 1174.36L798.662 1174.36ZM805.537 1206.85C578.852 1433.54 110.789 1334.39 -237.8 985.799C-586.389 637.205 -685.539 169.123 -458.849 -57.569C-334.712 -181.694 -138.237 -208.137 71.3618 -149.449C-149.098 -215.431 -356.952 -190.292 -487.063 -60.1918C-719.041 171.787 -617.25 651.053 -260.151 1008.15C96.9021 1365.25 576.206 1467.04 808.183 1235.02C938.404 1104.8 963.462 896.661 897.229 675.951C956.171 885.812 929.813 1082.58 805.537 1206.85V1206.85ZM812.463 1239.34C578.715 1473.09 96.0629 1370.85 -263.37 1011.42C-622.848 651.938 -725.08 169.304 -491.339 -64.4818C-363.508 -192.304 -161.289 -219.662 54.5181 -159.444C-172.16 -226.93 -385.752 -200.857 -519.509 -67.0868C-758.588 171.971 -653.753 665.782 -285.766 1033.77C82.1759 1401.76 575.984 1506.6 815.064 1267.56C948.633 1133.99 974.829 920.844 907.747 694.562C967.569 909.959 940.081 1111.72 812.463 1239.34V1239.34ZM819.338 1271.83C578.538 1512.68 81.2961 1407.31 -288.984 1036.99C-659.264 666.666 -764.627 169.458 -523.784 -71.3869C-391.818 -203.343 -182.826 -231.346 40.0771 -168.752C-193.679 -238.633 -414.056 -211.921 -552.044 -73.9418C-798.133 172.149 -690.121 680.506 -311.336 1059.34C67.4501 1438.08 575.808 1546.1 821.893 1300.01C959.643 1162.28 986.493 942.372 917.04 709.009C979.246 931.517 951.12 1140.05 819.338 1271.83V1271.83ZM826.173 1304.28C578.319 1552.14 66.5728 1443.73 -314.555 1062.56C-695.764 681.386 -804.128 169.611 -556.319 -78.2179C-418.732 -215.795 -199.851 -243.618 32.8701 -175.979C-211.048 -251.248 -441.717 -224.823 -585.464 -81.0619C-838.826 172.277 -727.726 695.667 -337.7 1085.7C52.2848 1475.73 575.718 1586.83 829.04 1333.47C973.16 1189.37 999.374 957.924 923.43 713.346C991.725 946.716 964.108 1166.35 826.173 1304.28V1304.28ZM580.39 165.784C570.812 156.81 558.509 154.352 552.533 160.328C546.357 166.504 549.224 179.397 558.926 189.116C568.577 198.773 581.452 201.595 587.626 195.424C593.597 189.454 591.192 177.188 582.246 167.636C581.937 167.318 581.636 166.996 581.32 166.681C581.004 166.366 580.7 166.082 580.39 165.783V165.784Z" fill="#363636" style="fill:#363636;fill:color(display-p3 0.2118 0.2118 0.2118);fill-opacity:1;"/>
</g>
<path d="M75.7227 370.887V375H62.0996V370.887H75.7227ZM63.8223 349.406V375H58.5488V349.406H63.8223ZM73.9473 359.83V363.838H62.0996V359.83H73.9473ZM75.7051 349.406V353.537H62.0996V349.406H75.7051ZM83.8262 355.98V375H78.7461V355.98H83.8262ZM78.4297 351.023C78.4297 350.285 78.6875 349.676 79.2031 349.195C79.7188 348.715 80.4102 348.475 81.2773 348.475C82.1328 348.475 82.8184 348.715 83.334 349.195C83.8613 349.676 84.125 350.285 84.125 351.023C84.125 351.762 83.8613 352.371 83.334 352.852C82.8184 353.332 82.1328 353.572 81.2773 353.572C80.4102 353.572 79.7188 353.332 79.2031 352.852C78.6875 352.371 78.4297 351.762 78.4297 351.023ZM92.9668 360.041V375H87.9043V355.98H92.6504L92.9668 360.041ZM92.2285 364.822H90.8574C90.8574 363.416 91.0391 362.15 91.4023 361.025C91.7656 359.889 92.2754 358.922 92.9316 358.125C93.5879 357.316 94.3672 356.701 95.2695 356.279C96.1836 355.846 97.2031 355.629 98.3281 355.629C99.2188 355.629 100.033 355.758 100.771 356.016C101.51 356.273 102.143 356.684 102.67 357.246C103.209 357.809 103.619 358.553 103.9 359.479C104.193 360.404 104.34 361.535 104.34 362.871V375H99.2422V362.854C99.2422 362.01 99.125 361.354 98.8906 360.885C98.6562 360.416 98.3105 360.088 97.8535 359.9C97.4082 359.701 96.8574 359.602 96.2012 359.602C95.5215 359.602 94.9297 359.736 94.4258 360.006C93.9336 360.275 93.5234 360.65 93.1953 361.131C92.8789 361.6 92.6387 362.15 92.4746 362.783C92.3105 363.416 92.2285 364.096 92.2285 364.822ZM107.381 365.684V365.314C107.381 363.92 107.58 362.637 107.979 361.465C108.377 360.281 108.957 359.256 109.719 358.389C110.48 357.521 111.418 356.848 112.531 356.367C113.645 355.875 114.922 355.629 116.363 355.629C117.805 355.629 119.088 355.875 120.213 356.367C121.338 356.848 122.281 357.521 123.043 358.389C123.816 359.256 124.402 360.281 124.801 361.465C125.199 362.637 125.398 363.92 125.398 365.314V365.684C125.398 367.066 125.199 368.35 124.801 369.533C124.402 370.705 123.816 371.73 123.043 372.609C122.281 373.477 121.344 374.15 120.23 374.631C119.117 375.111 117.84 375.352 116.398 375.352C114.957 375.352 113.674 375.111 112.549 374.631C111.436 374.15 110.492 373.477 109.719 372.609C108.957 371.73 108.377 370.705 107.979 369.533C107.58 368.35 107.381 367.066 107.381 365.684ZM112.443 365.314V365.684C112.443 366.48 112.514 367.225 112.654 367.916C112.795 368.607 113.018 369.217 113.322 369.744C113.639 370.26 114.049 370.664 114.553 370.957C115.057 371.25 115.672 371.396 116.398 371.396C117.102 371.396 117.705 371.25 118.209 370.957C118.713 370.664 119.117 370.26 119.422 369.744C119.727 369.217 119.949 368.607 120.09 367.916C120.242 367.225 120.318 366.48 120.318 365.684V365.314C120.318 364.541 120.242 363.814 120.09 363.135C119.949 362.443 119.721 361.834 119.404 361.307C119.1 360.768 118.695 360.346 118.191 360.041C117.688 359.736 117.078 359.584 116.363 359.584C115.648 359.584 115.039 359.736 114.535 360.041C114.043 360.346 113.639 360.768 113.322 361.307C113.018 361.834 112.795 362.443 112.654 363.135C112.514 363.814 112.443 364.541 112.443 365.314ZM158.621 349.406V375H153.348L143.064 357.844V375H137.791V349.406H143.064L153.365 366.58V349.406H158.621ZM173.158 370.711V362.238C173.158 361.629 173.059 361.107 172.859 360.674C172.66 360.229 172.35 359.883 171.928 359.637C171.518 359.391 170.984 359.268 170.328 359.268C169.766 359.268 169.279 359.367 168.869 359.566C168.459 359.754 168.143 360.029 167.92 360.393C167.697 360.744 167.586 361.16 167.586 361.641H162.523C162.523 360.832 162.711 360.064 163.086 359.338C163.461 358.611 164.006 357.973 164.721 357.422C165.436 356.859 166.285 356.42 167.27 356.104C168.266 355.787 169.379 355.629 170.609 355.629C172.086 355.629 173.398 355.875 174.547 356.367C175.695 356.859 176.598 357.598 177.254 358.582C177.922 359.566 178.256 360.797 178.256 362.273V370.412C178.256 371.455 178.32 372.311 178.449 372.979C178.578 373.635 178.766 374.209 179.012 374.701V375H173.896C173.65 374.484 173.463 373.84 173.334 373.066C173.217 372.281 173.158 371.496 173.158 370.711ZM173.826 363.416L173.861 366.281H171.031C170.363 366.281 169.783 366.357 169.291 366.51C168.799 366.662 168.395 366.879 168.078 367.16C167.762 367.43 167.527 367.746 167.375 368.109C167.234 368.473 167.164 368.871 167.164 369.305C167.164 369.738 167.264 370.131 167.463 370.482C167.662 370.822 167.949 371.092 168.324 371.291C168.699 371.479 169.139 371.572 169.643 371.572C170.404 371.572 171.066 371.42 171.629 371.115C172.191 370.811 172.625 370.436 172.93 369.99C173.246 369.545 173.41 369.123 173.422 368.725L174.758 370.869C174.57 371.35 174.312 371.848 173.984 372.363C173.668 372.879 173.264 373.365 172.771 373.822C172.279 374.268 171.688 374.637 170.996 374.93C170.305 375.211 169.484 375.352 168.535 375.352C167.328 375.352 166.232 375.111 165.248 374.631C164.275 374.139 163.502 373.465 162.928 372.609C162.365 371.742 162.084 370.758 162.084 369.656C162.084 368.66 162.271 367.775 162.646 367.002C163.021 366.229 163.572 365.578 164.299 365.051C165.037 364.512 165.957 364.107 167.059 363.838C168.16 363.557 169.438 363.416 170.891 363.416H173.826ZM192.441 369.744C192.441 369.381 192.336 369.053 192.125 368.76C191.914 368.467 191.521 368.197 190.947 367.951C190.385 367.693 189.57 367.459 188.504 367.248C187.543 367.037 186.646 366.773 185.814 366.457C184.994 366.129 184.279 365.736 183.67 365.279C183.072 364.822 182.604 364.283 182.264 363.662C181.924 363.029 181.754 362.309 181.754 361.5C181.754 360.703 181.924 359.953 182.264 359.25C182.615 358.547 183.113 357.926 183.758 357.387C184.414 356.836 185.211 356.408 186.148 356.104C187.098 355.787 188.164 355.629 189.348 355.629C191 355.629 192.418 355.893 193.602 356.42C194.797 356.947 195.711 357.674 196.344 358.6C196.988 359.514 197.311 360.557 197.311 361.729H192.248C192.248 361.236 192.143 360.797 191.932 360.41C191.732 360.012 191.416 359.701 190.982 359.479C190.561 359.244 190.01 359.127 189.33 359.127C188.768 359.127 188.281 359.227 187.871 359.426C187.461 359.613 187.145 359.871 186.922 360.199C186.711 360.516 186.605 360.867 186.605 361.254C186.605 361.547 186.664 361.811 186.781 362.045C186.91 362.268 187.115 362.473 187.396 362.66C187.678 362.848 188.041 363.023 188.486 363.188C188.943 363.34 189.506 363.48 190.174 363.609C191.545 363.891 192.77 364.26 193.848 364.717C194.926 365.162 195.781 365.771 196.414 366.545C197.047 367.307 197.363 368.309 197.363 369.551C197.363 370.395 197.176 371.168 196.801 371.871C196.426 372.574 195.887 373.189 195.184 373.717C194.48 374.232 193.637 374.637 192.652 374.93C191.68 375.211 190.584 375.352 189.365 375.352C187.596 375.352 186.096 375.035 184.865 374.402C183.646 373.77 182.721 372.967 182.088 371.994C181.467 371.01 181.156 370.002 181.156 368.971H185.955C185.979 369.662 186.154 370.219 186.482 370.641C186.822 371.062 187.25 371.367 187.766 371.555C188.293 371.742 188.861 371.836 189.471 371.836C190.127 371.836 190.672 371.748 191.105 371.572C191.539 371.385 191.867 371.139 192.09 370.834C192.324 370.518 192.441 370.154 192.441 369.744ZM205.59 348V375H200.527V348H205.59ZM204.869 364.822H203.48C203.492 363.498 203.668 362.279 204.008 361.166C204.348 360.041 204.834 359.068 205.467 358.248C206.1 357.416 206.855 356.771 207.734 356.314C208.625 355.857 209.609 355.629 210.688 355.629C211.625 355.629 212.475 355.764 213.236 356.033C214.01 356.291 214.672 356.713 215.223 357.299C215.785 357.873 216.219 358.629 216.523 359.566C216.828 360.504 216.98 361.641 216.98 362.977V375H211.883V362.941C211.883 362.098 211.76 361.436 211.514 360.955C211.279 360.463 210.934 360.117 210.477 359.918C210.031 359.707 209.48 359.602 208.824 359.602C208.098 359.602 207.477 359.736 206.961 360.006C206.457 360.275 206.053 360.65 205.748 361.131C205.443 361.6 205.221 362.15 205.08 362.783C204.939 363.416 204.869 364.096 204.869 364.822ZM226.174 355.98V375H221.094V355.98H226.174ZM220.777 351.023C220.777 350.285 221.035 349.676 221.551 349.195C222.066 348.715 222.758 348.475 223.625 348.475C224.48 348.475 225.166 348.715 225.682 349.195C226.209 349.676 226.473 350.285 226.473 351.023C226.473 351.762 226.209 352.371 225.682 352.852C225.166 353.332 224.48 353.572 223.625 353.572C222.758 353.572 222.066 353.332 221.551 352.852C221.035 352.371 220.777 351.762 220.777 351.023ZM235.42 347.982V375H230.357V347.982H235.42ZM247.408 355.98L239.146 365.402L234.717 369.885L232.871 366.229L236.387 361.764L241.326 355.98H247.408ZM242.152 375L236.527 366.211L240.025 363.152L247.988 375H242.152ZM248.779 365.684V365.314C248.779 363.92 248.979 362.637 249.377 361.465C249.775 360.281 250.355 359.256 251.117 358.389C251.879 357.521 252.816 356.848 253.93 356.367C255.043 355.875 256.32 355.629 257.762 355.629C259.203 355.629 260.486 355.875 261.611 356.367C262.736 356.848 263.68 357.521 264.441 358.389C265.215 359.256 265.801 360.281 266.199 361.465C266.598 362.637 266.797 363.92 266.797 365.314V365.684C266.797 367.066 266.598 368.35 266.199 369.533C265.801 370.705 265.215 371.73 264.441 372.609C263.68 373.477 262.742 374.15 261.629 374.631C260.516 375.111 259.238 375.352 257.797 375.352C256.355 375.352 255.072 375.111 253.947 374.631C252.834 374.15 251.891 373.477 251.117 372.609C250.355 371.73 249.775 370.705 249.377 369.533C248.979 368.35 248.779 367.066 248.779 365.684ZM253.842 365.314V365.684C253.842 366.48 253.912 367.225 254.053 367.916C254.193 368.607 254.416 369.217 254.721 369.744C255.037 370.26 255.447 370.664 255.951 370.957C256.455 371.25 257.07 371.396 257.797 371.396C258.5 371.396 259.104 371.25 259.607 370.957C260.111 370.664 260.516 370.26 260.82 369.744C261.125 369.217 261.348 368.607 261.488 367.916C261.641 367.225 261.717 366.48 261.717 365.684V365.314C261.717 364.541 261.641 363.814 261.488 363.135C261.348 362.443 261.119 361.834 260.803 361.307C260.498 360.768 260.094 360.346 259.59 360.041C259.086 359.736 258.477 359.584 257.762 359.584C257.047 359.584 256.438 359.736 255.934 360.041C255.441 360.346 255.037 360.768 254.721 361.307C254.416 361.834 254.193 362.443 254.053 363.135C253.912 363.814 253.842 364.541 253.842 365.314ZM279.225 355.98V359.566H268.15V355.98H279.225ZM270.893 351.287H275.955V369.27C275.955 369.82 276.025 370.242 276.166 370.535C276.318 370.828 276.541 371.033 276.834 371.15C277.127 371.256 277.496 371.309 277.941 371.309C278.258 371.309 278.539 371.297 278.785 371.273C279.043 371.238 279.26 371.203 279.436 371.168L279.453 374.895C279.02 375.035 278.551 375.146 278.047 375.229C277.543 375.311 276.986 375.352 276.377 375.352C275.264 375.352 274.291 375.17 273.459 374.807C272.639 374.432 272.006 373.834 271.561 373.014C271.115 372.193 270.893 371.115 270.893 369.779V351.287ZM280.842 365.684V365.314C280.842 363.92 281.041 362.637 281.439 361.465C281.838 360.281 282.418 359.256 283.18 358.389C283.941 357.521 284.879 356.848 285.992 356.367C287.105 355.875 288.383 355.629 289.824 355.629C291.266 355.629 292.549 355.875 293.674 356.367C294.799 356.848 295.742 357.521 296.504 358.389C297.277 359.256 297.863 360.281 298.262 361.465C298.66 362.637 298.859 363.92 298.859 365.314V365.684C298.859 367.066 298.66 368.35 298.262 369.533C297.863 370.705 297.277 371.73 296.504 372.609C295.742 373.477 294.805 374.15 293.691 374.631C292.578 375.111 291.301 375.352 289.859 375.352C288.418 375.352 287.135 375.111 286.01 374.631C284.896 374.15 283.953 373.477 283.18 372.609C282.418 371.73 281.838 370.705 281.439 369.533C281.041 368.35 280.842 367.066 280.842 365.684ZM285.904 365.314V365.684C285.904 366.48 285.975 367.225 286.115 367.916C286.256 368.607 286.479 369.217 286.783 369.744C287.1 370.26 287.51 370.664 288.014 370.957C288.518 371.25 289.133 371.396 289.859 371.396C290.562 371.396 291.166 371.25 291.67 370.957C292.174 370.664 292.578 370.26 292.883 369.744C293.188 369.217 293.41 368.607 293.551 367.916C293.703 367.225 293.779 366.48 293.779 365.684V365.314C293.779 364.541 293.703 363.814 293.551 363.135C293.41 362.443 293.182 361.834 292.865 361.307C292.561 360.768 292.156 360.346 291.652 360.041C291.148 359.736 290.539 359.584 289.824 359.584C289.109 359.584 288.5 359.736 287.996 360.041C287.504 360.346 287.1 360.768 286.783 361.307C286.479 361.834 286.256 362.443 286.115 363.135C285.975 363.814 285.904 364.541 285.904 365.314Z" fill="white" style="fill:white;fill-opacity:1;"/>
<path d="M456.587 435.77C455.263 437.071 453.716 437.721 451.947 437.721C449.685 437.721 447.875 436.948 446.515 435.401C445.156 433.842 444.476 431.745 444.476 429.108C444.476 427.432 444.84 425.897 445.566 424.503C446.304 423.096 447.33 422.007 448.642 421.233C449.955 420.448 451.431 420.055 453.072 420.055C454.759 420.055 456.259 420.477 457.572 421.321C458.884 422.165 459.904 423.378 460.63 424.96C461.357 426.542 461.726 428.352 461.738 430.391V432.272C461.738 436.537 460.677 439.889 458.556 442.326C456.435 444.764 453.429 446.064 449.539 446.229L448.291 446.246V442.01L449.416 441.992C453.833 441.793 456.224 439.719 456.587 435.77ZM453.195 433.836C454.015 433.836 454.718 433.625 455.304 433.203C455.902 432.782 456.353 432.272 456.658 431.674V429.582C456.658 427.86 456.329 426.524 455.673 425.575C455.017 424.626 454.138 424.151 453.037 424.151C452.017 424.151 451.179 424.62 450.523 425.557C449.867 426.483 449.539 427.649 449.539 429.055C449.539 430.45 449.855 431.598 450.488 432.5C451.132 433.391 452.035 433.836 453.195 433.836ZM482.602 435.418C482.602 438.957 481.87 441.664 480.405 443.539C478.94 445.414 476.796 446.352 473.972 446.352C471.183 446.352 469.05 445.432 467.573 443.592C466.097 441.752 465.341 439.115 465.306 435.682V430.971C465.306 427.397 466.044 424.684 467.521 422.833C469.009 420.981 471.147 420.055 473.936 420.055C476.725 420.055 478.858 420.975 480.335 422.815C481.811 424.643 482.567 427.274 482.602 430.707V435.418ZM477.522 430.25C477.522 428.129 477.229 426.588 476.643 425.628C476.069 424.655 475.167 424.169 473.936 424.169C472.741 424.169 471.856 424.631 471.282 425.557C470.72 426.471 470.421 427.907 470.386 429.864V436.086C470.386 438.172 470.667 439.725 471.229 440.744C471.804 441.752 472.718 442.256 473.972 442.256C475.214 442.256 476.11 441.77 476.661 440.797C477.212 439.824 477.499 438.336 477.522 436.332V430.25ZM498.387 446H493.307V426.419L487.243 428.299V424.169L497.842 420.372H498.387V446ZM523.4 427.21C523.4 428.452 523.089 429.553 522.468 430.514C521.847 431.475 520.992 432.243 519.902 432.817C521.144 433.414 522.128 434.241 522.855 435.295C523.581 436.338 523.945 437.569 523.945 438.987C523.945 441.26 523.171 443.059 521.625 444.383C520.078 445.695 517.974 446.352 515.314 446.352C512.654 446.352 510.545 445.689 508.986 444.365C507.428 443.041 506.648 441.248 506.648 438.987C506.648 437.569 507.012 436.332 507.738 435.278C508.465 434.223 509.443 433.403 510.674 432.817C509.584 432.243 508.728 431.475 508.107 430.514C507.498 429.553 507.193 428.452 507.193 427.21C507.193 425.03 507.92 423.296 509.373 422.007C510.826 420.706 512.801 420.055 515.297 420.055C517.781 420.055 519.75 420.7 521.203 421.989C522.667 423.266 523.4 425.006 523.4 427.21ZM518.847 438.617C518.847 437.504 518.525 436.614 517.88 435.946C517.236 435.278 516.369 434.944 515.279 434.944C514.201 434.944 513.34 435.278 512.695 435.946C512.051 436.602 511.728 437.492 511.728 438.617C511.728 439.707 512.045 440.586 512.678 441.254C513.31 441.922 514.189 442.256 515.314 442.256C516.416 442.256 517.277 441.934 517.898 441.289C518.531 440.645 518.847 439.754 518.847 438.617ZM518.32 427.456C518.32 426.46 518.056 425.663 517.529 425.065C517.002 424.456 516.257 424.151 515.297 424.151C514.347 424.151 513.609 424.444 513.082 425.03C512.554 425.616 512.291 426.424 512.291 427.456C512.291 428.475 512.554 429.295 513.082 429.916C513.609 430.538 514.353 430.848 515.314 430.848C516.275 430.848 517.013 430.538 517.529 429.916C518.056 429.295 518.32 428.475 518.32 427.456Z" fill="white" style="fill:white;fill-opacity:1;"/>
<path d="M75.687 436.438V440.41H57.248L57.0019 437.334L67.6716 420.407H71.6968L67.3376 427.702L62.0291 436.438H75.687ZM72.7866 420.407V446H67.7243V420.407H72.7866ZM95.8133 420.407V423.131L85.9171 446H80.5735L90.4697 424.362H77.726V420.407H95.8133ZM103.864 434.346L99.821 433.379L101.28 420.407H115.658V424.503H105.446L104.813 430.18C105.153 429.981 105.669 429.77 106.36 429.547C107.051 429.313 107.825 429.196 108.68 429.196C109.922 429.196 111.024 429.389 111.985 429.776C112.946 430.163 113.76 430.725 114.428 431.463C115.108 432.202 115.623 433.104 115.975 434.17C116.326 435.237 116.502 436.444 116.502 437.791C116.502 438.928 116.326 440.012 115.975 441.043C115.623 442.063 115.09 442.977 114.375 443.785C113.661 444.582 112.764 445.209 111.686 445.666C110.608 446.123 109.331 446.352 107.854 446.352C106.752 446.352 105.686 446.187 104.655 445.859C103.635 445.531 102.715 445.045 101.895 444.4C101.087 443.756 100.436 442.977 99.9441 442.063C99.4636 441.137 99.2117 440.082 99.1883 438.899H104.215C104.286 439.625 104.473 440.252 104.778 440.779C105.094 441.295 105.51 441.693 106.026 441.975C106.542 442.256 107.145 442.397 107.836 442.397C108.481 442.397 109.032 442.274 109.489 442.027C109.946 441.781 110.315 441.442 110.596 441.008C110.877 440.563 111.082 440.047 111.211 439.461C111.352 438.863 111.422 438.219 111.422 437.528C111.422 436.836 111.34 436.209 111.176 435.647C111.012 435.084 110.76 434.598 110.42 434.188C110.081 433.778 109.647 433.461 109.12 433.239C108.604 433.016 108.001 432.905 107.309 432.905C106.372 432.905 105.645 433.051 105.129 433.344C104.626 433.637 104.204 433.971 103.864 434.346ZM132.832 420.143H133.57V424.186H133.271C131.935 424.186 130.746 424.385 129.703 424.784C128.66 425.182 127.775 425.751 127.049 426.489C126.334 427.215 125.783 428.094 125.397 429.125C125.022 430.157 124.834 431.311 124.834 432.588V436.842C124.834 437.756 124.922 438.565 125.098 439.268C125.285 439.959 125.549 440.539 125.889 441.008C126.24 441.465 126.65 441.811 127.119 442.045C127.588 442.268 128.115 442.379 128.701 442.379C129.252 442.379 129.75 442.262 130.195 442.027C130.652 441.793 131.039 441.465 131.355 441.043C131.683 440.61 131.93 440.106 132.094 439.531C132.269 438.946 132.357 438.307 132.357 437.615C132.357 436.924 132.269 436.285 132.094 435.7C131.93 435.114 131.683 434.61 131.355 434.188C131.027 433.754 130.629 433.42 130.16 433.186C129.691 432.952 129.164 432.834 128.578 432.834C127.781 432.834 127.078 433.022 126.469 433.397C125.871 433.76 125.402 434.229 125.063 434.803C124.723 435.377 124.541 435.981 124.518 436.614L122.988 435.629C123.024 434.727 123.211 433.871 123.551 433.063C123.902 432.254 124.383 431.539 124.992 430.918C125.613 430.286 126.357 429.793 127.225 429.442C128.092 429.079 129.07 428.897 130.16 428.897C131.355 428.897 132.404 429.125 133.306 429.582C134.22 430.04 134.982 430.666 135.592 431.463C136.201 432.26 136.658 433.18 136.963 434.223C137.267 435.266 137.42 436.379 137.42 437.563C137.42 438.805 137.215 439.959 136.804 441.026C136.406 442.092 135.826 443.024 135.064 443.82C134.314 444.617 133.412 445.238 132.357 445.684C131.303 446.129 130.119 446.352 128.807 446.352C127.447 446.352 126.211 446.105 125.098 445.613C123.996 445.109 123.047 444.406 122.25 443.504C121.453 442.602 120.838 441.529 120.404 440.287C119.983 439.045 119.772 437.686 119.772 436.209V434.241C119.772 432.178 120.07 430.291 120.668 428.581C121.277 426.858 122.151 425.37 123.287 424.116C124.424 422.85 125.795 421.872 127.4 421.18C129.006 420.489 130.816 420.143 132.832 420.143Z" fill="white" style="fill:white;fill-opacity:1;"/>
<path d="M256.963 437.263C256.941 435.852 257.339 434.466 258.107 433.283C258.875 432.099 259.978 431.171 261.275 430.616C262.572 430.061 264.005 429.905 265.392 430.166C266.778 430.428 268.055 431.096 269.061 432.086C270.066 433.076 270.754 434.343 271.037 435.725C271.321 437.107 271.186 438.543 270.651 439.848C270.116 441.154 269.205 442.271 268.034 443.057C266.862 443.843 265.483 444.263 264.072 444.263C262.201 444.277 260.401 443.548 259.068 442.235C257.735 440.922 256.978 439.134 256.963 437.263ZM230.311 437.263C230.289 435.852 230.687 434.466 231.455 433.282C232.223 432.098 233.325 431.168 234.623 430.613C235.92 430.057 237.353 429.901 238.74 430.163C240.127 430.424 241.405 431.092 242.411 432.082C243.417 433.073 244.105 434.34 244.389 435.722C244.673 437.105 244.538 438.54 244.004 439.846C243.469 441.152 242.558 442.27 241.386 443.056C240.214 443.843 238.834 444.263 237.423 444.263C235.552 444.278 233.751 443.549 232.417 442.236C231.084 440.923 230.326 439.134 230.311 437.263ZM203.653 437.263C203.631 435.852 204.03 434.466 204.798 433.283C205.565 432.099 206.668 431.171 207.965 430.616C209.262 430.061 210.695 429.905 212.082 430.166C213.468 430.428 214.745 431.096 215.751 432.086C216.756 433.076 217.444 434.343 217.727 435.725C218.011 437.107 217.876 438.543 217.341 439.848C216.806 441.154 215.895 442.271 214.724 443.057C213.552 443.843 212.173 444.263 210.762 444.263C208.891 444.277 207.091 443.548 205.758 442.235C204.425 440.922 203.668 439.134 203.653 437.263ZM177.001 437.263C176.979 435.852 177.377 434.466 178.145 433.282C178.913 432.097 180.016 431.168 181.313 430.613C182.611 430.057 184.045 429.901 185.432 430.163C186.819 430.424 188.096 431.093 189.102 432.083C190.108 433.074 190.796 434.34 191.079 435.723C191.363 437.106 191.228 438.542 190.693 439.848C190.157 441.154 189.246 442.271 188.073 443.057C186.901 443.843 185.521 444.264 184.11 444.263C182.239 444.277 180.439 443.548 179.106 442.235C177.773 440.922 177.016 439.134 177.001 437.263Z" fill="white" style="fill:white;fill-opacity:1;"/>
<path d="M381.402 437.264C381.38 435.853 381.779 434.467 382.547 433.284C383.315 432.1 384.417 431.172 385.715 430.617C387.012 430.062 388.445 429.905 389.831 430.167C391.217 430.429 392.495 431.097 393.5 432.087C394.505 433.077 395.193 434.344 395.477 435.726C395.76 437.108 395.625 438.543 395.09 439.849C394.556 441.155 393.644 442.272 392.473 443.058C391.301 443.844 389.922 444.264 388.511 444.264C386.64 444.278 384.84 443.548 383.507 442.236C382.174 440.923 381.417 439.135 381.402 437.264ZM354.711 437.264C354.685 435.848 355.081 434.456 355.849 433.266C356.616 432.076 357.721 431.141 359.021 430.581C360.322 430.021 361.76 429.861 363.152 430.121C364.544 430.382 365.827 431.05 366.838 432.042C367.849 433.034 368.541 434.305 368.827 435.692C369.113 437.079 368.98 438.52 368.444 439.83C367.908 441.141 366.994 442.263 365.818 443.052C364.643 443.842 363.258 444.264 361.842 444.264C360.914 444.273 359.994 444.098 359.133 443.751C358.273 443.404 357.489 442.891 356.826 442.241C356.164 441.591 355.636 440.817 355.273 439.963C354.91 439.109 354.719 438.192 354.71 437.264H354.711ZM328.062 437.264C328.04 435.853 328.439 434.467 329.207 433.284C329.975 432.1 331.077 431.172 332.374 430.617C333.672 430.062 335.105 429.905 336.491 430.167C337.878 430.429 339.154 431.097 340.16 432.087C341.165 433.077 341.853 434.344 342.137 435.726C342.42 437.108 342.286 438.543 341.751 439.849C341.216 441.155 340.304 442.272 339.133 443.058C337.961 443.844 336.582 444.264 335.171 444.264C333.3 444.278 331.5 443.548 330.167 442.236C328.833 440.923 328.076 439.135 328.061 437.264H328.062ZM301.401 437.264C301.379 435.853 301.777 434.467 302.545 433.283C303.313 432.098 304.416 431.169 305.714 430.614C307.011 430.058 308.445 429.902 309.832 430.163C311.219 430.425 312.497 431.094 313.502 432.084C314.508 433.075 315.196 434.341 315.48 435.724C315.763 437.107 315.628 438.543 315.093 439.849C314.558 441.155 313.646 442.272 312.474 443.058C311.301 443.844 309.922 444.264 308.51 444.264C306.639 444.278 304.839 443.548 303.506 442.236C302.173 440.923 301.416 439.135 301.401 437.264Z" fill="white" style="fill:white;fill-opacity:1;"/>
<path d="M69.0779 91.2808H60.3593L60.3124 86.734H67.7888C69.07 86.734 70.1403 86.5543 70.9997 86.195C71.859 85.8356 72.5075 85.3122 72.945 84.6247C73.3981 83.9372 73.6246 83.1013 73.6246 82.1169C73.6246 81.0232 73.4137 80.1326 72.9918 79.4451C72.5856 78.7576 71.945 78.2576 71.07 77.9451C70.195 77.617 69.0857 77.453 67.7419 77.453H62.4452V106.491H56V72.3671H67.7419C69.6794 72.3671 71.4059 72.5546 72.9215 72.9296C74.4527 73.289 75.7496 73.8515 76.8121 74.6171C77.8745 75.3827 78.6792 76.3436 79.2261 77.4998C79.7886 78.6561 80.0698 80.031 80.0698 81.6248C80.0698 83.031 79.7417 84.3278 79.0855 85.5153C78.4448 86.6872 77.4527 87.6403 76.109 88.3746C74.7809 89.109 73.0934 89.5308 71.0466 89.6402L69.0779 91.2808ZM68.7966 106.491H58.4609L61.1561 101.429H68.7966C70.0778 101.429 71.1325 101.218 71.9606 100.796C72.8043 100.374 73.4293 99.7963 73.8356 99.0619C74.2574 98.3119 74.4684 97.4526 74.4684 96.4838C74.4684 95.4213 74.2809 94.4995 73.9059 93.7183C73.5465 92.937 72.9684 92.3355 72.1715 91.9136C71.3903 91.4917 70.3591 91.2808 69.0779 91.2808H62.3749L62.4217 86.734H70.9528L72.4293 88.4918C74.3981 88.5074 75.9996 88.898 77.2339 89.6637C78.4839 90.4293 79.4058 91.4136 79.9995 92.6167C80.5932 93.8198 80.8901 95.1167 80.8901 96.5073C80.8901 98.6947 80.4136 100.531 79.4604 102.015C78.523 103.499 77.148 104.616 75.3355 105.366C73.5387 106.116 71.3591 106.491 68.7966 106.491Z" fill="white" style="fill:white;fill-opacity:1;"/>
<path d="M101.093 100.468V81.1326H107.327V106.491H101.468L101.093 100.468ZM101.89 95.2182L103.812 95.1714C103.812 96.8744 103.624 98.4447 103.249 99.8822C102.874 101.32 102.288 102.57 101.491 103.632C100.71 104.679 99.7178 105.499 98.5147 106.093C97.3116 106.671 95.8898 106.96 94.2492 106.96C92.9992 106.96 91.8586 106.788 90.8274 106.445C89.7962 106.085 88.9056 105.531 88.1556 104.781C87.4212 104.015 86.8509 103.038 86.4447 101.851C86.0384 100.648 85.8353 99.2025 85.8353 97.5151V81.1326H92.0227V97.5619C92.0227 98.4057 92.1164 99.1088 92.3039 99.6713C92.5071 100.234 92.7805 100.695 93.1242 101.054C93.4836 101.398 93.8976 101.648 94.3664 101.804C94.8507 101.945 95.3664 102.015 95.9132 102.015C97.4132 102.015 98.5929 101.718 99.4522 101.124C100.327 100.515 100.952 99.7025 101.327 98.6869C101.702 97.6557 101.89 96.4994 101.89 95.2182Z" fill="white" style="fill:white;fill-opacity:1;"/>
<path d="M120.921 106.491H114.686V78.7889C114.686 76.8827 115.053 75.2811 115.788 73.9843C116.522 72.6718 117.569 71.6797 118.928 71.0078C120.288 70.3359 121.889 70 123.733 70C124.342 70 124.92 70.0391 125.467 70.1172C126.03 70.1953 126.584 70.3047 127.131 70.4453L127.014 75.1561C126.717 75.078 126.389 75.0233 126.03 74.9921C125.686 74.9608 125.303 74.9452 124.881 74.9452C124.038 74.9452 123.319 75.0936 122.725 75.3905C122.131 75.6874 121.678 76.1249 121.366 76.703C121.069 77.2655 120.921 77.9608 120.921 78.7889V106.491ZM126.053 81.1326V85.5856H110.866V81.1326H126.053Z" fill="white" style="fill:white;fill-opacity:1;"/>
<path d="M137.983 106.491H131.748V78.7889C131.748 76.8827 132.116 75.2811 132.85 73.9843C133.584 72.6718 134.631 71.6797 135.991 71.0078C137.35 70.3359 138.951 70 140.795 70C141.404 70 141.983 70.0391 142.529 70.1172C143.092 70.1953 143.647 70.3047 144.193 70.4453L144.076 75.1561C143.779 75.078 143.451 75.0233 143.092 74.9921C142.748 74.9608 142.365 74.9452 141.944 74.9452C141.1 74.9452 140.381 75.0936 139.787 75.3905C139.194 75.6874 138.74 76.1249 138.428 76.703C138.131 77.2655 137.983 77.9608 137.983 78.7889V106.491ZM143.115 81.1326V85.5856H127.928V81.1326H143.115Z" fill="white" style="fill:white;fill-opacity:1;"/>
<path d="M153.123 86.3122V106.491H146.936V81.1326H152.795L153.123 86.3122ZM160.834 80.9685L160.74 86.734C160.396 86.6715 160.006 86.6247 159.568 86.5934C159.146 86.5622 158.748 86.5465 158.373 86.5465C157.42 86.5465 156.584 86.6793 155.865 86.945C155.146 87.195 154.545 87.5621 154.06 88.0465C153.592 88.5309 153.232 89.1246 152.982 89.8277C152.732 90.5152 152.592 91.2964 152.56 92.1714L151.225 92.0074C151.225 90.398 151.389 88.9059 151.717 87.5309C152.045 86.1559 152.521 84.9528 153.146 83.9216C153.771 82.8904 154.553 82.0935 155.49 81.531C156.443 80.9529 157.537 80.6638 158.771 80.6638C159.115 80.6638 159.482 80.6951 159.873 80.7576C160.279 80.8045 160.599 80.8748 160.834 80.9685Z" fill="white" style="fill:white;fill-opacity:1;"/>
<path d="M196.622 95.2651H203.067C202.895 97.5463 202.263 99.5697 201.169 101.335C200.075 103.085 198.552 104.46 196.599 105.46C194.646 106.46 192.278 106.96 189.497 106.96C187.357 106.96 185.427 106.585 183.708 105.835C182.005 105.07 180.544 103.984 179.326 102.577C178.122 101.156 177.201 99.4525 176.56 97.4682C175.919 95.4682 175.599 93.2261 175.599 90.7418V88.1402C175.599 85.6559 175.927 83.4138 176.583 81.4138C177.24 79.4139 178.177 77.7108 179.396 76.3046C180.63 74.8827 182.107 73.789 183.825 73.0234C185.56 72.2578 187.497 71.875 189.638 71.875C192.419 71.875 194.771 72.3906 196.692 73.4218C198.614 74.4374 200.106 75.8358 201.169 77.617C202.231 79.3982 202.872 81.4451 203.091 83.7575H196.646C196.521 82.3201 196.208 81.1013 195.708 80.1014C195.224 79.1014 194.489 78.3436 193.505 77.828C192.536 77.2967 191.247 77.0311 189.638 77.0311C188.388 77.0311 187.286 77.2655 186.333 77.7342C185.396 78.203 184.615 78.9061 183.99 79.8435C183.365 80.7654 182.896 81.9216 182.583 83.3122C182.271 84.6872 182.115 86.2809 182.115 88.0934V90.7418C182.115 92.4761 182.255 94.0308 182.536 95.4057C182.818 96.7807 183.255 97.9447 183.849 98.8978C184.443 99.8509 185.208 100.577 186.146 101.077C187.083 101.577 188.2 101.827 189.497 101.827C191.075 101.827 192.357 101.577 193.341 101.077C194.341 100.577 195.099 99.8431 195.614 98.8744C196.146 97.9057 196.481 96.7026 196.622 95.2651Z" fill="white" style="fill:white;fill-opacity:1;"/>
<path d="M221.559 101.101V89.4058C221.559 88.5465 221.411 87.8043 221.114 87.1793C220.817 86.5543 220.364 86.07 219.754 85.7262C219.145 85.3825 218.372 85.2106 217.434 85.2106C216.606 85.2106 215.879 85.3512 215.254 85.6325C214.645 85.9137 214.176 86.3122 213.848 86.8278C213.52 87.3278 213.356 87.9059 213.356 88.5621H207.145C207.145 87.5153 207.395 86.5231 207.895 85.5856C208.395 84.6325 209.106 83.7888 210.028 83.0544C210.966 82.3044 212.083 81.7185 213.38 81.2966C214.692 80.8748 216.161 80.6638 217.786 80.6638C219.708 80.6638 221.418 80.992 222.918 81.6482C224.434 82.2888 225.621 83.2575 226.481 84.5544C227.356 85.8512 227.793 87.484 227.793 89.4527V100.515C227.793 101.781 227.871 102.867 228.028 103.773C228.2 104.663 228.45 105.437 228.778 106.093V106.491H222.473C222.176 105.851 221.95 105.038 221.793 104.054C221.637 103.054 221.559 102.07 221.559 101.101ZM222.426 91.0464L222.473 94.726H218.559C217.59 94.726 216.739 94.8276 216.004 95.0307C215.27 95.2182 214.669 95.4995 214.2 95.8745C213.731 96.2338 213.38 96.6713 213.145 97.1869C212.911 97.6869 212.794 98.2572 212.794 98.8978C212.794 99.5228 212.934 100.085 213.215 100.585C213.512 101.085 213.934 101.484 214.481 101.781C215.044 102.062 215.7 102.202 216.45 102.202C217.544 102.202 218.497 101.984 219.309 101.546C220.122 101.093 220.754 100.546 221.207 99.9056C221.661 99.265 221.903 98.6557 221.934 98.0775L223.715 100.749C223.497 101.39 223.168 102.07 222.731 102.788C222.293 103.507 221.731 104.179 221.043 104.804C220.356 105.429 219.528 105.945 218.559 106.351C217.59 106.757 216.465 106.96 215.184 106.96C213.544 106.96 212.075 106.632 210.778 105.976C209.481 105.32 208.458 104.421 207.708 103.281C206.958 102.14 206.583 100.843 206.583 99.39C206.583 98.0463 206.833 96.8588 207.333 95.8276C207.833 94.7964 208.575 93.9292 209.559 93.2261C210.544 92.5073 211.762 91.9683 213.215 91.6089C214.684 91.2339 216.364 91.0464 218.254 91.0464H222.426Z" fill="white" style="fill:white;fill-opacity:1;"/>
<path d="M239.559 86.3122V106.491H233.371V81.1326H239.231L239.559 86.3122ZM247.269 80.9685L247.176 86.734C246.832 86.6715 246.441 86.6247 246.004 86.5934C245.582 86.5622 245.184 86.5465 244.809 86.5465C243.855 86.5465 243.02 86.6793 242.301 86.945C241.582 87.195 240.981 87.5621 240.496 88.0465C240.027 88.5309 239.668 89.1246 239.418 89.8277C239.168 90.5152 239.027 91.2964 238.996 92.1714L237.66 92.0074C237.66 90.398 237.824 88.9059 238.152 87.5309C238.481 86.1559 238.957 84.9528 239.582 83.9216C240.207 82.8904 240.988 82.0935 241.926 81.531C242.879 80.9529 243.973 80.6638 245.207 80.6638C245.551 80.6638 245.918 80.6951 246.309 80.7576C246.715 80.8045 247.035 80.8748 247.269 80.9685Z" fill="white" style="fill:white;fill-opacity:1;"/>
<path d="M265.41 101.101V70.4922H271.644V106.491H266.019L265.41 101.101ZM249.121 94.1167V93.6245C249.121 91.687 249.34 89.9293 249.777 88.3512C250.23 86.7575 250.887 85.3903 251.746 84.2497C252.605 83.1091 253.644 82.2263 254.863 81.6013C256.097 80.9763 257.496 80.6638 259.058 80.6638C260.574 80.6638 261.894 80.9685 263.019 81.5779C264.16 82.1872 265.128 83.0544 265.925 84.1794C266.738 85.3044 267.386 86.6403 267.871 88.1871C268.355 89.7183 268.706 91.4058 268.925 93.2495V94.5854C268.706 96.3823 268.355 98.0307 267.871 99.5306C267.386 101.031 266.738 102.343 265.925 103.468C265.128 104.577 264.16 105.437 263.019 106.046C261.879 106.655 260.543 106.96 259.011 106.96C257.465 106.96 256.074 106.64 254.84 105.999C253.621 105.359 252.582 104.46 251.722 103.304C250.879 102.148 250.23 100.788 249.777 99.226C249.34 97.6635 249.121 95.9604 249.121 94.1167ZM255.332 93.6245V94.1167C255.332 95.2104 255.426 96.2338 255.613 97.1869C255.801 98.14 256.105 98.9838 256.527 99.7181C256.949 100.437 257.488 100.999 258.144 101.406C258.816 101.812 259.629 102.015 260.582 102.015C261.8 102.015 262.8 101.749 263.582 101.218C264.378 100.671 264.996 99.9291 265.433 98.9916C265.871 98.0385 266.152 96.9682 266.277 95.7807V92.1011C266.214 91.1636 266.05 90.2965 265.785 89.4996C265.535 88.7027 265.175 88.0153 264.707 87.4371C264.253 86.859 263.691 86.4059 263.019 86.0778C262.347 85.7497 261.55 85.5856 260.629 85.5856C259.675 85.5856 258.863 85.7965 258.191 86.2184C257.519 86.6247 256.972 87.195 256.551 87.9293C256.129 88.6637 255.816 89.5152 255.613 90.4839C255.426 91.4527 255.332 92.4995 255.332 93.6245Z" fill="white" style="fill:white;fill-opacity:1;"/>
<g clip-path="url(#clip0_1119_6292)">
<path d="M650.367 395.737L629.551 445.398H615.97L605.728 405.76C605.105 403.322 604.568 402.428 602.674 401.401C599.586 399.725 594.485 398.155 590 397.174L590.305 395.737H612.167C613.596 395.735 614.978 396.244 616.064 397.173C617.15 398.101 617.869 399.387 618.09 400.798L623.503 429.537L636.872 395.737H650.367ZM703.586 429.186C703.639 416.075 685.46 415.353 685.586 409.497C685.625 407.715 687.321 405.82 691.031 405.336C695.379 404.923 699.758 405.692 703.705 407.562L705.957 397.028C702.115 395.584 698.045 394.837 693.94 394.822C681.24 394.822 672.302 401.58 672.223 411.246C672.143 418.394 678.603 422.376 683.472 424.761C688.481 427.192 690.163 428.756 690.137 430.929C690.104 434.268 686.149 435.732 682.452 435.791C675.993 435.891 672.249 434.049 669.255 432.658L666.93 443.536C669.931 444.914 675.469 446.12 681.213 446.173C694.708 446.173 703.539 439.508 703.586 429.186ZM737.115 445.398H749L738.632 395.737H727.661C726.489 395.726 725.34 396.067 724.364 396.717C723.389 397.367 722.631 398.295 722.189 399.38L702.917 445.398H716.405L719.088 437.978H735.571L737.115 445.398ZM722.785 427.802L729.542 409.152L733.438 427.802H722.785ZM668.725 395.737L658.105 445.398H645.253L655.886 395.737H668.725Z" fill="white" style="fill:white;fill-opacity:1;"/>
</g>
<path fill-rule="evenodd" clip-rule="evenodd" d="M709 136C731.091 136 749 118.091 749 96C749 73.9086 731.091 56 709 56C686.909 56 669 73.9086 669 96C669 118.091 686.909 136 709 136ZM717.865 77.0654L717.962 87.3302C717.973 88.5781 717.982 89.8566 717.959 90.9423C717.948 91.485 717.929 91.9477 717.903 92.3144C717.879 92.6479 717.855 92.8063 717.85 92.8417L717.85 92.8419L717.849 92.8485C717.849 92.85 717.849 92.8497 717.849 92.8476C717.505 94.3393 716.439 95.3596 713.209 96.0396C712.654 96.1562 711.877 96.1793 708.997 96.1793C706.117 96.1793 705.34 96.1562 704.785 96.0396C701.555 95.3596 700.489 94.3393 700.145 92.8476C700.145 92.8491 700.145 92.8497 700.145 92.8493L700.144 92.8417L700.144 92.8417C700.139 92.8063 700.115 92.6479 700.091 92.3144C700.065 91.9477 700.046 91.485 700.035 90.9423C700.012 89.8566 700.021 88.5781 700.032 87.3302L700.129 77.0654L692.105 76.9996L692.009 87.2644C691.997 88.5053 691.988 89.8829 692.013 91.0885C692.035 92.1639 692.087 93.4989 692.302 94.4308C693.623 100.152 698.552 102.416 703.023 103.357C704.569 103.683 706.328 103.682 708.565 103.68H708.565H708.565H708.565L708.997 103.68L709.429 103.68H709.429H709.429H709.429C711.666 103.682 713.425 103.683 714.971 103.357C719.442 102.416 724.37 100.152 725.692 94.4308C725.907 93.4989 725.959 92.1639 725.981 91.0885C726.006 89.8829 725.997 88.5053 725.985 87.2644L725.889 76.9996L717.865 77.0654ZM725.997 115V107.723H691.997V115H725.997Z" fill="white" style="fill:white;fill-opacity:1;"/>
<defs>
<clipPath id="clip0_1119_6292">
<rect width="159" height="159" fill="white" style="fill:white;fill-opacity:1;" transform="translate(590 341)"/>
</clipPath>
</defs>
</svg>
