<svg width="805" height="511" viewBox="0 0 805 511" fill="none" xmlns="http://www.w3.org/2000/svg">
<path d="M769.97 0H35C15.67 0 0 15.67 0 35V476C0 495.33 15.67 511 35 511H769.97C789.3 511 804.97 495.33 804.97 476V35C804.97 15.67 789.3 0 769.97 0Z" fill="#272244" style="fill:#272244;fill:color(display-p3 0.1529 0.1333 0.2667);fill-opacity:1;"/>
<mask id="mask0_1119_6297" style="mask-type:alpha" maskUnits="userSpaceOnUse" x="0" y="0" width="805" height="511">
<path d="M769.97 0H35C15.67 0 0 15.67 0 35V476C0 495.33 15.67 511 35 511H769.97C789.3 511 804.97 495.33 804.97 476V35C804.97 15.67 789.3 0 769.97 0Z" fill="#272244" style="fill:#272244;fill:color(display-p3 0.1529 0.1333 0.2667);fill-opacity:1;"/>
</mask>
<g mask="url(#mask0_1119_6297)">
<g filter="url(#filter0_f_1119_6297)">
<path d="M-546.469 1731.68C-559.658 1725.68 -570.161 1715.01 -575.96 1701.73C-581.758 1688.44 -582.442 1673.49 -577.879 1659.73C-573.316 1645.98 -563.829 1634.4 -551.242 1627.22C-538.656 1620.03 -523.858 1617.76 -509.695 1620.83C-495.532 1623.9 -483.005 1632.09 -474.521 1643.84C-466.037 1655.59 -462.196 1670.06 -463.737 1684.47C-465.278 1698.88 -472.092 1712.21 -482.869 1721.9C-493.646 1731.59 -507.624 1736.95 -522.116 1736.96C-530.516 1736.95 -538.818 1735.15 -546.469 1731.68ZM-537.641 1655.08C-543.041 1658.78 -546.934 1664.3 -548.614 1670.62C-550.293 1676.95 -549.648 1683.67 -546.796 1689.56C-543.943 1695.46 -539.073 1700.13 -533.068 1702.74C-527.063 1705.34 -520.322 1705.71 -514.069 1703.77C-507.816 1701.84 -502.466 1697.72 -498.99 1692.17C-495.513 1686.62 -494.141 1680.01 -495.122 1673.54C-496.104 1667.07 -499.374 1661.16 -504.338 1656.9C-509.303 1652.63 -515.633 1650.28 -522.18 1650.29C-527.698 1650.29 -533.086 1651.96 -537.64 1655.08L-537.641 1655.08ZM402.248 1532.6C392.678 1516.2 389.681 1496.78 393.862 1478.26C398.043 1459.75 409.091 1443.5 424.777 1432.81C426.154 1431.87 427.571 1430.98 429.028 1430.12C430.818 1429.08 432.796 1428.39 434.851 1428.11C436.905 1427.82 438.995 1427.95 441.001 1428.47C443.007 1429 444.891 1429.91 446.544 1431.16C448.196 1432.42 449.587 1433.98 450.634 1435.77C451.682 1437.56 452.367 1439.54 452.651 1441.59C452.934 1443.65 452.81 1445.74 452.285 1447.74C451.761 1449.75 450.846 1451.63 449.594 1453.29C448.342 1454.94 446.776 1456.33 444.986 1457.38C435.081 1463.18 427.886 1472.68 424.984 1483.79C422.083 1494.9 423.714 1506.7 429.517 1516.61C435.32 1526.51 444.82 1533.71 455.928 1536.61C467.036 1539.51 478.842 1537.88 488.748 1532.08C490.538 1531.01 492.521 1530.31 494.583 1530.02C496.645 1529.72 498.745 1529.84 500.762 1530.36C502.779 1530.88 504.673 1531.79 506.335 1533.05C507.997 1534.3 509.396 1535.87 510.448 1537.67C511.5 1539.47 512.186 1541.46 512.467 1543.52C512.748 1545.59 512.618 1547.68 512.084 1549.7C511.55 1551.71 510.623 1553.6 509.356 1555.25C508.089 1556.91 506.509 1558.29 504.704 1559.33C487.569 1569.36 467.155 1572.18 447.945 1567.16C428.735 1562.15 412.3 1549.72 402.249 1532.6L402.248 1532.6ZM625.293 1438.51C622.99 1432.38 622.706 1425.67 624.482 1419.37C626.257 1413.07 630 1407.49 635.164 1403.47C640.328 1399.44 646.644 1397.17 653.19 1396.98C659.737 1396.79 666.172 1398.7 671.558 1402.43C676.944 1406.15 680.998 1411.5 683.131 1417.69C685.263 1423.89 685.363 1430.6 683.414 1436.85C681.465 1443.1 677.57 1448.57 672.297 1452.45C667.024 1456.34 660.647 1458.44 654.098 1458.44C647.836 1458.46 641.719 1456.56 636.57 1452.99C631.42 1449.43 627.485 1444.38 625.294 1438.51L625.293 1438.51ZM-629.757 1229.12L-714.721 1222.63C-716.789 1222.48 -718.806 1221.91 -720.656 1220.97C-722.506 1220.04 -724.153 1218.74 -725.503 1217.17C-726.854 1215.6 -727.881 1213.77 -728.526 1211.8C-729.171 1209.83 -729.421 1207.75 -729.263 1205.68L-722.739 1120.7C-722.581 1118.63 -722.017 1116.61 -721.079 1114.76C-720.141 1112.91 -718.848 1111.26 -717.274 1109.91C-715.699 1108.56 -713.874 1107.53 -711.903 1106.89C-709.931 1106.24 -707.852 1105.99 -705.784 1106.15L-620.817 1112.64C-618.749 1112.79 -616.732 1113.36 -614.882 1114.29C-613.032 1115.23 -611.384 1116.52 -610.034 1118.1C-608.684 1119.67 -607.657 1121.5 -607.012 1123.47C-606.367 1125.44 -606.117 1127.52 -606.277 1129.59L-612.802 1214.57C-613.104 1218.54 -614.894 1222.25 -617.813 1224.95C-620.732 1227.66 -624.564 1229.16 -628.544 1229.16C-628.946 1229.16 -629.35 1229.15 -629.757 1229.12ZM-696.556 1192.34L-643.085 1196.42L-638.98 1142.93L-692.451 1138.85L-696.556 1192.34ZM-376.317 1221.37C-384.335 1220.64 -391.751 1216.81 -396.977 1210.68C-402.204 1204.56 -404.825 1196.63 -404.281 1188.6C-403.736 1180.57 -400.069 1173.07 -394.065 1167.71C-388.06 1162.35 -380.195 1159.55 -372.153 1159.91C-364.11 1160.27 -356.53 1163.77 -351.035 1169.66C-345.539 1175.54 -342.564 1183.34 -342.747 1191.39C-342.93 1199.43 -346.257 1207.09 -352.015 1212.72C-357.772 1218.34 -365.504 1221.49 -373.555 1221.49C-374.475 1221.49 -375.396 1221.45 -376.317 1221.37ZM-1406.88 893.866C-1414.13 880.935 -1416.29 865.757 -1412.93 851.316C-1409.56 836.875 -1400.91 824.215 -1388.69 815.824C-1387.38 814.934 -1386.02 814.09 -1384.63 813.294C-1374.46 807.536 -1362.82 804.921 -1351.17 805.778C-1339.52 806.636 -1328.39 810.928 -1319.17 818.113C-1309.96 825.297 -1303.09 835.051 -1299.42 846.142C-1295.75 857.232 -1295.45 869.161 -1298.56 880.422C-1301.67 891.682 -1308.05 901.767 -1316.89 909.403C-1325.73 917.039 -1336.64 921.882 -1348.23 923.321C-1359.82 924.76 -1371.58 922.73 -1382.02 917.487C-1392.46 912.245 -1401.11 904.025 -1406.88 893.867V893.866ZM-1369.04 840.766C-1372.18 842.549 -1374.94 844.932 -1377.16 847.781C-1379.38 850.63 -1381.01 853.888 -1381.98 857.369C-1382.94 860.851 -1383.2 864.488 -1382.76 868.072C-1382.31 871.656 -1381.17 875.118 -1379.39 878.259C-1377.6 881.4 -1375.22 884.16 -1372.37 886.38C-1369.52 888.6 -1366.26 890.238 -1362.78 891.199C-1359.3 892.16 -1355.66 892.426 -1352.08 891.981C-1348.5 891.537 -1345.03 890.39 -1341.89 888.608C-1341.25 888.238 -1340.61 887.843 -1340 887.43C-1335.13 884.122 -1331.45 879.339 -1329.5 873.785C-1327.56 868.231 -1327.44 862.198 -1329.18 856.574C-1330.91 850.95 -1334.41 846.032 -1339.15 842.542C-1343.89 839.052 -1349.62 837.174 -1355.51 837.185C-1360.25 837.182 -1364.91 838.415 -1369.04 840.761V840.766ZM205.026 892.548L183.984 665.721C183.595 661.551 184.879 657.396 187.553 654.172C190.227 650.949 194.072 648.92 198.243 648.531C202.413 648.142 206.568 649.426 209.792 652.1C213.016 654.774 215.045 658.62 215.434 662.79L236.477 889.619C236.864 893.791 235.578 897.944 232.903 901.168C230.228 904.392 226.382 906.421 222.211 906.81C221.713 906.857 221.219 906.88 220.729 906.879C216.796 906.875 213.006 905.402 210.102 902.751C207.198 900.099 205.388 896.459 205.026 892.543V892.548ZM663.527 830.2C660.778 829.839 658.173 828.76 655.974 827.073C653.774 825.385 652.058 823.148 650.998 820.587L609.697 720.828C608.637 718.266 608.269 715.47 608.631 712.721C608.994 709.972 610.073 707.367 611.76 705.168C613.448 702.968 615.685 701.25 618.246 700.189C620.808 699.127 623.604 698.758 626.353 699.119L733.407 713.198C736.156 713.561 738.761 714.64 740.96 716.328C743.159 718.016 744.875 720.253 745.935 722.814C746.996 725.375 747.363 728.171 747.001 730.919C746.638 733.667 745.559 736.272 743.871 738.471L678.119 824.153C676.432 826.353 674.195 828.07 671.634 829.131C669.072 830.192 666.277 830.561 663.528 830.2H663.527ZM669.719 783.222L702.156 740.952L649.345 733.999L669.719 783.222ZM432.73 786.294C428.967 784.453 426.09 781.194 424.73 777.232L417.541 756.278C416.865 754.316 416.582 752.241 416.71 750.17C416.837 748.099 417.372 746.073 418.283 744.209C419.195 742.345 420.465 740.679 422.021 739.307C423.577 737.934 425.389 736.882 427.353 736.211L448.304 729.011C450.265 728.337 452.34 728.055 454.41 728.183C456.479 728.31 458.504 728.844 460.367 729.755C462.231 730.665 463.896 731.933 465.269 733.487C466.642 735.041 467.696 736.85 468.369 738.811L475.569 759.763C476.929 763.726 476.66 768.066 474.82 771.829C472.98 775.593 469.721 778.472 465.759 779.833L444.801 787.033C442.84 787.708 440.765 787.99 438.695 787.862C436.625 787.734 434.6 787.2 432.736 786.289L432.73 786.294ZM-541.481 737.485C-543.517 737.087 -545.454 736.291 -547.181 735.144C-548.909 733.997 -550.394 732.521 -551.551 730.799C-552.707 729.078 -553.514 727.146 -553.924 725.113C-554.333 723.08 -554.338 720.986 -553.938 718.951L-510.105 495.387C-509.707 493.352 -508.911 491.415 -507.764 489.687C-506.617 487.959 -505.141 486.474 -503.42 485.316C-501.699 484.159 -499.766 483.351 -497.733 482.941C-495.7 482.53 -493.606 482.523 -491.571 482.922C-489.535 483.321 -487.598 484.116 -485.87 485.263C-484.142 486.411 -482.657 487.887 -481.499 489.608C-480.342 491.329 -479.535 493.261 -479.124 495.295C-478.713 497.328 -478.707 499.422 -479.105 501.457L-522.94 725.019C-523.335 727.057 -524.129 728.996 -525.276 730.726C-526.422 732.456 -527.899 733.943 -529.621 735.101C-531.343 736.259 -533.278 737.066 -535.312 737.475C-537.347 737.884 -539.442 737.888 -541.478 737.485H-541.481ZM-1208.2 656.842L-1234.19 564.707C-1235.2 560.717 -1234.61 556.489 -1232.55 552.925C-1230.5 549.36 -1227.13 546.74 -1223.17 545.622C-1219.2 544.503 -1214.96 544.975 -1211.34 546.937C-1207.73 548.898 -1205.01 552.194 -1203.79 556.124L-1177.8 648.259C-1177.17 650.274 -1176.96 652.395 -1177.16 654.496C-1177.36 656.597 -1177.99 658.635 -1178.99 660.491C-1180 662.347 -1181.37 663.982 -1183.02 665.301C-1184.66 666.619 -1186.56 667.594 -1188.59 668.168C-1190.62 668.742 -1192.75 668.902 -1194.84 668.64C-1196.94 668.379 -1198.96 667.7 -1200.79 666.644C-1202.62 665.588 -1204.21 664.177 -1205.49 662.494C-1206.76 660.81 -1207.68 658.888 -1208.2 656.842H-1208.2ZM250.806 324.982L182.607 300.47C179.468 299.343 176.767 297.249 174.892 294.491C173.016 291.733 172.063 288.453 172.168 285.119L174.434 212.68C174.512 210.186 175.18 207.746 176.382 205.559C177.585 203.373 179.289 201.502 181.354 200.101C182.719 199.17 184.223 198.461 185.811 198.001L255.392 177.742C258.593 176.808 262.008 176.912 265.147 178.04C268.285 179.168 270.985 181.262 272.859 184.02L313.612 243.931C315.488 246.69 316.442 249.971 316.339 253.304C316.235 256.638 315.079 259.854 313.037 262.49L268.636 319.79C266.594 322.428 263.769 324.351 260.566 325.283C257.363 326.216 253.948 326.11 250.809 324.981L250.806 324.982ZM205.648 225.126L204.097 274.626L250.697 291.377L281.04 252.221L253.191 211.283L205.648 225.126ZM787.285 300.119L703.313 285.592C701.269 285.239 699.314 284.487 697.561 283.378C695.808 282.269 694.291 280.826 693.096 279.13C691.902 277.434 691.053 275.52 690.598 273.496C690.144 271.472 690.093 269.379 690.448 267.335L705.01 183.351C705.726 179.224 708.051 175.55 711.475 173.137C714.898 170.724 719.14 169.768 723.268 170.481L807.239 184.999C809.282 185.353 811.236 186.105 812.989 187.214C814.741 188.323 816.258 189.767 817.452 191.463C818.646 193.158 819.495 195.072 819.949 197.096C820.403 199.119 820.454 201.213 820.098 203.256L805.541 287.24C805.188 289.285 804.436 291.24 803.328 292.994C802.219 294.748 800.776 296.266 799.08 297.461C797.385 298.657 795.47 299.506 793.446 299.961C791.422 300.416 789.328 300.467 787.283 300.112L787.285 300.119ZM724.268 257.158L777.119 266.298L786.281 213.441L733.43 204.299L724.268 257.158ZM1028.07 267.921C1016.43 251.838 1011.64 231.795 1014.76 212.189C1017.88 192.582 1028.65 175.013 1044.7 163.334C1044.84 163.234 1044.97 163.134 1045.12 163.034C1048.55 160.718 1052.75 159.841 1056.82 160.593C1060.89 161.345 1064.51 163.665 1066.88 167.054C1069.26 170.444 1070.21 174.63 1069.53 178.714C1068.85 182.798 1066.6 186.451 1063.25 188.888C1058.63 192.22 1054.71 196.43 1051.72 201.277C1048.74 206.125 1046.73 211.515 1045.83 217.139C1044.93 222.762 1045.14 228.508 1046.47 234.048C1047.79 239.588 1050.19 244.812 1053.54 249.421C1056.88 254.03 1061.11 257.934 1065.96 260.908C1070.82 263.883 1076.22 265.869 1081.84 266.754C1087.47 267.639 1093.21 267.404 1098.75 266.065C1104.29 264.725 1109.5 262.306 1114.1 258.946C1115.77 257.702 1117.67 256.804 1119.69 256.306C1121.71 255.807 1123.81 255.719 1125.87 256.045C1127.92 256.371 1129.89 257.106 1131.66 258.205C1133.43 259.305 1134.96 260.746 1136.16 262.446C1137.37 264.125 1138.25 266.027 1138.73 268.045C1139.21 270.062 1139.3 272.154 1138.97 274.203C1138.64 276.251 1137.92 278.215 1136.83 279.983C1135.75 281.75 1134.32 283.286 1132.64 284.504C1119.93 293.802 1104.57 298.802 1088.82 298.779C1076.97 298.802 1065.29 296.018 1054.73 290.652C1044.17 285.287 1035.04 277.495 1028.07 267.915L1028.07 267.921ZM21.5074 42.1921C19.5254 41.5812 17.6832 40.5857 16.0861 39.2624C14.4889 37.9391 13.1681 36.3141 12.1993 34.4802L1.84827 14.8801C-0.0980225 11.1726 -0.496826 6.84564 0.738892 2.84491C1.97461 -1.15582 4.74451 -4.50446 8.4425 -6.46857L28.0426 -16.8177C29.876 -17.7866 31.8822 -18.3851 33.9469 -18.5784C36.0116 -18.7718 38.0944 -18.5563 40.0758 -17.9446C42.0573 -17.3329 43.8983 -16.337 45.4948 -15.0135C47.0912 -13.6899 48.4114 -12.0646 49.3795 -10.2308L59.7267 9.35712C61.6718 13.0637 62.0699 17.3897 60.8351 21.3893C59.6002 25.389 56.8324 28.7373 53.1364 30.7023L33.5485 41.0593C31.7148 42.0294 29.7081 42.6284 27.6427 42.8224C25.5773 43.0165 23.4937 42.8017 21.5114 42.1901L21.5074 42.1921ZM603.839 -40.6268L531.383 -41.9617C528.048 -42.0235 524.818 -43.1396 522.156 -45.1502C519.495 -47.1608 517.538 -49.9624 516.567 -53.1536L495.466 -122.47C494.496 -125.661 494.56 -129.077 495.65 -132.23C496.739 -135.382 498.798 -138.109 501.532 -140.02L560.943 -181.548C561 -181.588 561.062 -181.63 561.123 -181.67C563.851 -183.523 567.091 -184.475 570.388 -184.392C573.685 -184.31 576.874 -183.197 579.505 -181.209L637.332 -137.54C639.994 -135.531 641.951 -132.73 642.922 -129.539C643.894 -126.349 643.83 -122.932 642.74 -119.781L619.059 -51.2659C617.984 -48.1614 615.969 -45.4686 613.294 -43.5618C610.618 -41.655 607.416 -40.6287 604.13 -40.6258L603.839 -40.6268ZM529.028 -120.702L543.447 -73.3348L592.96 -72.4236L609.144 -119.239L569.628 -149.081L529.028 -120.702ZM95.6115 -388.719L18.6925 -461.844C16.6808 -463.354 15.0587 -465.323 13.9606 -467.586C12.8624 -469.849 12.3198 -472.342 12.3785 -474.857C12.4373 -477.372 13.0955 -479.836 14.298 -482.046C15.5005 -484.255 17.2126 -486.146 19.2926 -487.561C19.3259 -487.577 19.3564 -487.598 19.3834 -487.623C20.7322 -488.538 22.2144 -489.24 23.7775 -489.702L127.339 -520.302C129.998 -521.088 132.817 -521.16 135.512 -520.512C138.207 -519.863 140.684 -518.516 142.693 -516.606C144.702 -514.696 146.174 -512.291 146.959 -509.632C147.744 -506.973 147.815 -504.155 147.165 -501.46L121.843 -396.476C121.195 -393.78 119.848 -391.303 117.938 -389.293C116.029 -387.283 113.624 -385.812 110.965 -385.026C108.306 -384.24 105.488 -384.168 102.792 -384.817C100.097 -385.466 97.6194 -386.812 95.6095 -388.722L95.6115 -388.719ZM58.9557 -467.16L97.5553 -430.46L110.045 -482.251L58.9557 -467.16ZM-1012.13 -551.722C-1021.7 -568.119 -1024.7 -587.534 -1020.52 -606.054C-1016.34 -624.573 -1005.29 -640.819 -989.608 -651.515C-988.23 -652.448 -986.813 -653.342 -985.357 -654.198C-983.567 -655.246 -981.589 -655.931 -979.534 -656.214C-977.479 -656.497 -975.389 -656.374 -973.382 -655.849C-971.375 -655.324 -969.492 -654.409 -967.839 -653.157C-966.185 -651.904 -964.795 -650.338 -963.747 -648.548C-962.699 -646.758 -962.014 -644.78 -961.73 -642.725C-961.447 -640.67 -961.571 -638.58 -962.096 -636.573C-962.621 -634.566 -963.535 -632.682 -964.788 -631.029C-966.041 -629.376 -967.606 -627.986 -969.396 -626.938C-974.317 -624.073 -978.624 -620.265 -982.071 -615.733C-985.517 -611.201 -988.036 -606.034 -989.482 -600.527C-990.928 -595.02 -991.273 -589.282 -990.498 -583.641C-989.723 -578 -987.842 -572.568 -984.964 -567.655C-982.086 -562.742 -978.267 -558.446 -973.725 -555.012C-969.184 -551.577 -964.01 -549.073 -958.499 -547.641C-952.988 -546.21 -947.249 -545.88 -941.61 -546.671C-935.972 -547.461 -930.544 -549.356 -925.639 -552.248C-922.025 -554.354 -917.723 -554.939 -913.677 -553.877C-909.631 -552.814 -906.172 -550.19 -904.059 -546.58C-901.945 -542.97 -901.35 -538.669 -902.404 -534.621C-903.458 -530.573 -906.075 -527.109 -909.68 -524.988C-926.815 -514.961 -947.229 -512.144 -966.438 -517.157C-985.648 -522.169 -1002.08 -534.6 -1012.13 -551.721L-1012.13 -551.722ZM-789.092 -645.809C-791.122 -651.212 -791.591 -657.077 -790.445 -662.733C-789.298 -668.39 -786.584 -673.609 -782.61 -677.795C-778.637 -681.981 -773.565 -684.965 -767.976 -686.404C-762.387 -687.843 -756.505 -687.68 -751.004 -685.934C-745.503 -684.188 -740.605 -680.929 -736.869 -676.529C-733.133 -672.13 -730.711 -666.767 -729.88 -661.056C-729.048 -655.345 -729.841 -649.515 -732.167 -644.233C-734.494 -638.951 -738.26 -634.43 -743.034 -631.188C-745.052 -629.822 -747.222 -628.698 -749.502 -627.839C-753.281 -626.418 -757.304 -625.757 -761.339 -625.891C-765.374 -626.025 -769.343 -626.954 -773.019 -628.622C-776.695 -630.291 -780.007 -632.667 -782.764 -635.616C-785.522 -638.565 -787.672 -642.028 -789.091 -645.808L-789.092 -645.809ZM257.574 -809.309C253.486 -810.219 249.926 -812.716 247.677 -816.25C245.429 -819.784 244.676 -824.067 245.584 -828.156L266.361 -921.62C266.796 -923.66 267.63 -925.594 268.816 -927.31C270.001 -929.026 271.515 -930.49 273.27 -931.617C275.024 -932.745 276.985 -933.514 279.038 -933.88C281.092 -934.246 283.197 -934.201 285.234 -933.749C287.27 -933.297 289.196 -932.446 290.901 -931.245C292.607 -930.044 294.057 -928.517 295.17 -926.752C296.282 -924.988 297.033 -923.02 297.38 -920.964C297.728 -918.907 297.665 -916.802 297.194 -914.77L276.419 -821.306C275.97 -819.28 275.127 -817.362 273.937 -815.663C272.747 -813.963 271.233 -812.514 269.483 -811.4C267.733 -810.285 265.781 -809.527 263.737 -809.168C261.693 -808.808 259.599 -808.855 257.573 -809.306L257.574 -809.309Z" fill="#FF1245" style="fill:#FF1245;fill:color(display-p3 1.0000 0.0706 0.2706);fill-opacity:1;"/>
</g>
<g filter="url(#filter1_f_1119_6297)">
<path d="M-464.789 2214.94C-471.197 2214.55 -477.322 2212.16 -482.306 2208.12C-487.29 2204.07 -490.882 2198.56 -492.579 2192.37C-494.276 2186.18 -493.994 2179.61 -491.771 2173.59C-489.547 2167.57 -485.494 2162.39 -480.181 2158.79C-476.198 2156.09 -471.637 2154.37 -466.865 2153.75C-462.093 2153.14 -457.244 2153.65 -452.707 2155.25C-448.169 2156.85 -444.071 2159.49 -440.741 2162.97C-437.412 2166.44 -434.944 2170.65 -433.536 2175.25C-432.128 2179.85 -431.819 2184.71 -432.634 2189.46C-433.45 2194.2 -435.367 2198.68 -438.231 2202.55C-441.095 2206.41 -444.827 2209.55 -449.125 2211.71C-453.424 2213.88 -458.17 2215 -462.981 2214.99C-463.584 2214.99 -464.186 2214.97 -464.789 2214.94ZM-598.126 2036.52L-603.515 2015.03C-604.021 2013.01 -604.125 2010.92 -603.821 2008.87C-603.518 2006.82 -602.813 2004.84 -601.747 2003.06C-600.681 2001.28 -599.275 1999.73 -597.608 1998.49C-595.942 1997.26 -594.049 1996.36 -592.036 1995.86L-570.536 1990.46C-568.524 1989.95 -566.432 1989.85 -564.379 1990.15C-562.327 1990.45 -560.354 1991.16 -558.575 1992.22C-556.795 1993.29 -555.243 1994.7 -554.007 1996.36C-552.772 1998.03 -551.877 1999.93 -551.374 2001.94L-545.993 2023.44C-545.488 2025.45 -545.385 2027.54 -545.688 2029.59C-545.992 2031.65 -546.697 2033.62 -547.763 2035.4C-548.829 2037.18 -550.236 2038.73 -551.902 2039.96C-553.569 2041.2 -555.462 2042.09 -557.474 2042.6L-578.964 2047.99C-580.976 2048.5 -583.068 2048.6 -585.12 2048.3C-587.173 2048 -589.146 2047.3 -590.926 2046.23C-592.706 2045.17 -594.258 2043.76 -595.494 2042.09C-596.729 2040.43 -597.624 2038.53 -598.126 2036.52V2036.52ZM-39.8882 1937.56C-46.0463 1929.89 -50.6334 1921.09 -53.3882 1911.65C-56.1429 1902.21 -57.0112 1892.31 -55.9434 1882.54C-54.8755 1872.76 -51.8925 1863.29 -47.1646 1854.67C-42.4366 1846.04 -36.0564 1838.43 -28.3882 1832.28C-26.7815 1830.99 -25.1343 1829.77 -23.4463 1828.62C-7.87769 1818.09 11.0826 1813.8 29.6689 1816.6C48.2552 1819.4 65.108 1829.09 76.8799 1843.74C79.5033 1847.01 80.7212 1851.19 80.2656 1855.35C79.8101 1859.52 77.7179 1863.33 74.4502 1865.96C71.1825 1868.58 67.0065 1869.8 62.8408 1869.34C58.6752 1868.89 54.8612 1866.79 52.2378 1863.53C45.0195 1854.65 34.5817 1848.99 23.2046 1847.79C11.8275 1846.58 0.435669 1849.93 -8.48193 1857.09C-17.3995 1864.26 -23.1182 1874.67 -24.3887 1886.04C-25.6592 1897.41 -22.3779 1908.82 -15.2622 1917.78C-12.7617 1921.05 -11.6407 1925.18 -12.1387 1929.27C-12.6366 1933.36 -14.7144 1937.1 -17.9277 1939.68C-21.1411 1942.26 -25.2358 1943.48 -29.3389 1943.09C-33.4419 1942.69 -37.228 1940.71 -39.8892 1937.56H-39.8882ZM-202.92 1783.96C-212.35 1779.52 -220.438 1772.66 -226.363 1764.08C-232.287 1755.51 -235.838 1745.52 -236.654 1735.12C-237.471 1724.73 -235.524 1714.31 -231.012 1704.91C-226.499 1695.52 -219.582 1687.48 -210.961 1681.62C-202.407 1675.83 -192.484 1672.38 -182.181 1671.62C-171.878 1670.86 -161.557 1672.82 -152.248 1677.3C-142.939 1681.78 -134.968 1688.63 -129.132 1697.15C-123.296 1705.67 -119.798 1715.58 -118.989 1725.88C-118.18 1736.18 -120.087 1746.51 -124.521 1755.84C-128.954 1765.17 -135.757 1773.18 -144.252 1779.06C-152.748 1784.93 -162.637 1788.48 -172.932 1789.34C-183.227 1790.2 -193.567 1788.35 -202.92 1783.96ZM-193.225 1707.75C-198.612 1711.45 -202.493 1716.96 -204.165 1723.28C-205.837 1729.6 -205.188 1736.3 -202.337 1742.19C-199.486 1748.07 -194.621 1752.73 -188.625 1755.33C-182.63 1757.93 -175.901 1758.29 -169.66 1756.35C-163.419 1754.42 -158.08 1750.3 -154.611 1744.77C-151.143 1739.23 -149.775 1732.63 -150.755 1726.17C-151.736 1719.71 -155.001 1713.81 -159.957 1709.55C-164.912 1705.29 -171.231 1702.95 -177.766 1702.95C-183.284 1702.97 -188.671 1704.64 -193.226 1707.75L-193.225 1707.75ZM612.094 1325.15L504.215 1320.47C501.445 1320.35 498.754 1319.51 496.416 1318.02C494.077 1316.53 492.171 1314.45 490.891 1311.99C489.611 1309.53 489.001 1306.77 489.123 1304C489.245 1301.23 490.094 1298.54 491.585 1296.21L549.62 1205.12C551.109 1202.78 553.188 1200.87 555.646 1199.59C558.105 1198.31 560.858 1197.7 563.628 1197.82C566.398 1197.94 569.088 1198.79 571.426 1200.27C573.765 1201.76 575.67 1203.84 576.951 1206.3L626.796 1302.08C628.049 1304.48 628.66 1307.18 628.57 1309.89C628.48 1312.6 627.693 1315.25 626.283 1317.57C624.873 1319.89 622.888 1321.81 620.521 1323.14C618.154 1324.47 615.484 1325.17 612.768 1325.17C612.543 1325.16 612.318 1325.16 612.093 1325.15L612.094 1325.15ZM532.928 1290.1L586.145 1292.41L561.556 1245.16L532.928 1290.1ZM70.3398 1179.23L1.04004 1098.86C-0.716064 1097.24 -2.08496 1095.26 -2.96387 1093.04C-3.84277 1090.82 -4.20923 1088.44 -4.03564 1086.06C-3.86206 1083.68 -3.15295 1081.37 -1.96143 1079.31C-0.769897 1077.24 0.872925 1075.47 2.84473 1074.13C2.86975 1074.11 2.90369 1074.09 2.93066 1074.07C4.71558 1072.86 6.72998 1072.03 8.84961 1071.62L114.935 1051.42C117.658 1050.91 120.47 1051.11 123.087 1052.03C125.705 1052.94 128.036 1054.52 129.846 1056.62C131.656 1058.72 132.881 1061.26 133.399 1063.99C133.916 1066.71 133.708 1069.52 132.794 1072.14L97.209 1174.11C96.2963 1176.73 94.7103 1179.06 92.6108 1180.87C90.5114 1182.68 87.9722 1183.91 85.2485 1184.43C82.5249 1184.95 79.7131 1184.74 77.0952 1183.83C74.4773 1182.91 72.1458 1181.33 70.335 1179.23L70.3398 1179.23ZM41.625 1097.54L76.4048 1137.88L93.9619 1087.58L41.625 1097.54ZM-986.365 943.088C-987.665 931.203 -985.327 919.204 -979.661 908.676C-973.994 898.149 -965.267 889.588 -954.631 884.128C-943.995 878.667 -931.952 876.563 -920.095 878.094C-908.238 879.625 -897.125 884.718 -888.224 892.7C-879.324 900.682 -873.056 911.178 -870.249 922.8C-867.441 934.421 -868.227 946.621 -872.502 957.786C-876.778 968.951 -884.341 978.556 -894.192 985.33C-904.043 992.104 -915.719 995.73 -927.674 995.726C-942.224 995.724 -956.26 990.351 -967.092 980.637C-977.923 970.922 -984.787 957.551 -986.366 943.088H-986.365ZM-930.615 909.277C-935.066 909.751 -939.331 911.317 -943.032 913.835C-948.123 917.278 -951.914 922.327 -953.801 928.176C-955.688 934.025 -955.562 940.338 -953.443 946.107C-951.325 951.876 -947.335 956.77 -942.111 960.007C-936.887 963.245 -930.729 964.64 -924.62 963.97C-920.17 963.496 -915.905 961.931 -912.205 959.412C-907.112 955.97 -903.318 950.921 -901.43 945.072C-899.541 939.222 -899.666 932.908 -901.785 927.138C-903.904 921.367 -907.895 916.473 -913.12 913.236C-918.346 909.998 -924.505 908.604 -930.615 909.277ZM-1155.16 847.387L-1167.53 829C-1169.87 825.533 -1170.73 821.283 -1169.94 817.18C-1169.14 813.077 -1166.76 809.456 -1163.3 807.109C-1163.28 807.097 -1163.26 807.084 -1163.24 807.07L-1144.85 794.697C-1143.13 793.538 -1141.2 792.731 -1139.17 792.32C-1137.13 791.908 -1135.04 791.901 -1133 792.3C-1130.97 792.698 -1129.03 793.493 -1127.3 794.641C-1125.57 795.788 -1124.09 797.264 -1122.93 798.985L-1110.57 817.371C-1108.24 820.838 -1107.38 825.087 -1108.18 829.187C-1108.97 833.288 -1111.36 836.907 -1114.81 839.253C-1114.83 839.266 -1114.85 839.279 -1114.86 839.29L-1133.24 851.661C-1134.96 852.821 -1136.89 853.63 -1138.93 854.042C-1140.96 854.455 -1143.05 854.463 -1145.09 854.066C-1147.12 853.669 -1149.06 852.874 -1150.79 851.728C-1152.52 850.582 -1154 849.105 -1155.16 847.385V847.387ZM-26.479 823.309C-28.5067 822.873 -30.4287 822.042 -32.1353 820.863C-33.8418 819.684 -35.2996 818.181 -36.4248 816.439C-37.55 814.697 -38.3208 812.75 -38.6934 810.709C-39.0659 808.669 -39.0331 806.575 -38.5962 804.548L9.33789 581.811C9.77368 579.783 10.6046 577.861 11.7832 576.155C12.9618 574.448 14.4651 572.99 16.207 571.865C17.949 570.739 19.8954 569.967 21.9355 569.594C23.9757 569.22 26.0695 569.253 28.0972 569.688C30.1249 570.124 32.0472 570.955 33.7539 572.134C35.4606 573.312 36.9182 574.816 38.0439 576.557C39.1697 578.299 39.941 580.246 40.3145 582.286C40.6879 584.327 40.6555 586.42 40.2197 588.448L-7.71436 811.183C-8.14807 813.213 -8.97791 815.136 -10.1562 816.845C-11.3346 818.553 -12.838 820.012 -14.5811 821.139C-16.3241 822.265 -18.2723 823.037 -20.314 823.409C-22.3556 823.781 -24.4506 823.747 -26.479 823.309ZM-1460.38 763.809L-1531.51 716.875C-1533.24 715.733 -1534.73 714.261 -1535.89 712.543C-1537.05 710.825 -1537.86 708.895 -1538.28 706.863C-1538.7 704.831 -1538.71 702.736 -1538.31 700.7C-1537.92 698.664 -1537.13 696.725 -1535.98 694.995L-1489.02 623.849C-1487.88 622.115 -1486.41 620.624 -1484.69 619.46C-1482.98 618.296 -1481.05 617.482 -1479.01 617.065C-1476.98 616.649 -1474.89 616.637 -1472.85 617.031C-1470.81 617.425 -1468.87 618.218 -1467.14 619.363L-1396.02 666.299C-1394.29 667.441 -1392.8 668.913 -1391.64 670.631C-1390.47 672.349 -1389.66 674.279 -1389.25 676.311C-1388.83 678.343 -1388.82 680.437 -1389.21 682.474C-1389.61 684.51 -1390.4 686.449 -1391.54 688.179L-1438.5 759.323C-1439.64 761.056 -1441.11 762.547 -1442.83 763.711C-1444.55 764.875 -1446.48 765.689 -1448.51 766.106C-1450.54 766.523 -1452.64 766.534 -1454.67 766.14C-1456.71 765.746 -1458.65 764.954 -1460.38 763.809ZM-1500.92 699.209L-1456.16 728.747L-1426.6 683.975L-1471.37 654.435L-1500.92 699.209ZM-780.732 738.065C-788.326 736.142 -794.901 731.396 -799.118 724.793C-803.334 718.191 -804.874 710.229 -803.425 702.531C-801.975 694.832 -797.646 687.976 -791.317 683.359C-784.988 678.742 -777.137 676.712 -769.364 677.682C-761.59 678.652 -754.479 682.549 -749.479 688.58C-744.48 694.611 -741.967 702.32 -742.454 710.139C-742.941 717.958 -746.391 725.296 -752.1 730.66C-757.81 736.024 -765.349 739.009 -773.183 739.007C-775.727 739.005 -778.26 738.689 -780.726 738.064L-780.732 738.065ZM832.84 618.741L629.54 516.047C625.866 514.12 623.097 510.825 621.832 506.873C620.566 502.922 620.906 498.632 622.777 494.929C624.649 491.226 627.901 488.407 631.833 487.082C635.765 485.757 640.06 486.032 643.791 487.847L847.091 590.547C848.993 591.452 850.695 592.729 852.097 594.301C853.498 595.874 854.571 597.711 855.252 599.704C855.934 601.697 856.209 603.807 856.063 605.909C855.917 608.01 855.353 610.061 854.402 611.941C853.452 613.821 852.135 615.493 850.53 616.856C848.924 618.22 847.062 619.249 845.053 619.882C843.044 620.516 840.928 620.741 838.831 620.545C836.734 620.349 834.697 619.736 832.84 618.741ZM-1415.59 478.168L-1487.65 470.408C-1490.97 470.054 -1494.09 468.657 -1496.56 466.419C-1499.03 464.181 -1500.73 461.217 -1501.41 457.953L-1516.28 387.018C-1516.92 383.953 -1516.64 380.767 -1515.46 377.863C-1514.29 374.96 -1512.28 372.47 -1509.69 370.711C-1509.36 370.487 -1509.02 370.277 -1508.68 370.075L-1445.82 333.991C-1442.93 332.331 -1439.58 331.63 -1436.26 331.986C-1432.95 332.343 -1429.83 333.739 -1427.35 335.976L-1373.63 384.602C-1371.16 386.84 -1369.46 389.804 -1368.77 393.069C-1368.09 396.333 -1368.46 399.73 -1369.82 402.773L-1399.49 468.919C-1400.85 471.963 -1403.14 474.498 -1406.03 476.16C-1408.92 477.822 -1412.27 478.524 -1415.58 478.168H-1415.59ZM-1483.01 391.76L-1472.85 440.23L-1423.61 445.53L-1403.34 400.33L-1440.05 367.105L-1483.01 391.76ZM-36.9121 289.705L-51.0562 195.021C-51.3636 192.97 -51.264 190.878 -50.7632 188.866C-50.2623 186.853 -49.3701 184.959 -48.1372 183.291C-46.9043 181.623 -45.355 180.214 -43.5776 179.145C-41.8003 178.076 -39.83 177.368 -37.7788 177.06C-35.7277 176.753 -33.6357 176.853 -31.623 177.353C-29.6104 177.854 -27.7162 178.746 -26.0483 179.979C-24.3805 181.212 -22.9723 182.762 -21.9033 184.539C-20.8344 186.316 -20.1259 188.287 -19.8184 190.338L-5.67529 285.021C-5.05933 289.164 -6.11206 293.382 -8.60254 296.749C-11.093 300.117 -14.8174 302.359 -18.959 302.984C-19.7393 303.101 -20.527 303.16 -21.3159 303.16C-25.0956 303.156 -28.7485 301.796 -31.6104 299.327C-34.4722 296.858 -36.3531 293.444 -36.9111 289.706L-36.9121 289.705ZM466.24 172.431C457.947 167.146 450.777 160.278 445.139 152.222C439.5 144.165 435.505 135.076 433.38 125.474C431.255 115.873 431.043 105.947 432.755 96.2635C434.467 86.58 438.071 77.3287 443.359 69.038C444.468 67.2764 445.914 65.7514 447.614 64.5507C449.314 63.3499 451.235 62.4971 453.266 62.0414C455.297 61.5856 457.398 61.5358 459.448 61.8949C461.499 62.254 463.458 63.0147 465.213 64.1337C466.968 65.2526 468.485 66.7078 469.676 68.4149C470.867 70.1221 471.708 72.0479 472.152 74.0814C472.596 76.115 472.634 78.2164 472.263 80.2645C471.892 82.3127 471.12 84.2673 469.991 86.016C466.937 90.8098 464.857 96.1581 463.87 101.756C462.883 107.353 463.008 113.091 464.238 118.64C465.468 124.189 467.779 129.442 471.04 134.098C474.3 138.754 478.445 142.723 483.239 145.777C488.033 148.831 493.381 150.911 498.979 151.898C504.577 152.885 510.314 152.76 515.863 151.53C521.413 150.299 526.665 147.989 531.321 144.728C535.978 141.468 539.946 137.323 543 132.529C544.109 130.769 545.556 129.246 547.255 128.047C548.955 126.848 550.875 125.997 552.905 125.542C554.935 125.087 557.034 125.038 559.083 125.397C561.132 125.756 563.09 126.516 564.844 127.634C566.598 128.752 568.115 130.206 569.305 131.911C570.496 133.617 571.338 135.541 571.783 137.573C572.228 139.605 572.267 141.705 571.898 143.752C571.529 145.799 570.759 147.753 569.633 149.502C558.953 166.242 542.066 178.059 522.68 182.358C503.295 186.657 482.995 183.087 466.24 172.432V172.431ZM-1879.22 130.542C-1885.63 130.151 -1891.75 127.765 -1896.73 123.719C-1901.72 119.672 -1905.31 114.168 -1907.01 107.977C-1908.7 101.786 -1908.42 95.2197 -1906.2 89.1981C-1903.97 83.1765 -1899.92 78.0015 -1894.61 74.3988C-1888.98 70.5947 -1882.26 68.751 -1875.49 69.1537C-1869.08 69.5439 -1862.95 71.9297 -1857.97 75.976C-1852.99 80.0222 -1849.4 85.5259 -1847.7 91.7162C-1846 97.9064 -1846.29 104.472 -1848.51 110.494C-1850.73 116.515 -1854.79 121.69 -1860.1 125.292C-1865.21 128.746 -1871.24 130.593 -1877.4 130.597C-1878.01 130.599 -1878.62 130.581 -1879.22 130.542H-1879.22ZM-250.741 99.9418L-283.424 35.2728C-284.927 32.2961 -285.45 28.9203 -284.918 25.6283C-284.386 22.3363 -282.825 19.2968 -280.46 16.9457L-229.049 -34.1652C-226.682 -36.5157 -223.633 -38.0573 -220.337 -38.5699C-217.041 -39.0826 -213.667 -38.5399 -210.698 -37.0192L-146.229 -3.91907C-143.262 -2.39551 -140.854 0.0285034 -139.35 3.00525C-137.845 5.98199 -137.322 9.35834 -137.855 12.6508L-149.434 84.2089C-149.971 87.5005 -151.533 90.5384 -153.898 92.8895C-156.264 95.2407 -159.311 96.7848 -162.606 97.3016L-234.224 108.421C-237.52 108.934 -240.894 108.39 -243.861 106.867C-246.829 105.343 -249.237 102.918 -250.741 99.9408V99.9418ZM-250.055 31.2567L-227.721 75.4447L-178.783 67.8451L-170.871 18.9447L-214.925 -3.67395L-250.055 31.2567ZM-884.818 -40.0099L-971.441 -80.7462C-975.17 -82.5681 -978.032 -85.7838 -979.41 -89.6989C-980.787 -93.6139 -980.569 -97.9138 -978.802 -101.669C-977.035 -105.424 -973.861 -108.334 -969.967 -109.768C-966.072 -111.203 -961.77 -111.048 -957.989 -109.336L-871.367 -68.6002C-869.457 -67.7377 -867.738 -66.5036 -866.31 -64.9703C-864.881 -63.437 -863.772 -61.6351 -863.046 -59.6691C-862.321 -57.703 -861.994 -55.6123 -862.084 -53.5187C-862.175 -51.425 -862.681 -49.37 -863.573 -47.4738C-864.465 -45.5775 -865.726 -43.8782 -867.281 -42.4738C-868.837 -41.0693 -870.656 -39.9882 -872.633 -39.2936C-874.61 -38.599 -876.705 -38.3044 -878.797 -38.4274C-880.889 -38.5504 -882.936 -39.0883 -884.818 -40.0099ZM-1454.32 -146.836C-1466.75 -162.324 -1472.53 -182.116 -1470.37 -201.86C-1468.21 -221.605 -1458.3 -239.684 -1442.82 -252.122C-1441.21 -253.409 -1439.56 -254.631 -1437.87 -255.774C-1422.31 -266.305 -1403.35 -270.595 -1384.76 -267.794C-1366.17 -264.993 -1349.32 -255.304 -1337.55 -240.652C-1334.92 -237.385 -1333.71 -233.209 -1334.16 -229.044C-1334.61 -224.878 -1336.71 -221.063 -1339.97 -218.439C-1343.24 -215.815 -1347.41 -214.596 -1351.58 -215.051C-1355.75 -215.505 -1359.56 -217.596 -1362.19 -220.863C-1369.42 -229.7 -1379.84 -235.324 -1391.2 -236.51C-1402.56 -237.696 -1413.92 -234.349 -1422.82 -227.196C-1431.72 -220.043 -1437.44 -209.664 -1438.72 -198.318C-1440.01 -186.973 -1436.76 -175.579 -1429.69 -166.616C-1428.39 -164.999 -1427.42 -163.142 -1426.84 -161.151C-1426.26 -159.16 -1426.08 -157.074 -1426.3 -155.013C-1426.53 -152.951 -1427.16 -150.955 -1428.15 -149.136C-1429.15 -147.318 -1430.5 -145.714 -1432.12 -144.416C-1434.9 -142.149 -1438.39 -140.913 -1441.98 -140.916C-1444.35 -140.914 -1446.69 -141.444 -1448.83 -142.469C-1450.96 -143.493 -1452.84 -144.985 -1454.32 -146.834L-1454.32 -146.836ZM-188.769 -419.971L-273.917 -423.592C-275.989 -423.68 -278.024 -424.176 -279.905 -425.05C-281.786 -425.925 -283.476 -427.162 -284.879 -428.69C-286.282 -430.218 -287.37 -432.007 -288.081 -433.956C-288.792 -435.905 -289.111 -437.975 -289.022 -440.047L-285.364 -525.207C-285.182 -529.392 -283.346 -533.334 -280.26 -536.166C-277.174 -538.999 -273.09 -540.491 -268.904 -540.314L-183.754 -536.69C-181.682 -536.602 -179.647 -536.106 -177.766 -535.232C-175.885 -534.357 -174.195 -533.12 -172.792 -531.592C-171.389 -530.064 -170.301 -528.274 -169.59 -526.326C-168.879 -524.377 -168.558 -522.307 -168.647 -520.235L-172.308 -435.079C-172.485 -431.014 -174.222 -427.173 -177.159 -424.356C-180.096 -421.539 -184.006 -419.964 -188.075 -419.957C-188.31 -419.956 -188.543 -419.96 -188.775 -419.969L-188.769 -419.971ZM-256.783 -454.481L-203.193 -452.202L-200.893 -505.802L-254.485 -508.085L-256.783 -454.481Z" fill="#FF00CE" style="fill:#FF00CE;fill:color(display-p3 1.0000 0.0000 0.8078);fill-opacity:1;"/>
</g>
<g filter="url(#filter2_f_1119_6297)">
<path d="M-446.932 1906.78C-450.276 1904.25 -452.48 1900.5 -453.06 1896.36C-453.641 1892.21 -452.549 1888 -450.027 1884.66L-392.343 1808.18C-391.094 1806.53 -389.532 1805.13 -387.745 1804.08C-385.959 1803.03 -383.982 1802.34 -381.929 1802.05C-379.876 1801.76 -377.785 1801.88 -375.778 1802.4C-373.771 1802.92 -371.885 1803.83 -370.23 1805.08C-368.574 1806.33 -367.181 1807.89 -366.129 1809.68C-365.077 1811.46 -364.387 1813.44 -364.098 1815.49C-363.81 1817.55 -363.929 1819.64 -364.449 1821.64C-364.969 1823.65 -365.878 1825.54 -367.126 1827.19L-424.808 1903.66C-426.056 1905.32 -427.619 1906.72 -429.406 1907.77C-431.193 1908.82 -433.171 1909.52 -435.226 1909.8C-437.28 1910.09 -439.372 1909.98 -441.381 1909.46C-443.389 1908.94 -445.276 1908.02 -446.932 1906.78ZM-550.969 1461.55L-616.633 1378.21C-618.278 1376.57 -619.54 1374.58 -620.328 1372.39C-621.116 1370.2 -621.409 1367.87 -621.189 1365.55C-620.968 1363.23 -620.238 1360.99 -619.051 1358.99C-617.864 1356.99 -616.249 1355.28 -614.323 1353.97C-614.292 1353.96 -614.262 1353.94 -614.235 1353.91C-612.256 1352.57 -609.997 1351.69 -607.629 1351.35L-500.728 1335.82C-497.985 1335.42 -495.184 1335.75 -492.609 1336.78C-490.033 1337.81 -487.774 1339.49 -486.058 1341.67C-484.342 1343.85 -483.23 1346.44 -482.834 1349.18C-482.438 1351.93 -482.773 1354.73 -483.803 1357.3L-523.884 1457.62C-524.911 1460.19 -526.598 1462.45 -528.776 1464.17C-530.953 1465.89 -533.544 1467 -536.289 1467.4C-539.033 1467.8 -541.834 1467.47 -544.41 1466.44C-546.987 1465.41 -549.247 1463.73 -550.965 1461.55H-550.969ZM-576.031 1378.68L-543.072 1420.5L-523.298 1371.02L-576.031 1378.68ZM-132.347 1318.68L-194.532 1099.56C-195.68 1095.53 -195.178 1091.21 -193.139 1087.55C-191.1 1083.88 -187.689 1081.18 -183.658 1080.04C-179.627 1078.89 -175.305 1079.39 -171.643 1081.43C-167.981 1083.47 -165.28 1086.88 -164.133 1090.91L-101.949 1310.03C-101.381 1312.02 -101.212 1314.11 -101.451 1316.17C-101.691 1318.24 -102.333 1320.23 -103.343 1322.04C-104.353 1323.86 -105.71 1325.45 -107.337 1326.74C-108.964 1328.03 -110.828 1328.99 -112.824 1329.55C-114.821 1330.12 -116.909 1330.29 -118.97 1330.05C-121.032 1329.81 -123.026 1329.17 -124.839 1328.16C-126.652 1327.15 -128.249 1325.79 -129.537 1324.17C-130.826 1322.54 -131.781 1320.68 -132.349 1318.68L-132.347 1318.68ZM368.969 988.423L360.396 968.003C359.591 966.09 359.171 964.037 359.16 961.961C359.15 959.886 359.549 957.828 360.334 955.907C361.12 953.986 362.276 952.238 363.737 950.764C365.198 949.291 366.936 948.119 368.85 947.318L389.283 938.726C391.195 937.921 393.247 937.501 395.321 937.49C397.395 937.478 399.452 937.875 401.372 938.658C403.293 939.442 405.04 940.596 406.514 942.055C407.989 943.514 409.161 945.25 409.965 947.162L418.537 967.588C420.157 971.452 420.176 975.802 418.591 979.68C417.005 983.558 413.945 986.649 410.083 988.273L389.648 996.861C387.736 997.666 385.685 998.087 383.61 998.099C381.536 998.111 379.479 997.713 377.558 996.929C375.638 996.146 373.891 994.991 372.417 993.531C370.943 992.072 369.771 990.335 368.969 988.423ZM892.21 782.791C890.485 781.636 889.004 780.154 887.853 778.427C886.701 776.701 885.901 774.765 885.498 772.73C884.683 768.619 885.535 764.352 887.866 760.869C890.197 757.386 893.816 754.972 897.927 754.157C902.039 753.343 906.304 754.195 909.787 756.526C919.337 762.851 931.003 765.136 942.233 762.881C953.463 760.626 963.343 754.014 969.71 744.492C976.077 734.97 978.413 723.314 976.206 712.074C974 700.834 967.432 690.926 957.938 684.518C954.455 682.188 952.039 678.57 951.224 674.459C950.408 670.349 951.259 666.083 953.589 662.599C955.919 659.116 959.537 656.701 963.648 655.885C967.758 655.07 972.024 655.921 975.508 658.251C987.812 666.492 997.397 678.196 1003.05 691.883C1008.71 705.571 1010.18 720.627 1007.28 735.15C1004.38 749.673 997.246 763.012 986.771 773.48C976.295 783.948 962.952 791.077 948.427 793.964C943.559 794.936 938.608 795.427 933.644 795.43C918.884 795.427 904.459 791.028 892.209 782.794L892.21 782.791ZM289.789 637.778C288.111 636.56 286.69 635.022 285.607 633.254C284.524 631.485 283.8 629.52 283.477 627.472L270.185 543.285C269.534 539.146 270.552 534.918 273.016 531.529C275.48 528.14 279.188 525.868 283.326 525.212L367.527 511.853C369.575 511.527 371.667 511.608 373.683 512.092C375.7 512.576 377.602 513.452 379.28 514.671C380.957 515.89 382.378 517.427 383.461 519.196C384.544 520.964 385.268 522.929 385.592 524.978L398.882 609.161C399.532 613.3 398.514 617.528 396.05 620.917C393.586 624.306 389.878 626.578 385.74 627.235L301.54 640.597C299.491 640.922 297.398 640.841 295.382 640.357C293.365 639.874 291.463 638.997 289.784 637.778H289.789ZM303.858 553.936L312.219 606.921L365.219 598.51L356.857 545.528L303.858 553.936ZM-276.777 567.715L-369.69 516.16C-372.317 515.062 -374.599 513.274 -376.293 510.985C-377.987 508.697 -379.031 505.994 -379.314 503.161C-379.598 500.328 -379.11 497.471 -377.903 494.892C-376.695 492.314 -374.814 490.109 -372.456 488.513C-372.435 488.498 -372.399 488.475 -372.37 488.455C-372.126 488.29 -371.882 488.128 -371.625 487.975L-278.983 432.381C-276.606 430.954 -273.895 430.178 -271.122 430.13C-268.35 430.083 -265.614 430.767 -263.19 432.112C-260.766 433.458 -258.739 435.418 -257.313 437.796C-255.886 440.173 -255.111 442.884 -255.065 445.656L-253.313 553.637C-253.267 556.41 -253.951 559.146 -255.297 561.57C-256.643 563.995 -258.604 566.023 -260.982 567.45C-263.36 568.877 -266.072 569.652 -268.844 569.699C-271.617 569.746 -274.354 569.062 -276.779 567.716L-276.777 567.715ZM-331.914 500.977L-285.343 526.819L-286.211 473.55L-331.914 500.977ZM-847.867 506.962C-848.087 504.898 -847.899 502.811 -847.312 500.821C-846.726 498.83 -845.753 496.975 -844.449 495.36C-843.145 493.746 -841.536 492.404 -839.714 491.412C-837.892 490.419 -835.892 489.795 -833.828 489.576L-738.609 479.376C-734.443 478.933 -730.273 480.163 -727.014 482.796C-723.756 485.428 -721.677 489.246 -721.235 493.412C-720.792 497.577 -722.022 501.747 -724.654 505.005C-727.286 508.264 -731.105 510.343 -735.27 510.786L-830.49 520.985C-831.055 521.046 -831.622 521.077 -832.19 521.077C-836.084 521.073 -839.839 519.629 -842.733 517.024C-845.627 514.419 -847.456 510.836 -847.868 506.964L-847.867 506.962ZM905.022 485.079C901.155 483.918 897.554 482.006 894.426 479.453C891.298 476.9 888.705 473.756 886.793 470.199C884.882 466.643 883.69 462.745 883.286 458.727C882.883 454.71 883.275 450.652 884.441 446.787C886.19 440.957 889.628 435.778 894.322 431.903C899.016 428.029 904.753 425.634 910.808 425.022C916.863 424.409 922.964 425.606 928.339 428.462C933.713 431.317 938.12 435.703 941.001 441.064C943.883 446.424 945.109 452.519 944.525 458.577C943.941 464.635 941.574 470.384 937.722 475.096C933.87 479.808 928.707 483.272 922.886 485.049C917.066 486.826 910.848 486.836 905.022 485.079ZM-1179.12 432.666C-1186.9 426.655 -1193.42 419.169 -1198.31 410.637C-1203.2 402.104 -1206.37 392.692 -1207.62 382.937C-1208.87 373.182 -1208.18 363.277 -1205.6 353.787C-1203.03 344.296 -1198.6 335.407 -1192.59 327.627C-1191.32 325.985 -1189.74 324.609 -1187.94 323.578C-1186.14 322.546 -1184.16 321.879 -1182.1 321.614C-1180.05 321.35 -1177.96 321.493 -1175.96 322.035C-1173.95 322.578 -1172.08 323.509 -1170.44 324.776C-1168.8 326.044 -1167.42 327.622 -1166.39 329.421C-1165.36 331.22 -1164.69 333.205 -1164.43 335.261C-1164.16 337.318 -1164.3 339.407 -1164.85 341.408C-1165.39 343.41 -1166.32 345.285 -1167.59 346.926C-1171.13 351.419 -1173.75 356.571 -1175.29 362.083C-1176.83 367.595 -1177.27 373.358 -1176.57 379.038C-1175.86 384.718 -1174.04 390.203 -1171.21 395.174C-1168.37 400.146 -1164.58 404.506 -1160.05 408.003C-1155.52 411.499 -1150.34 414.061 -1144.81 415.542C-1139.28 417.023 -1133.52 417.393 -1127.84 416.63C-1122.17 415.868 -1116.71 413.987 -1111.77 411.098C-1106.82 408.209 -1102.51 404.369 -1099.06 399.8C-1097.79 398.159 -1096.21 396.784 -1094.42 395.753C-1092.62 394.721 -1090.63 394.055 -1088.58 393.79C-1086.52 393.526 -1084.43 393.669 -1082.43 394.212C-1080.43 394.755 -1078.55 395.687 -1076.91 396.954C-1075.27 398.221 -1073.9 399.799 -1072.86 401.598C-1071.83 403.397 -1071.17 405.381 -1070.9 407.438C-1070.64 409.494 -1070.78 411.582 -1071.32 413.584C-1071.87 415.585 -1072.8 417.46 -1074.07 419.101C-1086.21 434.811 -1104.09 445.062 -1123.79 447.605C-1143.48 450.147 -1163.38 444.775 -1179.12 432.665L-1179.12 432.666ZM-738.701 354.705C-739.615 350.614 -738.866 346.328 -736.621 342.789C-734.376 339.249 -730.818 336.746 -726.728 335.829L-504.39 285.929C-500.302 285.015 -496.019 285.762 -492.482 288.006C-488.945 290.25 -486.444 293.808 -485.53 297.896C-484.615 301.984 -485.362 306.267 -487.607 309.804C-489.851 313.341 -493.408 315.842 -497.496 316.756L-719.834 366.656C-721.858 367.113 -723.953 367.166 -725.997 366.812C-728.041 366.458 -729.996 365.705 -731.748 364.594C-733.501 363.484 -735.017 362.038 -736.21 360.341C-737.403 358.644 -738.25 356.728 -738.701 354.703V354.705ZM-1892.53 326.637C-1894.56 326.198 -1896.48 325.364 -1898.18 324.182C-1899.89 323 -1901.34 321.494 -1902.46 319.749L-1914.45 301.123C-1916.67 297.656 -1917.46 293.455 -1916.63 289.418C-1915.81 285.38 -1913.44 281.824 -1910.03 279.509C-1909.92 279.436 -1909.81 279.362 -1909.7 279.294L-1891.06 267.294C-1887.53 265.026 -1883.26 264.25 -1879.16 265.136C-1875.07 266.023 -1871.5 268.499 -1869.23 272.021L-1857.25 290.645C-1855.02 294.112 -1854.24 298.312 -1855.06 302.35C-1855.89 306.387 -1858.26 309.943 -1861.67 312.257C-1861.77 312.327 -1861.88 312.401 -1861.99 312.472L-1880.63 324.472C-1882.37 325.596 -1884.32 326.366 -1886.36 326.737C-1888.41 327.109 -1890.5 327.074 -1892.53 326.635V326.637ZM232.915 91.4606L177.973 44.2277C175.446 42.0529 173.672 39.1335 172.905 35.8883C172.138 32.6431 172.419 29.2386 173.707 26.1627L201.686 -40.7196C202.974 -43.7972 205.202 -46.3888 208.052 -48.1239C210.901 -49.859 214.226 -50.6487 217.552 -50.3802L289.798 -44.4906C293.122 -44.22 296.275 -42.9027 298.804 -40.7289C301.333 -38.5551 303.109 -35.6361 303.876 -32.3905L320.542 38.1388C321.305 41.3857 321.023 44.7909 319.735 47.8678C318.447 50.9447 316.219 53.5358 313.37 55.2706L251.422 92.9708C248.573 94.7072 245.248 95.4961 241.923 95.2252C238.598 94.9543 235.444 93.6371 232.914 91.4625L232.915 91.4606ZM207.283 27.7467L244.825 60.0206L287.154 34.2584L275.767 -13.9325L226.4 -17.9594L207.283 27.7467ZM-1490.33 -41.8632C-1490.89 -47.9155 -1489.63 -53.9972 -1486.74 -59.3387C-1483.84 -64.6803 -1479.42 -69.0422 -1474.04 -71.8729C-1468.66 -74.7036 -1462.56 -75.876 -1456.52 -75.2421C-1450.47 -74.6082 -1444.75 -72.1964 -1440.08 -68.3114C-1435.4 -64.4264 -1431.99 -59.2423 -1430.26 -53.4154C-1428.53 -47.5885 -1428.57 -41.3799 -1430.37 -35.5746C-1432.17 -29.7693 -1435.65 -24.6279 -1440.37 -20.8007C-1445.09 -16.9734 -1450.84 -14.6323 -1456.89 -14.0726C-1457.85 -13.9846 -1458.8 -13.9407 -1459.74 -13.9413C-1467.4 -13.954 -1474.78 -16.8225 -1480.44 -21.9862C-1486.09 -27.1499 -1489.62 -34.2372 -1490.33 -41.8632ZM-1272.07 -168.704C-1273.79 -179.794 -1272.34 -191.144 -1267.87 -201.44C-1263.41 -211.736 -1256.12 -220.557 -1246.85 -226.881C-1238.61 -232.464 -1229.1 -235.878 -1219.2 -236.807C-1209.29 -237.737 -1199.32 -236.151 -1190.19 -232.198C-1181.06 -228.244 -1173.08 -222.051 -1166.98 -214.191C-1160.88 -206.331 -1156.87 -197.059 -1155.3 -187.234C-1153.59 -176.143 -1155.05 -164.794 -1159.51 -154.498C-1163.98 -144.202 -1171.27 -135.382 -1180.54 -129.057C-1187.72 -124.174 -1195.9 -120.945 -1204.48 -119.602C-1212.14 -118.382 -1219.97 -118.683 -1227.51 -120.491C-1235.06 -122.299 -1242.18 -125.577 -1248.46 -130.137C-1254.73 -134.697 -1260.05 -140.451 -1264.1 -147.068C-1268.16 -153.686 -1270.87 -161.037 -1272.08 -168.702L-1272.07 -168.704ZM-1217.98 -205.139C-1221.97 -204.519 -1225.77 -203.02 -1229.11 -200.752C-1234.3 -197.246 -1238.13 -192.078 -1239.97 -186.101C-1241.82 -180.124 -1241.58 -173.696 -1239.28 -167.876C-1236.99 -162.057 -1232.77 -157.194 -1227.34 -154.091C-1221.91 -150.987 -1215.58 -149.828 -1209.4 -150.805C-1205.41 -151.424 -1201.61 -152.923 -1198.27 -155.193C-1193.09 -158.697 -1189.25 -163.865 -1187.4 -169.844C-1185.55 -175.822 -1185.79 -182.253 -1188.09 -188.075C-1190.39 -193.897 -1194.6 -198.761 -1200.04 -201.864C-1205.47 -204.966 -1211.8 -206.122 -1217.98 -205.139ZM-794.823 -174.53L-811.615 -258.085C-812.437 -262.194 -811.596 -266.462 -809.275 -269.951C-806.954 -273.441 -803.344 -275.866 -799.237 -276.696L-715.659 -293.549C-713.627 -293.96 -711.533 -293.967 -709.497 -293.568C-707.462 -293.169 -705.526 -292.373 -703.798 -291.225C-702.071 -290.077 -700.586 -288.6 -699.43 -286.878C-698.274 -285.156 -697.468 -283.224 -697.059 -281.19L-680.26 -197.638C-679.436 -193.529 -680.277 -189.261 -682.597 -185.772C-684.918 -182.283 -688.528 -179.857 -692.635 -179.028L-776.219 -162.171C-778.251 -161.759 -780.346 -161.752 -782.382 -162.151C-784.417 -162.549 -786.354 -163.345 -788.082 -164.493C-789.809 -165.641 -791.294 -167.118 -792.45 -168.841C-793.606 -170.563 -794.411 -172.496 -794.819 -174.53H-794.823ZM-777.529 -248.851L-766.957 -196.263L-714.358 -206.869L-724.928 -259.46L-777.529 -248.851ZM291.64 -206.144C282.726 -216.298 277.558 -229.198 276.997 -242.698C276.436 -256.198 280.516 -269.482 288.558 -280.34C296.6 -291.198 308.118 -298.974 321.195 -302.373C334.271 -305.772 348.118 -304.589 360.429 -299.022C372.74 -293.454 382.773 -283.838 388.857 -271.774C394.941 -259.709 396.709 -245.925 393.867 -232.716C391.025 -219.506 383.744 -207.669 373.237 -199.175C362.729 -190.681 349.629 -186.041 336.117 -186.03C327.7 -186.026 319.378 -187.818 311.708 -191.287C304.038 -194.755 297.197 -199.821 291.64 -206.144ZM317.964 -265.792C312.702 -261.182 309.395 -254.739 308.716 -247.776C308.038 -240.813 310.039 -233.853 314.312 -228.313C318.585 -222.774 324.808 -219.07 331.716 -217.958C338.623 -216.846 345.694 -218.409 351.49 -222.327C352.441 -222.975 353.352 -223.68 354.217 -224.438C359.579 -229.279 362.822 -236.035 363.243 -243.247C363.664 -250.459 361.231 -257.547 356.469 -262.98C351.707 -268.412 344.998 -271.752 337.793 -272.279C330.588 -272.805 323.466 -270.475 317.965 -265.792H317.964ZM192.97 -1089.18C188.876 -1090.06 185.302 -1092.54 183.033 -1096.06L171.05 -1114.69C168.822 -1118.16 168.038 -1122.36 168.864 -1126.4C169.69 -1130.43 172.061 -1133.99 175.471 -1136.31C175.578 -1136.38 175.688 -1136.45 175.797 -1136.52L194.444 -1148.52C196.188 -1149.64 198.136 -1150.41 200.177 -1150.78C202.218 -1151.15 204.312 -1151.12 206.34 -1150.68C208.367 -1150.24 210.288 -1149.4 211.993 -1148.22C213.698 -1147.04 215.154 -1145.53 216.277 -1143.79L228.254 -1125.17C229.38 -1123.42 230.151 -1121.47 230.522 -1119.43C230.893 -1117.39 230.857 -1115.29 230.416 -1113.27C229.975 -1111.24 229.138 -1109.32 227.952 -1107.61C226.766 -1105.91 225.255 -1104.46 223.507 -1103.34L204.866 -1091.34C201.343 -1089.07 197.063 -1088.29 192.967 -1089.18L192.97 -1089.18Z" fill="#5421FF" style="fill:#5421FF;fill:color(display-p3 0.3294 0.1294 1.0000);fill-opacity:1;"/>
</g>
</g>
<path d="M75.7227 370.887V375H62.0996V370.887H75.7227ZM63.8223 349.406V375H58.5488V349.406H63.8223ZM73.9473 359.83V363.838H62.0996V359.83H73.9473ZM75.7051 349.406V353.537H62.0996V349.406H75.7051ZM83.8262 355.98V375H78.7461V355.98H83.8262ZM78.4297 351.023C78.4297 350.285 78.6875 349.676 79.2031 349.195C79.7188 348.715 80.4102 348.475 81.2773 348.475C82.1328 348.475 82.8184 348.715 83.334 349.195C83.8613 349.676 84.125 350.285 84.125 351.023C84.125 351.762 83.8613 352.371 83.334 352.852C82.8184 353.332 82.1328 353.572 81.2773 353.572C80.4102 353.572 79.7188 353.332 79.2031 352.852C78.6875 352.371 78.4297 351.762 78.4297 351.023ZM92.9668 360.041V375H87.9043V355.98H92.6504L92.9668 360.041ZM92.2285 364.822H90.8574C90.8574 363.416 91.0391 362.15 91.4023 361.025C91.7656 359.889 92.2754 358.922 92.9316 358.125C93.5879 357.316 94.3672 356.701 95.2695 356.279C96.1836 355.846 97.2031 355.629 98.3281 355.629C99.2188 355.629 100.033 355.758 100.771 356.016C101.51 356.273 102.143 356.684 102.67 357.246C103.209 357.809 103.619 358.553 103.9 359.479C104.193 360.404 104.34 361.535 104.34 362.871V375H99.2422V362.854C99.2422 362.01 99.125 361.354 98.8906 360.885C98.6562 360.416 98.3105 360.088 97.8535 359.9C97.4082 359.701 96.8574 359.602 96.2012 359.602C95.5215 359.602 94.9297 359.736 94.4258 360.006C93.9336 360.275 93.5234 360.65 93.1953 361.131C92.8789 361.6 92.6387 362.15 92.4746 362.783C92.3105 363.416 92.2285 364.096 92.2285 364.822ZM107.381 365.684V365.314C107.381 363.92 107.58 362.637 107.979 361.465C108.377 360.281 108.957 359.256 109.719 358.389C110.48 357.521 111.418 356.848 112.531 356.367C113.645 355.875 114.922 355.629 116.363 355.629C117.805 355.629 119.088 355.875 120.213 356.367C121.338 356.848 122.281 357.521 123.043 358.389C123.816 359.256 124.402 360.281 124.801 361.465C125.199 362.637 125.398 363.92 125.398 365.314V365.684C125.398 367.066 125.199 368.35 124.801 369.533C124.402 370.705 123.816 371.73 123.043 372.609C122.281 373.477 121.344 374.15 120.23 374.631C119.117 375.111 117.84 375.352 116.398 375.352C114.957 375.352 113.674 375.111 112.549 374.631C111.436 374.15 110.492 373.477 109.719 372.609C108.957 371.73 108.377 370.705 107.979 369.533C107.58 368.35 107.381 367.066 107.381 365.684ZM112.443 365.314V365.684C112.443 366.48 112.514 367.225 112.654 367.916C112.795 368.607 113.018 369.217 113.322 369.744C113.639 370.26 114.049 370.664 114.553 370.957C115.057 371.25 115.672 371.396 116.398 371.396C117.102 371.396 117.705 371.25 118.209 370.957C118.713 370.664 119.117 370.26 119.422 369.744C119.727 369.217 119.949 368.607 120.09 367.916C120.242 367.225 120.318 366.48 120.318 365.684V365.314C120.318 364.541 120.242 363.814 120.09 363.135C119.949 362.443 119.721 361.834 119.404 361.307C119.1 360.768 118.695 360.346 118.191 360.041C117.688 359.736 117.078 359.584 116.363 359.584C115.648 359.584 115.039 359.736 114.535 360.041C114.043 360.346 113.639 360.768 113.322 361.307C113.018 361.834 112.795 362.443 112.654 363.135C112.514 363.814 112.443 364.541 112.443 365.314ZM158.621 349.406V375H153.348L143.064 357.844V375H137.791V349.406H143.064L153.365 366.58V349.406H158.621ZM173.158 370.711V362.238C173.158 361.629 173.059 361.107 172.859 360.674C172.66 360.229 172.35 359.883 171.928 359.637C171.518 359.391 170.984 359.268 170.328 359.268C169.766 359.268 169.279 359.367 168.869 359.566C168.459 359.754 168.143 360.029 167.92 360.393C167.697 360.744 167.586 361.16 167.586 361.641H162.523C162.523 360.832 162.711 360.064 163.086 359.338C163.461 358.611 164.006 357.973 164.721 357.422C165.436 356.859 166.285 356.42 167.27 356.104C168.266 355.787 169.379 355.629 170.609 355.629C172.086 355.629 173.398 355.875 174.547 356.367C175.695 356.859 176.598 357.598 177.254 358.582C177.922 359.566 178.256 360.797 178.256 362.273V370.412C178.256 371.455 178.32 372.311 178.449 372.979C178.578 373.635 178.766 374.209 179.012 374.701V375H173.896C173.65 374.484 173.463 373.84 173.334 373.066C173.217 372.281 173.158 371.496 173.158 370.711ZM173.826 363.416L173.861 366.281H171.031C170.363 366.281 169.783 366.357 169.291 366.51C168.799 366.662 168.395 366.879 168.078 367.16C167.762 367.43 167.527 367.746 167.375 368.109C167.234 368.473 167.164 368.871 167.164 369.305C167.164 369.738 167.264 370.131 167.463 370.482C167.662 370.822 167.949 371.092 168.324 371.291C168.699 371.479 169.139 371.572 169.643 371.572C170.404 371.572 171.066 371.42 171.629 371.115C172.191 370.811 172.625 370.436 172.93 369.99C173.246 369.545 173.41 369.123 173.422 368.725L174.758 370.869C174.57 371.35 174.312 371.848 173.984 372.363C173.668 372.879 173.264 373.365 172.771 373.822C172.279 374.268 171.688 374.637 170.996 374.93C170.305 375.211 169.484 375.352 168.535 375.352C167.328 375.352 166.232 375.111 165.248 374.631C164.275 374.139 163.502 373.465 162.928 372.609C162.365 371.742 162.084 370.758 162.084 369.656C162.084 368.66 162.271 367.775 162.646 367.002C163.021 366.229 163.572 365.578 164.299 365.051C165.037 364.512 165.957 364.107 167.059 363.838C168.16 363.557 169.438 363.416 170.891 363.416H173.826ZM192.441 369.744C192.441 369.381 192.336 369.053 192.125 368.76C191.914 368.467 191.521 368.197 190.947 367.951C190.385 367.693 189.57 367.459 188.504 367.248C187.543 367.037 186.646 366.773 185.814 366.457C184.994 366.129 184.279 365.736 183.67 365.279C183.072 364.822 182.604 364.283 182.264 363.662C181.924 363.029 181.754 362.309 181.754 361.5C181.754 360.703 181.924 359.953 182.264 359.25C182.615 358.547 183.113 357.926 183.758 357.387C184.414 356.836 185.211 356.408 186.148 356.104C187.098 355.787 188.164 355.629 189.348 355.629C191 355.629 192.418 355.893 193.602 356.42C194.797 356.947 195.711 357.674 196.344 358.6C196.988 359.514 197.311 360.557 197.311 361.729H192.248C192.248 361.236 192.143 360.797 191.932 360.41C191.732 360.012 191.416 359.701 190.982 359.479C190.561 359.244 190.01 359.127 189.33 359.127C188.768 359.127 188.281 359.227 187.871 359.426C187.461 359.613 187.145 359.871 186.922 360.199C186.711 360.516 186.605 360.867 186.605 361.254C186.605 361.547 186.664 361.811 186.781 362.045C186.91 362.268 187.115 362.473 187.396 362.66C187.678 362.848 188.041 363.023 188.486 363.188C188.943 363.34 189.506 363.48 190.174 363.609C191.545 363.891 192.77 364.26 193.848 364.717C194.926 365.162 195.781 365.771 196.414 366.545C197.047 367.307 197.363 368.309 197.363 369.551C197.363 370.395 197.176 371.168 196.801 371.871C196.426 372.574 195.887 373.189 195.184 373.717C194.48 374.232 193.637 374.637 192.652 374.93C191.68 375.211 190.584 375.352 189.365 375.352C187.596 375.352 186.096 375.035 184.865 374.402C183.646 373.77 182.721 372.967 182.088 371.994C181.467 371.01 181.156 370.002 181.156 368.971H185.955C185.979 369.662 186.154 370.219 186.482 370.641C186.822 371.062 187.25 371.367 187.766 371.555C188.293 371.742 188.861 371.836 189.471 371.836C190.127 371.836 190.672 371.748 191.105 371.572C191.539 371.385 191.867 371.139 192.09 370.834C192.324 370.518 192.441 370.154 192.441 369.744ZM205.59 348V375H200.527V348H205.59ZM204.869 364.822H203.48C203.492 363.498 203.668 362.279 204.008 361.166C204.348 360.041 204.834 359.068 205.467 358.248C206.1 357.416 206.855 356.771 207.734 356.314C208.625 355.857 209.609 355.629 210.688 355.629C211.625 355.629 212.475 355.764 213.236 356.033C214.01 356.291 214.672 356.713 215.223 357.299C215.785 357.873 216.219 358.629 216.523 359.566C216.828 360.504 216.98 361.641 216.98 362.977V375H211.883V362.941C211.883 362.098 211.76 361.436 211.514 360.955C211.279 360.463 210.934 360.117 210.477 359.918C210.031 359.707 209.48 359.602 208.824 359.602C208.098 359.602 207.477 359.736 206.961 360.006C206.457 360.275 206.053 360.65 205.748 361.131C205.443 361.6 205.221 362.15 205.08 362.783C204.939 363.416 204.869 364.096 204.869 364.822ZM226.174 355.98V375H221.094V355.98H226.174ZM220.777 351.023C220.777 350.285 221.035 349.676 221.551 349.195C222.066 348.715 222.758 348.475 223.625 348.475C224.48 348.475 225.166 348.715 225.682 349.195C226.209 349.676 226.473 350.285 226.473 351.023C226.473 351.762 226.209 352.371 225.682 352.852C225.166 353.332 224.48 353.572 223.625 353.572C222.758 353.572 222.066 353.332 221.551 352.852C221.035 352.371 220.777 351.762 220.777 351.023ZM235.42 347.982V375H230.357V347.982H235.42ZM247.408 355.98L239.146 365.402L234.717 369.885L232.871 366.229L236.387 361.764L241.326 355.98H247.408ZM242.152 375L236.527 366.211L240.025 363.152L247.988 375H242.152ZM248.779 365.684V365.314C248.779 363.92 248.979 362.637 249.377 361.465C249.775 360.281 250.355 359.256 251.117 358.389C251.879 357.521 252.816 356.848 253.93 356.367C255.043 355.875 256.32 355.629 257.762 355.629C259.203 355.629 260.486 355.875 261.611 356.367C262.736 356.848 263.68 357.521 264.441 358.389C265.215 359.256 265.801 360.281 266.199 361.465C266.598 362.637 266.797 363.92 266.797 365.314V365.684C266.797 367.066 266.598 368.35 266.199 369.533C265.801 370.705 265.215 371.73 264.441 372.609C263.68 373.477 262.742 374.15 261.629 374.631C260.516 375.111 259.238 375.352 257.797 375.352C256.355 375.352 255.072 375.111 253.947 374.631C252.834 374.15 251.891 373.477 251.117 372.609C250.355 371.73 249.775 370.705 249.377 369.533C248.979 368.35 248.779 367.066 248.779 365.684ZM253.842 365.314V365.684C253.842 366.48 253.912 367.225 254.053 367.916C254.193 368.607 254.416 369.217 254.721 369.744C255.037 370.26 255.447 370.664 255.951 370.957C256.455 371.25 257.07 371.396 257.797 371.396C258.5 371.396 259.104 371.25 259.607 370.957C260.111 370.664 260.516 370.26 260.82 369.744C261.125 369.217 261.348 368.607 261.488 367.916C261.641 367.225 261.717 366.48 261.717 365.684V365.314C261.717 364.541 261.641 363.814 261.488 363.135C261.348 362.443 261.119 361.834 260.803 361.307C260.498 360.768 260.094 360.346 259.59 360.041C259.086 359.736 258.477 359.584 257.762 359.584C257.047 359.584 256.438 359.736 255.934 360.041C255.441 360.346 255.037 360.768 254.721 361.307C254.416 361.834 254.193 362.443 254.053 363.135C253.912 363.814 253.842 364.541 253.842 365.314ZM279.225 355.98V359.566H268.15V355.98H279.225ZM270.893 351.287H275.955V369.27C275.955 369.82 276.025 370.242 276.166 370.535C276.318 370.828 276.541 371.033 276.834 371.15C277.127 371.256 277.496 371.309 277.941 371.309C278.258 371.309 278.539 371.297 278.785 371.273C279.043 371.238 279.26 371.203 279.436 371.168L279.453 374.895C279.02 375.035 278.551 375.146 278.047 375.229C277.543 375.311 276.986 375.352 276.377 375.352C275.264 375.352 274.291 375.17 273.459 374.807C272.639 374.432 272.006 373.834 271.561 373.014C271.115 372.193 270.893 371.115 270.893 369.779V351.287ZM280.842 365.684V365.314C280.842 363.92 281.041 362.637 281.439 361.465C281.838 360.281 282.418 359.256 283.18 358.389C283.941 357.521 284.879 356.848 285.992 356.367C287.105 355.875 288.383 355.629 289.824 355.629C291.266 355.629 292.549 355.875 293.674 356.367C294.799 356.848 295.742 357.521 296.504 358.389C297.277 359.256 297.863 360.281 298.262 361.465C298.66 362.637 298.859 363.92 298.859 365.314V365.684C298.859 367.066 298.66 368.35 298.262 369.533C297.863 370.705 297.277 371.73 296.504 372.609C295.742 373.477 294.805 374.15 293.691 374.631C292.578 375.111 291.301 375.352 289.859 375.352C288.418 375.352 287.135 375.111 286.01 374.631C284.896 374.15 283.953 373.477 283.18 372.609C282.418 371.73 281.838 370.705 281.439 369.533C281.041 368.35 280.842 367.066 280.842 365.684ZM285.904 365.314V365.684C285.904 366.48 285.975 367.225 286.115 367.916C286.256 368.607 286.479 369.217 286.783 369.744C287.1 370.26 287.51 370.664 288.014 370.957C288.518 371.25 289.133 371.396 289.859 371.396C290.562 371.396 291.166 371.25 291.67 370.957C292.174 370.664 292.578 370.26 292.883 369.744C293.188 369.217 293.41 368.607 293.551 367.916C293.703 367.225 293.779 366.48 293.779 365.684V365.314C293.779 364.541 293.703 363.814 293.551 363.135C293.41 362.443 293.182 361.834 292.865 361.307C292.561 360.768 292.156 360.346 291.652 360.041C291.148 359.736 290.539 359.584 289.824 359.584C289.109 359.584 288.5 359.736 287.996 360.041C287.504 360.346 287.1 360.768 286.783 361.307C286.479 361.834 286.256 362.443 286.115 363.135C285.975 363.814 285.904 364.541 285.904 365.314Z" fill="white" style="fill:white;fill-opacity:1;"/>
<path d="M456.587 435.77C455.263 437.071 453.716 437.721 451.947 437.721C449.685 437.721 447.875 436.948 446.515 435.401C445.156 433.842 444.476 431.745 444.476 429.108C444.476 427.432 444.84 425.897 445.566 424.503C446.304 423.096 447.33 422.007 448.642 421.233C449.955 420.448 451.431 420.055 453.072 420.055C454.759 420.055 456.259 420.477 457.572 421.321C458.884 422.165 459.904 423.378 460.63 424.96C461.357 426.542 461.726 428.352 461.738 430.391V432.272C461.738 436.537 460.677 439.889 458.556 442.326C456.435 444.764 453.429 446.064 449.539 446.229L448.291 446.246V442.01L449.416 441.992C453.833 441.793 456.224 439.719 456.587 435.77ZM453.195 433.836C454.015 433.836 454.718 433.625 455.304 433.203C455.902 432.782 456.353 432.272 456.658 431.674V429.582C456.658 427.86 456.329 426.524 455.673 425.575C455.017 424.626 454.138 424.151 453.037 424.151C452.017 424.151 451.179 424.62 450.523 425.557C449.867 426.483 449.539 427.649 449.539 429.055C449.539 430.45 449.855 431.598 450.488 432.5C451.132 433.391 452.035 433.836 453.195 433.836ZM482.602 435.418C482.602 438.957 481.87 441.664 480.405 443.539C478.94 445.414 476.796 446.352 473.972 446.352C471.183 446.352 469.05 445.432 467.573 443.592C466.097 441.752 465.341 439.115 465.306 435.682V430.971C465.306 427.397 466.044 424.684 467.521 422.833C469.009 420.981 471.147 420.055 473.936 420.055C476.725 420.055 478.858 420.975 480.335 422.815C481.811 424.643 482.567 427.274 482.602 430.707V435.418ZM477.522 430.25C477.522 428.129 477.229 426.588 476.643 425.628C476.069 424.655 475.167 424.169 473.936 424.169C472.741 424.169 471.856 424.631 471.282 425.557C470.72 426.471 470.421 427.907 470.386 429.864V436.086C470.386 438.172 470.667 439.725 471.229 440.744C471.804 441.752 472.718 442.256 473.972 442.256C475.214 442.256 476.11 441.77 476.661 440.797C477.212 439.824 477.499 438.336 477.522 436.332V430.25ZM498.387 446H493.307V426.419L487.243 428.299V424.169L497.842 420.372H498.387V446ZM523.4 427.21C523.4 428.452 523.089 429.553 522.468 430.514C521.847 431.475 520.992 432.243 519.902 432.817C521.144 433.414 522.128 434.241 522.855 435.295C523.581 436.338 523.945 437.569 523.945 438.987C523.945 441.26 523.171 443.059 521.625 444.383C520.078 445.695 517.974 446.352 515.314 446.352C512.654 446.352 510.545 445.689 508.986 444.365C507.428 443.041 506.648 441.248 506.648 438.987C506.648 437.569 507.012 436.332 507.738 435.278C508.465 434.223 509.443 433.403 510.674 432.817C509.584 432.243 508.728 431.475 508.107 430.514C507.498 429.553 507.193 428.452 507.193 427.21C507.193 425.03 507.92 423.296 509.373 422.007C510.826 420.706 512.801 420.055 515.297 420.055C517.781 420.055 519.75 420.7 521.203 421.989C522.667 423.266 523.4 425.006 523.4 427.21ZM518.847 438.617C518.847 437.504 518.525 436.614 517.88 435.946C517.236 435.278 516.369 434.944 515.279 434.944C514.201 434.944 513.34 435.278 512.695 435.946C512.051 436.602 511.728 437.492 511.728 438.617C511.728 439.707 512.045 440.586 512.678 441.254C513.31 441.922 514.189 442.256 515.314 442.256C516.416 442.256 517.277 441.934 517.898 441.289C518.531 440.645 518.847 439.754 518.847 438.617ZM518.32 427.456C518.32 426.46 518.056 425.663 517.529 425.065C517.002 424.456 516.257 424.151 515.297 424.151C514.347 424.151 513.609 424.444 513.082 425.03C512.554 425.616 512.291 426.424 512.291 427.456C512.291 428.475 512.554 429.295 513.082 429.916C513.609 430.538 514.353 430.848 515.314 430.848C516.275 430.848 517.013 430.538 517.529 429.916C518.056 429.295 518.32 428.475 518.32 427.456Z" fill="white" style="fill:white;fill-opacity:1;"/>
<path d="M75.687 436.438V440.41H57.248L57.0019 437.334L67.6716 420.407H71.6968L67.3376 427.702L62.0291 436.438H75.687ZM72.7866 420.407V446H67.7243V420.407H72.7866ZM95.8133 420.407V423.131L85.9171 446H80.5735L90.4697 424.362H77.726V420.407H95.8133ZM103.864 434.346L99.821 433.379L101.28 420.407H115.658V424.503H105.446L104.813 430.18C105.153 429.981 105.669 429.77 106.36 429.547C107.051 429.313 107.825 429.196 108.68 429.196C109.922 429.196 111.024 429.389 111.985 429.776C112.946 430.163 113.76 430.725 114.428 431.463C115.108 432.202 115.623 433.104 115.975 434.17C116.326 435.237 116.502 436.444 116.502 437.791C116.502 438.928 116.326 440.012 115.975 441.043C115.623 442.063 115.09 442.977 114.375 443.785C113.661 444.582 112.764 445.209 111.686 445.666C110.608 446.123 109.331 446.352 107.854 446.352C106.752 446.352 105.686 446.187 104.655 445.859C103.635 445.531 102.715 445.045 101.895 444.4C101.087 443.756 100.436 442.977 99.9441 442.063C99.4636 441.137 99.2117 440.082 99.1883 438.899H104.215C104.286 439.625 104.473 440.252 104.778 440.779C105.094 441.295 105.51 441.693 106.026 441.975C106.542 442.256 107.145 442.397 107.836 442.397C108.481 442.397 109.032 442.274 109.489 442.027C109.946 441.781 110.315 441.442 110.596 441.008C110.877 440.563 111.082 440.047 111.211 439.461C111.352 438.863 111.422 438.219 111.422 437.528C111.422 436.836 111.34 436.209 111.176 435.647C111.012 435.084 110.76 434.598 110.42 434.188C110.081 433.778 109.647 433.461 109.12 433.239C108.604 433.016 108.001 432.905 107.309 432.905C106.372 432.905 105.645 433.051 105.129 433.344C104.626 433.637 104.204 433.971 103.864 434.346ZM132.832 420.143H133.57V424.186H133.271C131.935 424.186 130.746 424.385 129.703 424.784C128.66 425.182 127.775 425.751 127.049 426.489C126.334 427.215 125.783 428.094 125.397 429.125C125.022 430.157 124.834 431.311 124.834 432.588V436.842C124.834 437.756 124.922 438.565 125.098 439.268C125.285 439.959 125.549 440.539 125.889 441.008C126.24 441.465 126.65 441.811 127.119 442.045C127.588 442.268 128.115 442.379 128.701 442.379C129.252 442.379 129.75 442.262 130.195 442.027C130.652 441.793 131.039 441.465 131.355 441.043C131.683 440.61 131.93 440.106 132.094 439.531C132.269 438.946 132.357 438.307 132.357 437.615C132.357 436.924 132.269 436.285 132.094 435.7C131.93 435.114 131.683 434.61 131.355 434.188C131.027 433.754 130.629 433.42 130.16 433.186C129.691 432.952 129.164 432.834 128.578 432.834C127.781 432.834 127.078 433.022 126.469 433.397C125.871 433.76 125.402 434.229 125.063 434.803C124.723 435.377 124.541 435.981 124.518 436.614L122.988 435.629C123.024 434.727 123.211 433.871 123.551 433.063C123.902 432.254 124.383 431.539 124.992 430.918C125.613 430.286 126.357 429.793 127.225 429.442C128.092 429.079 129.07 428.897 130.16 428.897C131.355 428.897 132.404 429.125 133.306 429.582C134.22 430.04 134.982 430.666 135.592 431.463C136.201 432.26 136.658 433.18 136.963 434.223C137.267 435.266 137.42 436.379 137.42 437.563C137.42 438.805 137.215 439.959 136.804 441.026C136.406 442.092 135.826 443.024 135.064 443.82C134.314 444.617 133.412 445.238 132.357 445.684C131.303 446.129 130.119 446.352 128.807 446.352C127.447 446.352 126.211 446.105 125.098 445.613C123.996 445.109 123.047 444.406 122.25 443.504C121.453 442.602 120.838 441.529 120.404 440.287C119.983 439.045 119.772 437.686 119.772 436.209V434.241C119.772 432.178 120.07 430.291 120.668 428.581C121.277 426.858 122.151 425.37 123.287 424.116C124.424 422.85 125.795 421.872 127.4 421.18C129.006 420.489 130.816 420.143 132.832 420.143Z" fill="white" style="fill:white;fill-opacity:1;"/>
<path d="M256.963 437.263C256.941 435.852 257.339 434.466 258.107 433.283C258.875 432.099 259.978 431.171 261.275 430.616C262.572 430.061 264.005 429.905 265.392 430.166C266.778 430.428 268.055 431.096 269.061 432.086C270.066 433.076 270.754 434.343 271.037 435.725C271.321 437.107 271.186 438.543 270.651 439.848C270.116 441.154 269.205 442.271 268.034 443.057C266.862 443.843 265.483 444.263 264.072 444.263C262.201 444.277 260.401 443.548 259.068 442.235C257.735 440.922 256.978 439.134 256.963 437.263ZM230.311 437.263C230.289 435.852 230.687 434.466 231.455 433.282C232.223 432.098 233.325 431.168 234.623 430.613C235.92 430.057 237.353 429.901 238.74 430.163C240.127 430.424 241.405 431.092 242.411 432.082C243.417 433.073 244.105 434.34 244.389 435.722C244.673 437.105 244.538 438.54 244.004 439.846C243.469 441.152 242.558 442.27 241.386 443.056C240.214 443.843 238.834 444.263 237.423 444.263C235.552 444.278 233.751 443.549 232.417 442.236C231.084 440.923 230.326 439.134 230.311 437.263ZM203.653 437.263C203.631 435.852 204.03 434.466 204.798 433.283C205.565 432.099 206.668 431.171 207.965 430.616C209.262 430.061 210.695 429.905 212.082 430.166C213.468 430.428 214.745 431.096 215.751 432.086C216.756 433.076 217.444 434.343 217.727 435.725C218.011 437.107 217.876 438.543 217.341 439.848C216.806 441.154 215.895 442.271 214.724 443.057C213.552 443.843 212.173 444.263 210.762 444.263C208.891 444.277 207.091 443.548 205.758 442.235C204.425 440.922 203.668 439.134 203.653 437.263ZM177.001 437.263C176.979 435.852 177.377 434.466 178.145 433.282C178.913 432.097 180.016 431.168 181.313 430.613C182.611 430.057 184.045 429.901 185.432 430.163C186.819 430.424 188.096 431.093 189.102 432.083C190.108 433.074 190.796 434.34 191.079 435.723C191.363 437.106 191.228 438.542 190.693 439.848C190.157 441.154 189.246 442.271 188.073 443.057C186.901 443.843 185.521 444.264 184.11 444.263C182.239 444.277 180.439 443.548 179.106 442.235C177.773 440.922 177.016 439.134 177.001 437.263Z" fill="white" style="fill:white;fill-opacity:1;"/>
<path d="M381.402 437.264C381.38 435.853 381.779 434.467 382.547 433.284C383.315 432.1 384.417 431.172 385.715 430.617C387.012 430.062 388.445 429.905 389.831 430.167C391.217 430.429 392.495 431.097 393.5 432.087C394.505 433.077 395.193 434.344 395.477 435.726C395.76 437.108 395.625 438.543 395.09 439.849C394.556 441.155 393.644 442.272 392.473 443.058C391.301 443.844 389.922 444.264 388.511 444.264C386.64 444.278 384.84 443.548 383.507 442.236C382.174 440.923 381.417 439.135 381.402 437.264ZM354.711 437.264C354.685 435.848 355.081 434.456 355.849 433.266C356.616 432.076 357.721 431.141 359.021 430.581C360.322 430.021 361.76 429.861 363.152 430.121C364.544 430.382 365.827 431.05 366.838 432.042C367.849 433.034 368.541 434.305 368.827 435.692C369.113 437.079 368.98 438.52 368.444 439.83C367.908 441.141 366.994 442.263 365.818 443.052C364.643 443.842 363.258 444.264 361.842 444.264C360.914 444.273 359.994 444.098 359.133 443.751C358.273 443.404 357.489 442.891 356.826 442.241C356.164 441.591 355.636 440.817 355.273 439.963C354.91 439.109 354.719 438.192 354.71 437.264H354.711ZM328.062 437.264C328.04 435.853 328.439 434.467 329.207 433.284C329.975 432.1 331.077 431.172 332.374 430.617C333.672 430.062 335.105 429.905 336.491 430.167C337.878 430.429 339.154 431.097 340.16 432.087C341.165 433.077 341.853 434.344 342.137 435.726C342.42 437.108 342.286 438.543 341.751 439.849C341.216 441.155 340.304 442.272 339.133 443.058C337.961 443.844 336.582 444.264 335.171 444.264C333.3 444.278 331.5 443.548 330.167 442.236C328.833 440.923 328.076 439.135 328.061 437.264H328.062ZM301.401 437.264C301.379 435.853 301.777 434.467 302.545 433.283C303.313 432.098 304.416 431.169 305.714 430.614C307.011 430.058 308.445 429.902 309.832 430.163C311.219 430.425 312.497 431.094 313.502 432.084C314.508 433.075 315.196 434.341 315.48 435.724C315.763 437.107 315.628 438.543 315.093 439.849C314.558 441.155 313.646 442.272 312.474 443.058C311.301 443.844 309.922 444.264 308.51 444.264C306.639 444.278 304.839 443.548 303.506 442.236C302.173 440.923 301.416 439.135 301.401 437.264Z" fill="white" style="fill:white;fill-opacity:1;"/>
<path opacity="0.6" d="M712.949 454.94C732.82 454.94 748.929 438.836 748.929 418.97C748.929 399.104 732.82 383 712.949 383C693.078 383 676.969 399.104 676.969 418.97C676.969 438.836 693.078 454.94 712.949 454.94Z" fill="white" style="fill:white;fill-opacity:1;"/>
<path d="M667.98 454.94C687.851 454.94 703.96 438.836 703.96 418.97C703.96 399.104 687.851 383 667.98 383C648.109 383 632 399.104 632 418.97C632 438.836 648.109 454.94 667.98 454.94Z" fill="white" style="fill:white;fill-opacity:1;"/>
<path d="M69.0779 91.2808H60.3593L60.3124 86.734H67.7888C69.07 86.734 70.1403 86.5543 70.9997 86.195C71.859 85.8356 72.5075 85.3122 72.945 84.6247C73.3981 83.9372 73.6246 83.1013 73.6246 82.1169C73.6246 81.0232 73.4137 80.1326 72.9918 79.4451C72.5856 78.7576 71.945 78.2576 71.07 77.9451C70.195 77.617 69.0857 77.453 67.7419 77.453H62.4452V106.491H56V72.3671H67.7419C69.6794 72.3671 71.4059 72.5546 72.9215 72.9296C74.4527 73.289 75.7496 73.8515 76.8121 74.6171C77.8745 75.3827 78.6792 76.3436 79.2261 77.4998C79.7886 78.6561 80.0698 80.031 80.0698 81.6248C80.0698 83.031 79.7417 84.3278 79.0855 85.5153C78.4448 86.6872 77.4527 87.6403 76.109 88.3746C74.7809 89.109 73.0934 89.5308 71.0466 89.6402L69.0779 91.2808ZM68.7966 106.491H58.4609L61.1561 101.429H68.7966C70.0778 101.429 71.1325 101.218 71.9606 100.796C72.8043 100.374 73.4293 99.7963 73.8356 99.0619C74.2574 98.3119 74.4684 97.4526 74.4684 96.4838C74.4684 95.4213 74.2809 94.4995 73.9059 93.7183C73.5465 92.937 72.9684 92.3355 72.1715 91.9136C71.3903 91.4917 70.3591 91.2808 69.0779 91.2808H62.3749L62.4217 86.734H70.9528L72.4293 88.4918C74.3981 88.5074 75.9996 88.898 77.2339 89.6637C78.4839 90.4293 79.4058 91.4136 79.9995 92.6167C80.5932 93.8198 80.8901 95.1167 80.8901 96.5073C80.8901 98.6947 80.4136 100.531 79.4604 102.015C78.523 103.499 77.148 104.616 75.3355 105.366C73.5387 106.116 71.3591 106.491 68.7966 106.491Z" fill="white" style="fill:white;fill-opacity:1;"/>
<path d="M101.093 100.468V81.1326H107.327V106.491H101.468L101.093 100.468ZM101.89 95.2182L103.812 95.1714C103.812 96.8744 103.624 98.4447 103.249 99.8822C102.874 101.32 102.288 102.57 101.491 103.632C100.71 104.679 99.7178 105.499 98.5147 106.093C97.3116 106.671 95.8898 106.96 94.2492 106.96C92.9992 106.96 91.8586 106.788 90.8274 106.445C89.7962 106.085 88.9056 105.531 88.1556 104.781C87.4212 104.015 86.8509 103.038 86.4447 101.851C86.0384 100.648 85.8353 99.2025 85.8353 97.5151V81.1326H92.0227V97.5619C92.0227 98.4057 92.1164 99.1088 92.3039 99.6713C92.5071 100.234 92.7805 100.695 93.1242 101.054C93.4836 101.398 93.8976 101.648 94.3664 101.804C94.8507 101.945 95.3664 102.015 95.9132 102.015C97.4132 102.015 98.5929 101.718 99.4522 101.124C100.327 100.515 100.952 99.7025 101.327 98.6869C101.702 97.6557 101.89 96.4994 101.89 95.2182Z" fill="white" style="fill:white;fill-opacity:1;"/>
<path d="M120.921 106.491H114.686V78.7889C114.686 76.8827 115.053 75.2811 115.788 73.9843C116.522 72.6718 117.569 71.6797 118.928 71.0078C120.288 70.3359 121.889 70 123.733 70C124.342 70 124.92 70.0391 125.467 70.1172C126.03 70.1953 126.584 70.3047 127.131 70.4453L127.014 75.1561C126.717 75.078 126.389 75.0233 126.03 74.9921C125.686 74.9608 125.303 74.9452 124.881 74.9452C124.038 74.9452 123.319 75.0936 122.725 75.3905C122.131 75.6874 121.678 76.1249 121.366 76.703C121.069 77.2655 120.921 77.9608 120.921 78.7889V106.491ZM126.053 81.1326V85.5856H110.866V81.1326H126.053Z" fill="white" style="fill:white;fill-opacity:1;"/>
<path d="M137.983 106.491H131.748V78.7889C131.748 76.8827 132.116 75.2811 132.85 73.9843C133.584 72.6718 134.631 71.6797 135.991 71.0078C137.35 70.3359 138.951 70 140.795 70C141.404 70 141.983 70.0391 142.529 70.1172C143.092 70.1953 143.647 70.3047 144.193 70.4453L144.076 75.1561C143.779 75.078 143.451 75.0233 143.092 74.9921C142.748 74.9608 142.365 74.9452 141.944 74.9452C141.1 74.9452 140.381 75.0936 139.787 75.3905C139.194 75.6874 138.74 76.1249 138.428 76.703C138.131 77.2655 137.983 77.9608 137.983 78.7889V106.491ZM143.115 81.1326V85.5856H127.928V81.1326H143.115Z" fill="white" style="fill:white;fill-opacity:1;"/>
<path d="M153.123 86.3122V106.491H146.936V81.1326H152.795L153.123 86.3122ZM160.834 80.9685L160.74 86.734C160.396 86.6715 160.006 86.6247 159.568 86.5934C159.146 86.5622 158.748 86.5465 158.373 86.5465C157.42 86.5465 156.584 86.6793 155.865 86.945C155.146 87.195 154.545 87.5621 154.06 88.0465C153.592 88.5309 153.232 89.1246 152.982 89.8277C152.732 90.5152 152.592 91.2964 152.56 92.1714L151.225 92.0074C151.225 90.398 151.389 88.9059 151.717 87.5309C152.045 86.1559 152.521 84.9528 153.146 83.9216C153.771 82.8904 154.553 82.0935 155.49 81.531C156.443 80.9529 157.537 80.6638 158.771 80.6638C159.115 80.6638 159.482 80.6951 159.873 80.7576C160.279 80.8045 160.599 80.8748 160.834 80.9685Z" fill="white" style="fill:white;fill-opacity:1;"/>
<path d="M196.622 95.2651H203.067C202.895 97.5463 202.263 99.5697 201.169 101.335C200.075 103.085 198.552 104.46 196.599 105.46C194.646 106.46 192.278 106.96 189.497 106.96C187.357 106.96 185.427 106.585 183.708 105.835C182.005 105.07 180.544 103.984 179.326 102.577C178.122 101.156 177.201 99.4525 176.56 97.4682C175.919 95.4682 175.599 93.2261 175.599 90.7418V88.1402C175.599 85.6559 175.927 83.4138 176.583 81.4138C177.24 79.4139 178.177 77.7108 179.396 76.3046C180.63 74.8827 182.107 73.789 183.825 73.0234C185.56 72.2578 187.497 71.875 189.638 71.875C192.419 71.875 194.771 72.3906 196.692 73.4218C198.614 74.4374 200.106 75.8358 201.169 77.617C202.231 79.3982 202.872 81.4451 203.091 83.7575H196.646C196.521 82.3201 196.208 81.1013 195.708 80.1014C195.224 79.1014 194.489 78.3436 193.505 77.828C192.536 77.2967 191.247 77.0311 189.638 77.0311C188.388 77.0311 187.286 77.2655 186.333 77.7342C185.396 78.203 184.615 78.9061 183.99 79.8435C183.365 80.7654 182.896 81.9216 182.583 83.3122C182.271 84.6872 182.115 86.2809 182.115 88.0934V90.7418C182.115 92.4761 182.255 94.0308 182.536 95.4057C182.818 96.7807 183.255 97.9447 183.849 98.8978C184.443 99.8509 185.208 100.577 186.146 101.077C187.083 101.577 188.2 101.827 189.497 101.827C191.075 101.827 192.357 101.577 193.341 101.077C194.341 100.577 195.099 99.8431 195.614 98.8744C196.146 97.9057 196.481 96.7026 196.622 95.2651Z" fill="white" style="fill:white;fill-opacity:1;"/>
<path d="M221.559 101.101V89.4058C221.559 88.5465 221.411 87.8043 221.114 87.1793C220.817 86.5543 220.364 86.07 219.754 85.7262C219.145 85.3825 218.372 85.2106 217.434 85.2106C216.606 85.2106 215.879 85.3512 215.254 85.6325C214.645 85.9137 214.176 86.3122 213.848 86.8278C213.52 87.3278 213.356 87.9059 213.356 88.5621H207.145C207.145 87.5153 207.395 86.5231 207.895 85.5856C208.395 84.6325 209.106 83.7888 210.028 83.0544C210.966 82.3044 212.083 81.7185 213.38 81.2966C214.692 80.8748 216.161 80.6638 217.786 80.6638C219.708 80.6638 221.418 80.992 222.918 81.6482C224.434 82.2888 225.621 83.2575 226.481 84.5544C227.356 85.8512 227.793 87.484 227.793 89.4527V100.515C227.793 101.781 227.871 102.867 228.028 103.773C228.2 104.663 228.45 105.437 228.778 106.093V106.491H222.473C222.176 105.851 221.95 105.038 221.793 104.054C221.637 103.054 221.559 102.07 221.559 101.101ZM222.426 91.0464L222.473 94.726H218.559C217.59 94.726 216.739 94.8276 216.004 95.0307C215.27 95.2182 214.669 95.4995 214.2 95.8745C213.731 96.2338 213.38 96.6713 213.145 97.1869C212.911 97.6869 212.794 98.2572 212.794 98.8978C212.794 99.5228 212.934 100.085 213.215 100.585C213.512 101.085 213.934 101.484 214.481 101.781C215.044 102.062 215.7 102.202 216.45 102.202C217.544 102.202 218.497 101.984 219.309 101.546C220.122 101.093 220.754 100.546 221.207 99.9056C221.661 99.265 221.903 98.6557 221.934 98.0775L223.715 100.749C223.497 101.39 223.168 102.07 222.731 102.788C222.293 103.507 221.731 104.179 221.043 104.804C220.356 105.429 219.528 105.945 218.559 106.351C217.59 106.757 216.465 106.96 215.184 106.96C213.544 106.96 212.075 106.632 210.778 105.976C209.481 105.32 208.458 104.421 207.708 103.281C206.958 102.14 206.583 100.843 206.583 99.39C206.583 98.0463 206.833 96.8588 207.333 95.8276C207.833 94.7964 208.575 93.9292 209.559 93.2261C210.544 92.5073 211.762 91.9683 213.215 91.6089C214.684 91.2339 216.364 91.0464 218.254 91.0464H222.426Z" fill="white" style="fill:white;fill-opacity:1;"/>
<path d="M239.559 86.3122V106.491H233.371V81.1326H239.231L239.559 86.3122ZM247.269 80.9685L247.176 86.734C246.832 86.6715 246.441 86.6247 246.004 86.5934C245.582 86.5622 245.184 86.5465 244.809 86.5465C243.855 86.5465 243.02 86.6793 242.301 86.945C241.582 87.195 240.981 87.5621 240.496 88.0465C240.027 88.5309 239.668 89.1246 239.418 89.8277C239.168 90.5152 239.027 91.2964 238.996 92.1714L237.66 92.0074C237.66 90.398 237.824 88.9059 238.152 87.5309C238.481 86.1559 238.957 84.9528 239.582 83.9216C240.207 82.8904 240.988 82.0935 241.926 81.531C242.879 80.9529 243.973 80.6638 245.207 80.6638C245.551 80.6638 245.918 80.6951 246.309 80.7576C246.715 80.8045 247.035 80.8748 247.269 80.9685Z" fill="white" style="fill:white;fill-opacity:1;"/>
<path d="M265.41 101.101V70.4922H271.644V106.491H266.019L265.41 101.101ZM249.121 94.1167V93.6245C249.121 91.687 249.34 89.9293 249.777 88.3512C250.23 86.7575 250.887 85.3903 251.746 84.2497C252.605 83.1091 253.644 82.2263 254.863 81.6013C256.097 80.9763 257.496 80.6638 259.058 80.6638C260.574 80.6638 261.894 80.9685 263.019 81.5779C264.16 82.1872 265.128 83.0544 265.925 84.1794C266.738 85.3044 267.386 86.6403 267.871 88.1871C268.355 89.7183 268.706 91.4058 268.925 93.2495V94.5854C268.706 96.3823 268.355 98.0307 267.871 99.5306C267.386 101.031 266.738 102.343 265.925 103.468C265.128 104.577 264.16 105.437 263.019 106.046C261.879 106.655 260.543 106.96 259.011 106.96C257.465 106.96 256.074 106.64 254.84 105.999C253.621 105.359 252.582 104.46 251.722 103.304C250.879 102.148 250.23 100.788 249.777 99.226C249.34 97.6635 249.121 95.9604 249.121 94.1167ZM255.332 93.6245V94.1167C255.332 95.2104 255.426 96.2338 255.613 97.1869C255.801 98.14 256.105 98.9838 256.527 99.7181C256.949 100.437 257.488 100.999 258.144 101.406C258.816 101.812 259.629 102.015 260.582 102.015C261.8 102.015 262.8 101.749 263.582 101.218C264.378 100.671 264.996 99.9291 265.433 98.9916C265.871 98.0385 266.152 96.9682 266.277 95.7807V92.1011C266.214 91.1636 266.05 90.2965 265.785 89.4996C265.535 88.7027 265.175 88.0153 264.707 87.4371C264.253 86.859 263.691 86.4059 263.019 86.0778C262.347 85.7497 261.55 85.5856 260.629 85.5856C259.675 85.5856 258.863 85.7965 258.191 86.2184C257.519 86.6247 256.972 87.195 256.551 87.9293C256.129 88.6637 255.816 89.5152 255.613 90.4839C255.426 91.4527 255.332 92.4995 255.332 93.6245Z" fill="white" style="fill:white;fill-opacity:1;"/>
<path fill-rule="evenodd" clip-rule="evenodd" d="M709 136C731.091 136 749 118.091 749 96C749 73.9086 731.091 56 709 56C686.909 56 669 73.9086 669 96C669 118.091 686.909 136 709 136ZM717.865 77.0654L717.962 87.3302C717.973 88.5781 717.982 89.8566 717.959 90.9423C717.948 91.485 717.929 91.9477 717.903 92.3144C717.879 92.6479 717.855 92.8063 717.85 92.8417L717.85 92.8419L717.849 92.8485C717.849 92.85 717.849 92.8497 717.849 92.8476C717.505 94.3393 716.439 95.3596 713.209 96.0396C712.654 96.1562 711.877 96.1793 708.997 96.1793C706.117 96.1793 705.34 96.1562 704.785 96.0396C701.555 95.3596 700.489 94.3393 700.145 92.8476C700.145 92.8491 700.145 92.8497 700.145 92.8493L700.144 92.8417L700.144 92.8417C700.139 92.8063 700.115 92.6479 700.091 92.3144C700.065 91.9477 700.046 91.485 700.035 90.9423C700.012 89.8566 700.021 88.5781 700.032 87.3302L700.129 77.0654L692.105 76.9996L692.009 87.2644C691.997 88.5053 691.988 89.8829 692.013 91.0885C692.035 92.1639 692.087 93.4989 692.302 94.4308C693.623 100.152 698.552 102.416 703.023 103.357C704.569 103.683 706.328 103.682 708.565 103.68H708.565H708.565H708.565L708.997 103.68L709.429 103.68H709.429H709.429H709.429C711.666 103.682 713.425 103.683 714.971 103.357C719.442 102.416 724.37 100.152 725.692 94.4308C725.907 93.4989 725.959 92.1639 725.981 91.0885C726.006 89.8829 725.997 88.5053 725.985 87.2644L725.889 76.9996L717.865 77.0654ZM725.997 115V107.723H691.997V115H725.997Z" fill="white" style="fill:white;fill-opacity:1;"/>
<defs>
<filter id="filter0_f_1119_6297" x="-1422.48" y="-942.125" width="2569.64" height="2687.08" filterUnits="userSpaceOnUse" color-interpolation-filters="sRGB">
<feFlood flood-opacity="0" result="BackgroundImageFix"/>
<feBlend mode="normal" in="SourceGraphic" in2="BackgroundImageFix" result="shape"/>
<feGaussianBlur stdDeviation="4" result="effect1_foregroundBlur_1119_6297"/>
</filter>
<filter id="filter1_f_1119_6297" x="-1916.1" y="-548.328" width="2780.2" height="2771.32" filterUnits="userSpaceOnUse" color-interpolation-filters="sRGB">
<feFlood flood-opacity="0" result="BackgroundImageFix"/>
<feBlend mode="normal" in="SourceGraphic" in2="BackgroundImageFix" result="shape"/>
<feGaussianBlur stdDeviation="4" result="effect1_foregroundBlur_1119_6297"/>
</filter>
<filter id="filter2_f_1119_6297" x="-1924.95" y="-1159.04" width="2941.68" height="3076.99" filterUnits="userSpaceOnUse" color-interpolation-filters="sRGB">
<feFlood flood-opacity="0" result="BackgroundImageFix"/>
<feBlend mode="normal" in="SourceGraphic" in2="BackgroundImageFix" result="shape"/>
<feGaussianBlur stdDeviation="4" result="effect1_foregroundBlur_1119_6297"/>
</filter>
</defs>
</svg>
