<svg width="805" height="512" viewBox="0 0 805 512" fill="none" xmlns="http://www.w3.org/2000/svg">
<path d="M770 0H35C15.67 0 0 15.67 0 35V476.03C0 495.36 15.67 511.03 35 511.03H770C789.33 511.03 805 495.36 805 476.03V35C805 15.67 789.33 0 770 0Z" fill="#EBADC5" style="fill:#EBADC5;fill:color(display-p3 0.9200 0.6800 0.7723);fill-opacity:1;"/>
<mask id="mask0_1119_6309" style="mask-type:alpha" maskUnits="userSpaceOnUse" x="0" y="0" width="805" height="512">
<path d="M770 0H35C15.67 0 0 15.67 0 35V476.03C0 495.36 15.67 511.03 35 511.03H770C789.33 511.03 805 495.36 805 476.03V35C805 15.67 789.33 0 770 0Z" fill="#FFBED7" style="fill:#FFBED7;fill:color(display-p3 1.0000 0.7451 0.8431);fill-opacity:1;"/>
</mask>
<g mask="url(#mask0_1119_6309)">
<path d="M637.049 119.563L1058.87 550.292C1071.77 563.578 1078.99 581.37 1078.99 599.892C1078.99 618.413 1071.77 636.206 1058.87 649.492C1052.55 655.988 1045 661.152 1036.66 664.678C1028.32 668.204 1019.35 670.021 1010.29 670.021C1001.23 670.021 992.267 668.204 983.923 664.678C975.58 661.152 968.028 655.988 961.715 649.492L588.482 268.379L215.255 649.479C208.945 655.979 201.394 661.147 193.05 664.676C184.706 668.205 175.739 670.023 166.679 670.023C157.62 670.023 148.652 668.205 140.308 664.676C131.964 661.147 124.413 655.979 118.103 649.479C105.198 636.194 97.9785 618.404 97.9785 599.883C97.9785 581.362 105.198 563.57 118.103 550.286L539.921 119.571C546.23 113.072 553.778 107.905 562.12 104.377C570.462 100.849 579.427 99.0312 588.485 99.0312C597.542 99.0312 606.507 100.849 614.849 104.377C623.191 107.905 630.74 113.072 637.048 119.571L637.049 119.563Z" fill="#FF7171" style="fill:#FF7171;fill:color(display-p3 1.0000 0.4431 0.4431);fill-opacity:1;"/>
<path d="M277.047 48.5625L698.865 479.291C711.771 492.577 718.99 510.369 718.99 528.891C718.99 547.412 711.771 565.206 698.865 578.491C692.552 584.987 685.001 590.151 676.657 593.677C668.313 597.203 659.347 599.021 650.289 599.021C641.231 599.021 632.264 597.203 623.921 593.677C615.577 590.151 608.025 584.987 601.712 578.491L228.479 197.374L-144.747 578.474C-151.057 584.974 -158.608 590.142 -166.952 593.671C-175.296 597.2 -184.263 599.019 -193.323 599.019C-202.382 599.019 -211.35 597.2 -219.694 593.671C-228.037 590.142 -235.588 584.974 -241.899 578.474C-254.805 565.189 -262.025 547.396 -262.025 528.874C-262.025 510.352 -254.805 492.558 -241.899 479.273L179.918 48.5605C186.227 42.0612 193.776 36.8946 202.118 33.3662C210.46 29.8378 219.425 28.0195 228.482 28.0195C237.54 28.0195 246.505 29.8378 254.847 33.3662C263.189 36.8946 270.738 42.0612 277.046 48.5605L277.047 48.5625Z" fill="#FF58F1" style="fill:#FF58F1;fill:color(display-p3 1.0000 0.3451 0.9451);fill-opacity:1;"/>
<path d="M346.098 317.48L443.25 218.281L540.396 317.48L443.244 416.681L346.098 317.48Z" fill="#FF486A" style="fill:#FF486A;fill:color(display-p3 1.0000 0.2824 0.4157);fill-opacity:1;"/>
</g>
<path d="M75.7227 370.887V375H62.0996V370.887H75.7227ZM63.8223 349.406V375H58.5488V349.406H63.8223ZM73.9473 359.83V363.838H62.0996V359.83H73.9473ZM75.7051 349.406V353.537H62.0996V349.406H75.7051ZM83.8262 355.98V375H78.7461V355.98H83.8262ZM78.4297 351.023C78.4297 350.285 78.6875 349.676 79.2031 349.195C79.7188 348.715 80.4102 348.475 81.2773 348.475C82.1328 348.475 82.8184 348.715 83.334 349.195C83.8613 349.676 84.125 350.285 84.125 351.023C84.125 351.762 83.8613 352.371 83.334 352.852C82.8184 353.332 82.1328 353.572 81.2773 353.572C80.4102 353.572 79.7188 353.332 79.2031 352.852C78.6875 352.371 78.4297 351.762 78.4297 351.023ZM92.9668 360.041V375H87.9043V355.98H92.6504L92.9668 360.041ZM92.2285 364.822H90.8574C90.8574 363.416 91.0391 362.15 91.4023 361.025C91.7656 359.889 92.2754 358.922 92.9316 358.125C93.5879 357.316 94.3672 356.701 95.2695 356.279C96.1836 355.846 97.2031 355.629 98.3281 355.629C99.2188 355.629 100.033 355.758 100.771 356.016C101.51 356.273 102.143 356.684 102.67 357.246C103.209 357.809 103.619 358.553 103.9 359.479C104.193 360.404 104.34 361.535 104.34 362.871V375H99.2422V362.854C99.2422 362.01 99.125 361.354 98.8906 360.885C98.6562 360.416 98.3105 360.088 97.8535 359.9C97.4082 359.701 96.8574 359.602 96.2012 359.602C95.5215 359.602 94.9297 359.736 94.4258 360.006C93.9336 360.275 93.5234 360.65 93.1953 361.131C92.8789 361.6 92.6387 362.15 92.4746 362.783C92.3105 363.416 92.2285 364.096 92.2285 364.822ZM107.381 365.684V365.314C107.381 363.92 107.58 362.637 107.979 361.465C108.377 360.281 108.957 359.256 109.719 358.389C110.48 357.521 111.418 356.848 112.531 356.367C113.645 355.875 114.922 355.629 116.363 355.629C117.805 355.629 119.088 355.875 120.213 356.367C121.338 356.848 122.281 357.521 123.043 358.389C123.816 359.256 124.402 360.281 124.801 361.465C125.199 362.637 125.398 363.92 125.398 365.314V365.684C125.398 367.066 125.199 368.35 124.801 369.533C124.402 370.705 123.816 371.73 123.043 372.609C122.281 373.477 121.344 374.15 120.23 374.631C119.117 375.111 117.84 375.352 116.398 375.352C114.957 375.352 113.674 375.111 112.549 374.631C111.436 374.15 110.492 373.477 109.719 372.609C108.957 371.73 108.377 370.705 107.979 369.533C107.58 368.35 107.381 367.066 107.381 365.684ZM112.443 365.314V365.684C112.443 366.48 112.514 367.225 112.654 367.916C112.795 368.607 113.018 369.217 113.322 369.744C113.639 370.26 114.049 370.664 114.553 370.957C115.057 371.25 115.672 371.396 116.398 371.396C117.102 371.396 117.705 371.25 118.209 370.957C118.713 370.664 119.117 370.26 119.422 369.744C119.727 369.217 119.949 368.607 120.09 367.916C120.242 367.225 120.318 366.48 120.318 365.684V365.314C120.318 364.541 120.242 363.814 120.09 363.135C119.949 362.443 119.721 361.834 119.404 361.307C119.1 360.768 118.695 360.346 118.191 360.041C117.688 359.736 117.078 359.584 116.363 359.584C115.648 359.584 115.039 359.736 114.535 360.041C114.043 360.346 113.639 360.768 113.322 361.307C113.018 361.834 112.795 362.443 112.654 363.135C112.514 363.814 112.443 364.541 112.443 365.314ZM158.621 349.406V375H153.348L143.064 357.844V375H137.791V349.406H143.064L153.365 366.58V349.406H158.621ZM173.158 370.711V362.238C173.158 361.629 173.059 361.107 172.859 360.674C172.66 360.229 172.35 359.883 171.928 359.637C171.518 359.391 170.984 359.268 170.328 359.268C169.766 359.268 169.279 359.367 168.869 359.566C168.459 359.754 168.143 360.029 167.92 360.393C167.697 360.744 167.586 361.16 167.586 361.641H162.523C162.523 360.832 162.711 360.064 163.086 359.338C163.461 358.611 164.006 357.973 164.721 357.422C165.436 356.859 166.285 356.42 167.27 356.104C168.266 355.787 169.379 355.629 170.609 355.629C172.086 355.629 173.398 355.875 174.547 356.367C175.695 356.859 176.598 357.598 177.254 358.582C177.922 359.566 178.256 360.797 178.256 362.273V370.412C178.256 371.455 178.32 372.311 178.449 372.979C178.578 373.635 178.766 374.209 179.012 374.701V375H173.896C173.65 374.484 173.463 373.84 173.334 373.066C173.217 372.281 173.158 371.496 173.158 370.711ZM173.826 363.416L173.861 366.281H171.031C170.363 366.281 169.783 366.357 169.291 366.51C168.799 366.662 168.395 366.879 168.078 367.16C167.762 367.43 167.527 367.746 167.375 368.109C167.234 368.473 167.164 368.871 167.164 369.305C167.164 369.738 167.264 370.131 167.463 370.482C167.662 370.822 167.949 371.092 168.324 371.291C168.699 371.479 169.139 371.572 169.643 371.572C170.404 371.572 171.066 371.42 171.629 371.115C172.191 370.811 172.625 370.436 172.93 369.99C173.246 369.545 173.41 369.123 173.422 368.725L174.758 370.869C174.57 371.35 174.312 371.848 173.984 372.363C173.668 372.879 173.264 373.365 172.771 373.822C172.279 374.268 171.688 374.637 170.996 374.93C170.305 375.211 169.484 375.352 168.535 375.352C167.328 375.352 166.232 375.111 165.248 374.631C164.275 374.139 163.502 373.465 162.928 372.609C162.365 371.742 162.084 370.758 162.084 369.656C162.084 368.66 162.271 367.775 162.646 367.002C163.021 366.229 163.572 365.578 164.299 365.051C165.037 364.512 165.957 364.107 167.059 363.838C168.16 363.557 169.438 363.416 170.891 363.416H173.826ZM192.441 369.744C192.441 369.381 192.336 369.053 192.125 368.76C191.914 368.467 191.521 368.197 190.947 367.951C190.385 367.693 189.57 367.459 188.504 367.248C187.543 367.037 186.646 366.773 185.814 366.457C184.994 366.129 184.279 365.736 183.67 365.279C183.072 364.822 182.604 364.283 182.264 363.662C181.924 363.029 181.754 362.309 181.754 361.5C181.754 360.703 181.924 359.953 182.264 359.25C182.615 358.547 183.113 357.926 183.758 357.387C184.414 356.836 185.211 356.408 186.148 356.104C187.098 355.787 188.164 355.629 189.348 355.629C191 355.629 192.418 355.893 193.602 356.42C194.797 356.947 195.711 357.674 196.344 358.6C196.988 359.514 197.311 360.557 197.311 361.729H192.248C192.248 361.236 192.143 360.797 191.932 360.41C191.732 360.012 191.416 359.701 190.982 359.479C190.561 359.244 190.01 359.127 189.33 359.127C188.768 359.127 188.281 359.227 187.871 359.426C187.461 359.613 187.145 359.871 186.922 360.199C186.711 360.516 186.605 360.867 186.605 361.254C186.605 361.547 186.664 361.811 186.781 362.045C186.91 362.268 187.115 362.473 187.396 362.66C187.678 362.848 188.041 363.023 188.486 363.188C188.943 363.34 189.506 363.48 190.174 363.609C191.545 363.891 192.77 364.26 193.848 364.717C194.926 365.162 195.781 365.771 196.414 366.545C197.047 367.307 197.363 368.309 197.363 369.551C197.363 370.395 197.176 371.168 196.801 371.871C196.426 372.574 195.887 373.189 195.184 373.717C194.48 374.232 193.637 374.637 192.652 374.93C191.68 375.211 190.584 375.352 189.365 375.352C187.596 375.352 186.096 375.035 184.865 374.402C183.646 373.77 182.721 372.967 182.088 371.994C181.467 371.01 181.156 370.002 181.156 368.971H185.955C185.979 369.662 186.154 370.219 186.482 370.641C186.822 371.062 187.25 371.367 187.766 371.555C188.293 371.742 188.861 371.836 189.471 371.836C190.127 371.836 190.672 371.748 191.105 371.572C191.539 371.385 191.867 371.139 192.09 370.834C192.324 370.518 192.441 370.154 192.441 369.744ZM205.59 348V375H200.527V348H205.59ZM204.869 364.822H203.48C203.492 363.498 203.668 362.279 204.008 361.166C204.348 360.041 204.834 359.068 205.467 358.248C206.1 357.416 206.855 356.771 207.734 356.314C208.625 355.857 209.609 355.629 210.688 355.629C211.625 355.629 212.475 355.764 213.236 356.033C214.01 356.291 214.672 356.713 215.223 357.299C215.785 357.873 216.219 358.629 216.523 359.566C216.828 360.504 216.98 361.641 216.98 362.977V375H211.883V362.941C211.883 362.098 211.76 361.436 211.514 360.955C211.279 360.463 210.934 360.117 210.477 359.918C210.031 359.707 209.48 359.602 208.824 359.602C208.098 359.602 207.477 359.736 206.961 360.006C206.457 360.275 206.053 360.65 205.748 361.131C205.443 361.6 205.221 362.15 205.08 362.783C204.939 363.416 204.869 364.096 204.869 364.822ZM226.174 355.98V375H221.094V355.98H226.174ZM220.777 351.023C220.777 350.285 221.035 349.676 221.551 349.195C222.066 348.715 222.758 348.475 223.625 348.475C224.48 348.475 225.166 348.715 225.682 349.195C226.209 349.676 226.473 350.285 226.473 351.023C226.473 351.762 226.209 352.371 225.682 352.852C225.166 353.332 224.48 353.572 223.625 353.572C222.758 353.572 222.066 353.332 221.551 352.852C221.035 352.371 220.777 351.762 220.777 351.023ZM235.42 347.982V375H230.357V347.982H235.42ZM247.408 355.98L239.146 365.402L234.717 369.885L232.871 366.229L236.387 361.764L241.326 355.98H247.408ZM242.152 375L236.527 366.211L240.025 363.152L247.988 375H242.152ZM248.779 365.684V365.314C248.779 363.92 248.979 362.637 249.377 361.465C249.775 360.281 250.355 359.256 251.117 358.389C251.879 357.521 252.816 356.848 253.93 356.367C255.043 355.875 256.32 355.629 257.762 355.629C259.203 355.629 260.486 355.875 261.611 356.367C262.736 356.848 263.68 357.521 264.441 358.389C265.215 359.256 265.801 360.281 266.199 361.465C266.598 362.637 266.797 363.92 266.797 365.314V365.684C266.797 367.066 266.598 368.35 266.199 369.533C265.801 370.705 265.215 371.73 264.441 372.609C263.68 373.477 262.742 374.15 261.629 374.631C260.516 375.111 259.238 375.352 257.797 375.352C256.355 375.352 255.072 375.111 253.947 374.631C252.834 374.15 251.891 373.477 251.117 372.609C250.355 371.73 249.775 370.705 249.377 369.533C248.979 368.35 248.779 367.066 248.779 365.684ZM253.842 365.314V365.684C253.842 366.48 253.912 367.225 254.053 367.916C254.193 368.607 254.416 369.217 254.721 369.744C255.037 370.26 255.447 370.664 255.951 370.957C256.455 371.25 257.07 371.396 257.797 371.396C258.5 371.396 259.104 371.25 259.607 370.957C260.111 370.664 260.516 370.26 260.82 369.744C261.125 369.217 261.348 368.607 261.488 367.916C261.641 367.225 261.717 366.48 261.717 365.684V365.314C261.717 364.541 261.641 363.814 261.488 363.135C261.348 362.443 261.119 361.834 260.803 361.307C260.498 360.768 260.094 360.346 259.59 360.041C259.086 359.736 258.477 359.584 257.762 359.584C257.047 359.584 256.438 359.736 255.934 360.041C255.441 360.346 255.037 360.768 254.721 361.307C254.416 361.834 254.193 362.443 254.053 363.135C253.912 363.814 253.842 364.541 253.842 365.314ZM279.225 355.98V359.566H268.15V355.98H279.225ZM270.893 351.287H275.955V369.27C275.955 369.82 276.025 370.242 276.166 370.535C276.318 370.828 276.541 371.033 276.834 371.15C277.127 371.256 277.496 371.309 277.941 371.309C278.258 371.309 278.539 371.297 278.785 371.273C279.043 371.238 279.26 371.203 279.436 371.168L279.453 374.895C279.02 375.035 278.551 375.146 278.047 375.229C277.543 375.311 276.986 375.352 276.377 375.352C275.264 375.352 274.291 375.17 273.459 374.807C272.639 374.432 272.006 373.834 271.561 373.014C271.115 372.193 270.893 371.115 270.893 369.779V351.287ZM280.842 365.684V365.314C280.842 363.92 281.041 362.637 281.439 361.465C281.838 360.281 282.418 359.256 283.18 358.389C283.941 357.521 284.879 356.848 285.992 356.367C287.105 355.875 288.383 355.629 289.824 355.629C291.266 355.629 292.549 355.875 293.674 356.367C294.799 356.848 295.742 357.521 296.504 358.389C297.277 359.256 297.863 360.281 298.262 361.465C298.66 362.637 298.859 363.92 298.859 365.314V365.684C298.859 367.066 298.66 368.35 298.262 369.533C297.863 370.705 297.277 371.73 296.504 372.609C295.742 373.477 294.805 374.15 293.691 374.631C292.578 375.111 291.301 375.352 289.859 375.352C288.418 375.352 287.135 375.111 286.01 374.631C284.896 374.15 283.953 373.477 283.18 372.609C282.418 371.73 281.838 370.705 281.439 369.533C281.041 368.35 280.842 367.066 280.842 365.684ZM285.904 365.314V365.684C285.904 366.48 285.975 367.225 286.115 367.916C286.256 368.607 286.479 369.217 286.783 369.744C287.1 370.26 287.51 370.664 288.014 370.957C288.518 371.25 289.133 371.396 289.859 371.396C290.562 371.396 291.166 371.25 291.67 370.957C292.174 370.664 292.578 370.26 292.883 369.744C293.188 369.217 293.41 368.607 293.551 367.916C293.703 367.225 293.779 366.48 293.779 365.684V365.314C293.779 364.541 293.703 363.814 293.551 363.135C293.41 362.443 293.182 361.834 292.865 361.307C292.561 360.768 292.156 360.346 291.652 360.041C291.148 359.736 290.539 359.584 289.824 359.584C289.109 359.584 288.5 359.736 287.996 360.041C287.504 360.346 287.1 360.768 286.783 361.307C286.479 361.834 286.256 362.443 286.115 363.135C285.975 363.814 285.904 364.541 285.904 365.314Z" fill="white" style="fill:white;fill-opacity:1;"/>
<path d="M456.587 435.77C455.263 437.071 453.716 437.721 451.947 437.721C449.685 437.721 447.875 436.948 446.515 435.401C445.156 433.842 444.476 431.745 444.476 429.108C444.476 427.432 444.84 425.897 445.566 424.503C446.304 423.096 447.33 422.007 448.642 421.233C449.955 420.448 451.431 420.055 453.072 420.055C454.759 420.055 456.259 420.477 457.572 421.321C458.884 422.165 459.904 423.378 460.63 424.96C461.357 426.542 461.726 428.352 461.738 430.391V432.272C461.738 436.537 460.677 439.889 458.556 442.326C456.435 444.764 453.429 446.064 449.539 446.229L448.291 446.246V442.01L449.416 441.992C453.833 441.793 456.224 439.719 456.587 435.77ZM453.195 433.836C454.015 433.836 454.718 433.625 455.304 433.203C455.902 432.782 456.353 432.272 456.658 431.674V429.582C456.658 427.86 456.329 426.524 455.673 425.575C455.017 424.626 454.138 424.151 453.037 424.151C452.017 424.151 451.179 424.62 450.523 425.557C449.867 426.483 449.539 427.649 449.539 429.055C449.539 430.45 449.855 431.598 450.488 432.5C451.132 433.391 452.035 433.836 453.195 433.836ZM482.602 435.418C482.602 438.957 481.87 441.664 480.405 443.539C478.94 445.414 476.796 446.352 473.972 446.352C471.183 446.352 469.05 445.432 467.573 443.592C466.097 441.752 465.341 439.115 465.306 435.682V430.971C465.306 427.397 466.044 424.684 467.521 422.833C469.009 420.981 471.147 420.055 473.936 420.055C476.725 420.055 478.858 420.975 480.335 422.815C481.811 424.643 482.567 427.274 482.602 430.707V435.418ZM477.522 430.25C477.522 428.129 477.229 426.588 476.643 425.628C476.069 424.655 475.167 424.169 473.936 424.169C472.741 424.169 471.856 424.631 471.282 425.557C470.72 426.471 470.421 427.907 470.386 429.864V436.086C470.386 438.172 470.667 439.725 471.229 440.744C471.804 441.752 472.718 442.256 473.972 442.256C475.214 442.256 476.11 441.77 476.661 440.797C477.212 439.824 477.499 438.336 477.522 436.332V430.25ZM498.387 446H493.307V426.419L487.243 428.299V424.169L497.842 420.372H498.387V446ZM523.4 427.21C523.4 428.452 523.089 429.553 522.468 430.514C521.847 431.475 520.992 432.243 519.902 432.817C521.144 433.414 522.128 434.241 522.855 435.295C523.581 436.338 523.945 437.569 523.945 438.987C523.945 441.26 523.171 443.059 521.625 444.383C520.078 445.695 517.974 446.352 515.314 446.352C512.654 446.352 510.545 445.689 508.986 444.365C507.428 443.041 506.648 441.248 506.648 438.987C506.648 437.569 507.012 436.332 507.738 435.278C508.465 434.223 509.443 433.403 510.674 432.817C509.584 432.243 508.728 431.475 508.107 430.514C507.498 429.553 507.193 428.452 507.193 427.21C507.193 425.03 507.92 423.296 509.373 422.007C510.826 420.706 512.801 420.055 515.297 420.055C517.781 420.055 519.75 420.7 521.203 421.989C522.667 423.266 523.4 425.006 523.4 427.21ZM518.847 438.617C518.847 437.504 518.525 436.614 517.88 435.946C517.236 435.278 516.369 434.944 515.279 434.944C514.201 434.944 513.34 435.278 512.695 435.946C512.051 436.602 511.728 437.492 511.728 438.617C511.728 439.707 512.045 440.586 512.678 441.254C513.31 441.922 514.189 442.256 515.314 442.256C516.416 442.256 517.277 441.934 517.898 441.289C518.531 440.645 518.847 439.754 518.847 438.617ZM518.32 427.456C518.32 426.46 518.056 425.663 517.529 425.065C517.002 424.456 516.257 424.151 515.297 424.151C514.347 424.151 513.609 424.444 513.082 425.03C512.554 425.616 512.291 426.424 512.291 427.456C512.291 428.475 512.554 429.295 513.082 429.916C513.609 430.538 514.353 430.848 515.314 430.848C516.275 430.848 517.013 430.538 517.529 429.916C518.056 429.295 518.32 428.475 518.32 427.456Z" fill="white" style="fill:white;fill-opacity:1;"/>
<path d="M75.687 436.438V440.41H57.248L57.0019 437.334L67.6716 420.407H71.6968L67.3376 427.702L62.0291 436.438H75.687ZM72.7866 420.407V446H67.7243V420.407H72.7866ZM95.8133 420.407V423.131L85.9171 446H80.5735L90.4697 424.362H77.726V420.407H95.8133ZM103.864 434.346L99.821 433.379L101.28 420.407H115.658V424.503H105.446L104.813 430.18C105.153 429.981 105.669 429.77 106.36 429.547C107.051 429.313 107.825 429.196 108.68 429.196C109.922 429.196 111.024 429.389 111.985 429.776C112.946 430.163 113.76 430.725 114.428 431.463C115.108 432.202 115.623 433.104 115.975 434.17C116.326 435.237 116.502 436.444 116.502 437.791C116.502 438.928 116.326 440.012 115.975 441.043C115.623 442.063 115.09 442.977 114.375 443.785C113.661 444.582 112.764 445.209 111.686 445.666C110.608 446.123 109.331 446.352 107.854 446.352C106.752 446.352 105.686 446.187 104.655 445.859C103.635 445.531 102.715 445.045 101.895 444.4C101.087 443.756 100.436 442.977 99.9441 442.063C99.4636 441.137 99.2117 440.082 99.1883 438.899H104.215C104.286 439.625 104.473 440.252 104.778 440.779C105.094 441.295 105.51 441.693 106.026 441.975C106.542 442.256 107.145 442.397 107.836 442.397C108.481 442.397 109.032 442.274 109.489 442.027C109.946 441.781 110.315 441.442 110.596 441.008C110.877 440.563 111.082 440.047 111.211 439.461C111.352 438.863 111.422 438.219 111.422 437.528C111.422 436.836 111.34 436.209 111.176 435.647C111.012 435.084 110.76 434.598 110.42 434.188C110.081 433.778 109.647 433.461 109.12 433.239C108.604 433.016 108.001 432.905 107.309 432.905C106.372 432.905 105.645 433.051 105.129 433.344C104.626 433.637 104.204 433.971 103.864 434.346ZM132.832 420.143H133.57V424.186H133.271C131.935 424.186 130.746 424.385 129.703 424.784C128.66 425.182 127.775 425.751 127.049 426.489C126.334 427.215 125.783 428.094 125.397 429.125C125.022 430.157 124.834 431.311 124.834 432.588V436.842C124.834 437.756 124.922 438.565 125.098 439.268C125.285 439.959 125.549 440.539 125.889 441.008C126.24 441.465 126.65 441.811 127.119 442.045C127.588 442.268 128.115 442.379 128.701 442.379C129.252 442.379 129.75 442.262 130.195 442.027C130.652 441.793 131.039 441.465 131.355 441.043C131.683 440.61 131.93 440.106 132.094 439.531C132.269 438.946 132.357 438.307 132.357 437.615C132.357 436.924 132.269 436.285 132.094 435.7C131.93 435.114 131.683 434.61 131.355 434.188C131.027 433.754 130.629 433.42 130.16 433.186C129.691 432.952 129.164 432.834 128.578 432.834C127.781 432.834 127.078 433.022 126.469 433.397C125.871 433.76 125.402 434.229 125.063 434.803C124.723 435.377 124.541 435.981 124.518 436.614L122.988 435.629C123.024 434.727 123.211 433.871 123.551 433.063C123.902 432.254 124.383 431.539 124.992 430.918C125.613 430.286 126.357 429.793 127.225 429.442C128.092 429.079 129.07 428.897 130.16 428.897C131.355 428.897 132.404 429.125 133.306 429.582C134.22 430.04 134.982 430.666 135.592 431.463C136.201 432.26 136.658 433.18 136.963 434.223C137.267 435.266 137.42 436.379 137.42 437.563C137.42 438.805 137.215 439.959 136.804 441.026C136.406 442.092 135.826 443.024 135.064 443.82C134.314 444.617 133.412 445.238 132.357 445.684C131.303 446.129 130.119 446.352 128.807 446.352C127.447 446.352 126.211 446.105 125.098 445.613C123.996 445.109 123.047 444.406 122.25 443.504C121.453 442.602 120.838 441.529 120.404 440.287C119.983 439.045 119.772 437.686 119.772 436.209V434.241C119.772 432.178 120.07 430.291 120.668 428.581C121.277 426.858 122.151 425.37 123.287 424.116C124.424 422.85 125.795 421.872 127.4 421.18C129.006 420.489 130.816 420.143 132.832 420.143Z" fill="white" style="fill:white;fill-opacity:1;"/>
<path d="M256.963 437.263C256.941 435.852 257.339 434.466 258.107 433.283C258.875 432.099 259.978 431.171 261.275 430.616C262.572 430.061 264.005 429.905 265.392 430.166C266.778 430.428 268.055 431.096 269.061 432.086C270.066 433.076 270.754 434.343 271.037 435.725C271.321 437.107 271.186 438.543 270.651 439.848C270.116 441.154 269.205 442.271 268.034 443.057C266.862 443.843 265.483 444.263 264.072 444.263C262.201 444.277 260.401 443.548 259.068 442.235C257.735 440.922 256.978 439.134 256.963 437.263ZM230.311 437.263C230.289 435.852 230.687 434.466 231.455 433.282C232.223 432.098 233.325 431.168 234.623 430.613C235.92 430.057 237.353 429.901 238.74 430.163C240.127 430.424 241.405 431.092 242.411 432.082C243.417 433.073 244.105 434.34 244.389 435.722C244.673 437.105 244.538 438.54 244.004 439.846C243.469 441.152 242.558 442.27 241.386 443.056C240.214 443.843 238.834 444.263 237.423 444.263C235.552 444.278 233.751 443.549 232.417 442.236C231.084 440.923 230.326 439.134 230.311 437.263ZM203.653 437.263C203.631 435.852 204.03 434.466 204.798 433.283C205.565 432.099 206.668 431.171 207.965 430.616C209.262 430.061 210.695 429.905 212.082 430.166C213.468 430.428 214.745 431.096 215.751 432.086C216.756 433.076 217.444 434.343 217.727 435.725C218.011 437.107 217.876 438.543 217.341 439.848C216.806 441.154 215.895 442.271 214.724 443.057C213.552 443.843 212.173 444.263 210.762 444.263C208.891 444.277 207.091 443.548 205.758 442.235C204.425 440.922 203.668 439.134 203.653 437.263ZM177.001 437.263C176.979 435.852 177.377 434.466 178.145 433.282C178.913 432.097 180.016 431.168 181.313 430.613C182.611 430.057 184.045 429.901 185.432 430.163C186.819 430.424 188.096 431.093 189.102 432.083C190.108 433.074 190.796 434.34 191.079 435.723C191.363 437.106 191.228 438.542 190.693 439.848C190.157 441.154 189.246 442.271 188.073 443.057C186.901 443.843 185.521 444.264 184.11 444.263C182.239 444.277 180.439 443.548 179.106 442.235C177.773 440.922 177.016 439.134 177.001 437.263Z" fill="white" style="fill:white;fill-opacity:1;"/>
<path d="M381.402 437.264C381.38 435.853 381.779 434.467 382.547 433.284C383.315 432.1 384.417 431.172 385.715 430.617C387.012 430.062 388.445 429.905 389.831 430.167C391.217 430.429 392.495 431.097 393.5 432.087C394.505 433.077 395.193 434.344 395.477 435.726C395.76 437.108 395.625 438.543 395.09 439.849C394.556 441.155 393.644 442.272 392.473 443.058C391.301 443.844 389.922 444.264 388.511 444.264C386.64 444.278 384.84 443.548 383.507 442.236C382.174 440.923 381.417 439.135 381.402 437.264ZM354.711 437.264C354.685 435.848 355.081 434.456 355.849 433.266C356.616 432.076 357.721 431.141 359.021 430.581C360.322 430.021 361.76 429.861 363.152 430.121C364.544 430.382 365.827 431.05 366.838 432.042C367.849 433.034 368.541 434.305 368.827 435.692C369.113 437.079 368.98 438.52 368.444 439.83C367.908 441.141 366.994 442.263 365.818 443.052C364.643 443.842 363.258 444.264 361.842 444.264C360.914 444.273 359.994 444.098 359.133 443.751C358.273 443.404 357.489 442.891 356.826 442.241C356.164 441.591 355.636 440.817 355.273 439.963C354.91 439.109 354.719 438.192 354.71 437.264H354.711ZM328.062 437.264C328.04 435.853 328.439 434.467 329.207 433.284C329.975 432.1 331.077 431.172 332.374 430.617C333.672 430.062 335.105 429.905 336.491 430.167C337.878 430.429 339.154 431.097 340.16 432.087C341.165 433.077 341.853 434.344 342.137 435.726C342.42 437.108 342.286 438.543 341.751 439.849C341.216 441.155 340.304 442.272 339.133 443.058C337.961 443.844 336.582 444.264 335.171 444.264C333.3 444.278 331.5 443.548 330.167 442.236C328.833 440.923 328.076 439.135 328.061 437.264H328.062ZM301.401 437.264C301.379 435.853 301.777 434.467 302.545 433.283C303.313 432.098 304.416 431.169 305.714 430.614C307.011 430.058 308.445 429.902 309.832 430.163C311.219 430.425 312.497 431.094 313.502 432.084C314.508 433.075 315.196 434.341 315.48 435.724C315.763 437.107 315.628 438.543 315.093 439.849C314.558 441.155 313.646 442.272 312.474 443.058C311.301 443.844 309.922 444.264 308.51 444.264C306.639 444.278 304.839 443.548 303.506 442.236C302.173 440.923 301.416 439.135 301.401 437.264Z" fill="white" style="fill:white;fill-opacity:1;"/>
<path opacity="0.6" d="M712.949 454.94C732.82 454.94 748.929 438.836 748.929 418.97C748.929 399.104 732.82 383 712.949 383C693.078 383 676.969 399.104 676.969 418.97C676.969 438.836 693.078 454.94 712.949 454.94Z" fill="white" style="fill:white;fill-opacity:1;"/>
<path d="M667.98 454.94C687.851 454.94 703.96 438.836 703.96 418.97C703.96 399.104 687.851 383 667.98 383C648.109 383 632 399.104 632 418.97C632 438.836 648.109 454.94 667.98 454.94Z" fill="white" style="fill:white;fill-opacity:1;"/>
<path d="M69.0779 91.2808H60.3593L60.3124 86.734H67.7888C69.07 86.734 70.1403 86.5543 70.9997 86.195C71.859 85.8356 72.5075 85.3122 72.945 84.6247C73.3981 83.9372 73.6246 83.1013 73.6246 82.1169C73.6246 81.0232 73.4137 80.1326 72.9918 79.4451C72.5856 78.7576 71.945 78.2576 71.07 77.9451C70.195 77.617 69.0857 77.453 67.7419 77.453H62.4452V106.491H56V72.3671H67.7419C69.6794 72.3671 71.4059 72.5546 72.9215 72.9296C74.4527 73.289 75.7496 73.8515 76.8121 74.6171C77.8745 75.3827 78.6792 76.3436 79.2261 77.4998C79.7886 78.6561 80.0698 80.031 80.0698 81.6248C80.0698 83.031 79.7417 84.3278 79.0855 85.5153C78.4448 86.6872 77.4527 87.6403 76.109 88.3746C74.7809 89.109 73.0934 89.5308 71.0466 89.6402L69.0779 91.2808ZM68.7966 106.491H58.4609L61.1561 101.429H68.7966C70.0778 101.429 71.1325 101.218 71.9606 100.796C72.8043 100.374 73.4293 99.7963 73.8356 99.0619C74.2574 98.3119 74.4684 97.4526 74.4684 96.4838C74.4684 95.4213 74.2809 94.4995 73.9059 93.7183C73.5465 92.937 72.9684 92.3355 72.1715 91.9136C71.3903 91.4917 70.3591 91.2808 69.0779 91.2808H62.3749L62.4217 86.734H70.9528L72.4293 88.4918C74.3981 88.5074 75.9996 88.898 77.2339 89.6637C78.4839 90.4293 79.4058 91.4136 79.9995 92.6167C80.5932 93.8198 80.8901 95.1167 80.8901 96.5073C80.8901 98.6947 80.4136 100.531 79.4604 102.015C78.523 103.499 77.148 104.616 75.3355 105.366C73.5387 106.116 71.3591 106.491 68.7966 106.491Z" fill="white" style="fill:white;fill-opacity:1;"/>
<path d="M101.093 100.468V81.1326H107.327V106.491H101.468L101.093 100.468ZM101.89 95.2182L103.812 95.1714C103.812 96.8744 103.624 98.4447 103.249 99.8822C102.874 101.32 102.288 102.57 101.491 103.632C100.71 104.679 99.7178 105.499 98.5147 106.093C97.3116 106.671 95.8898 106.96 94.2492 106.96C92.9992 106.96 91.8586 106.788 90.8274 106.445C89.7962 106.085 88.9056 105.531 88.1556 104.781C87.4212 104.015 86.8509 103.038 86.4447 101.851C86.0384 100.648 85.8353 99.2025 85.8353 97.5151V81.1326H92.0227V97.5619C92.0227 98.4057 92.1164 99.1088 92.3039 99.6713C92.5071 100.234 92.7805 100.695 93.1242 101.054C93.4836 101.398 93.8976 101.648 94.3664 101.804C94.8507 101.945 95.3664 102.015 95.9132 102.015C97.4132 102.015 98.5929 101.718 99.4522 101.124C100.327 100.515 100.952 99.7025 101.327 98.6869C101.702 97.6557 101.89 96.4994 101.89 95.2182Z" fill="white" style="fill:white;fill-opacity:1;"/>
<path d="M120.921 106.491H114.686V78.7889C114.686 76.8827 115.053 75.2811 115.788 73.9843C116.522 72.6718 117.569 71.6797 118.928 71.0078C120.288 70.3359 121.889 70 123.733 70C124.342 70 124.92 70.0391 125.467 70.1172C126.03 70.1953 126.584 70.3047 127.131 70.4453L127.014 75.1561C126.717 75.078 126.389 75.0233 126.03 74.9921C125.686 74.9608 125.303 74.9452 124.881 74.9452C124.038 74.9452 123.319 75.0936 122.725 75.3905C122.131 75.6874 121.678 76.1249 121.366 76.703C121.069 77.2655 120.921 77.9608 120.921 78.7889V106.491ZM126.053 81.1326V85.5856H110.866V81.1326H126.053Z" fill="white" style="fill:white;fill-opacity:1;"/>
<path d="M137.983 106.491H131.748V78.7889C131.748 76.8827 132.116 75.2811 132.85 73.9843C133.584 72.6718 134.631 71.6797 135.991 71.0078C137.35 70.3359 138.951 70 140.795 70C141.404 70 141.983 70.0391 142.529 70.1172C143.092 70.1953 143.647 70.3047 144.193 70.4453L144.076 75.1561C143.779 75.078 143.451 75.0233 143.092 74.9921C142.748 74.9608 142.365 74.9452 141.944 74.9452C141.1 74.9452 140.381 75.0936 139.787 75.3905C139.194 75.6874 138.74 76.1249 138.428 76.703C138.131 77.2655 137.983 77.9608 137.983 78.7889V106.491ZM143.115 81.1326V85.5856H127.928V81.1326H143.115Z" fill="white" style="fill:white;fill-opacity:1;"/>
<path d="M153.123 86.3122V106.491H146.936V81.1326H152.795L153.123 86.3122ZM160.834 80.9685L160.74 86.734C160.396 86.6715 160.006 86.6247 159.568 86.5934C159.146 86.5622 158.748 86.5465 158.373 86.5465C157.42 86.5465 156.584 86.6793 155.865 86.945C155.146 87.195 154.545 87.5621 154.06 88.0465C153.592 88.5309 153.232 89.1246 152.982 89.8277C152.732 90.5152 152.592 91.2964 152.56 92.1714L151.225 92.0074C151.225 90.398 151.389 88.9059 151.717 87.5309C152.045 86.1559 152.521 84.9528 153.146 83.9216C153.771 82.8904 154.553 82.0935 155.49 81.531C156.443 80.9529 157.537 80.6638 158.771 80.6638C159.115 80.6638 159.482 80.6951 159.873 80.7576C160.279 80.8045 160.599 80.8748 160.834 80.9685Z" fill="white" style="fill:white;fill-opacity:1;"/>
<path d="M196.622 95.2651H203.067C202.895 97.5463 202.263 99.5697 201.169 101.335C200.075 103.085 198.552 104.46 196.599 105.46C194.646 106.46 192.278 106.96 189.497 106.96C187.357 106.96 185.427 106.585 183.708 105.835C182.005 105.07 180.544 103.984 179.326 102.577C178.122 101.156 177.201 99.4525 176.56 97.4682C175.919 95.4682 175.599 93.2261 175.599 90.7418V88.1402C175.599 85.6559 175.927 83.4138 176.583 81.4138C177.24 79.4139 178.177 77.7108 179.396 76.3046C180.63 74.8827 182.107 73.789 183.825 73.0234C185.56 72.2578 187.497 71.875 189.638 71.875C192.419 71.875 194.771 72.3906 196.692 73.4218C198.614 74.4374 200.106 75.8358 201.169 77.617C202.231 79.3982 202.872 81.4451 203.091 83.7575H196.646C196.521 82.3201 196.208 81.1013 195.708 80.1014C195.224 79.1014 194.489 78.3436 193.505 77.828C192.536 77.2967 191.247 77.0311 189.638 77.0311C188.388 77.0311 187.286 77.2655 186.333 77.7342C185.396 78.203 184.615 78.9061 183.99 79.8435C183.365 80.7654 182.896 81.9216 182.583 83.3122C182.271 84.6872 182.115 86.2809 182.115 88.0934V90.7418C182.115 92.4761 182.255 94.0308 182.536 95.4057C182.818 96.7807 183.255 97.9447 183.849 98.8978C184.443 99.8509 185.208 100.577 186.146 101.077C187.083 101.577 188.2 101.827 189.497 101.827C191.075 101.827 192.357 101.577 193.341 101.077C194.341 100.577 195.099 99.8431 195.614 98.8744C196.146 97.9057 196.481 96.7026 196.622 95.2651Z" fill="white" style="fill:white;fill-opacity:1;"/>
<path d="M221.559 101.101V89.4058C221.559 88.5465 221.411 87.8043 221.114 87.1793C220.817 86.5543 220.364 86.07 219.754 85.7262C219.145 85.3825 218.372 85.2106 217.434 85.2106C216.606 85.2106 215.879 85.3512 215.254 85.6325C214.645 85.9137 214.176 86.3122 213.848 86.8278C213.52 87.3278 213.356 87.9059 213.356 88.5621H207.145C207.145 87.5153 207.395 86.5231 207.895 85.5856C208.395 84.6325 209.106 83.7888 210.028 83.0544C210.966 82.3044 212.083 81.7185 213.38 81.2966C214.692 80.8748 216.161 80.6638 217.786 80.6638C219.708 80.6638 221.418 80.992 222.918 81.6482C224.434 82.2888 225.621 83.2575 226.481 84.5544C227.356 85.8512 227.793 87.484 227.793 89.4527V100.515C227.793 101.781 227.871 102.867 228.028 103.773C228.2 104.663 228.45 105.437 228.778 106.093V106.491H222.473C222.176 105.851 221.95 105.038 221.793 104.054C221.637 103.054 221.559 102.07 221.559 101.101ZM222.426 91.0464L222.473 94.726H218.559C217.59 94.726 216.739 94.8276 216.004 95.0307C215.27 95.2182 214.669 95.4995 214.2 95.8745C213.731 96.2338 213.38 96.6713 213.145 97.1869C212.911 97.6869 212.794 98.2572 212.794 98.8978C212.794 99.5228 212.934 100.085 213.215 100.585C213.512 101.085 213.934 101.484 214.481 101.781C215.044 102.062 215.7 102.202 216.45 102.202C217.544 102.202 218.497 101.984 219.309 101.546C220.122 101.093 220.754 100.546 221.207 99.9056C221.661 99.265 221.903 98.6557 221.934 98.0775L223.715 100.749C223.497 101.39 223.168 102.07 222.731 102.788C222.293 103.507 221.731 104.179 221.043 104.804C220.356 105.429 219.528 105.945 218.559 106.351C217.59 106.757 216.465 106.96 215.184 106.96C213.544 106.96 212.075 106.632 210.778 105.976C209.481 105.32 208.458 104.421 207.708 103.281C206.958 102.14 206.583 100.843 206.583 99.39C206.583 98.0463 206.833 96.8588 207.333 95.8276C207.833 94.7964 208.575 93.9292 209.559 93.2261C210.544 92.5073 211.762 91.9683 213.215 91.6089C214.684 91.2339 216.364 91.0464 218.254 91.0464H222.426Z" fill="white" style="fill:white;fill-opacity:1;"/>
<path d="M239.559 86.3122V106.491H233.371V81.1326H239.231L239.559 86.3122ZM247.269 80.9685L247.176 86.734C246.832 86.6715 246.441 86.6247 246.004 86.5934C245.582 86.5622 245.184 86.5465 244.809 86.5465C243.855 86.5465 243.02 86.6793 242.301 86.945C241.582 87.195 240.981 87.5621 240.496 88.0465C240.027 88.5309 239.668 89.1246 239.418 89.8277C239.168 90.5152 239.027 91.2964 238.996 92.1714L237.66 92.0074C237.66 90.398 237.824 88.9059 238.152 87.5309C238.481 86.1559 238.957 84.9528 239.582 83.9216C240.207 82.8904 240.988 82.0935 241.926 81.531C242.879 80.9529 243.973 80.6638 245.207 80.6638C245.551 80.6638 245.918 80.6951 246.309 80.7576C246.715 80.8045 247.035 80.8748 247.269 80.9685Z" fill="white" style="fill:white;fill-opacity:1;"/>
<path d="M265.41 101.101V70.4922H271.644V106.491H266.019L265.41 101.101ZM249.121 94.1167V93.6245C249.121 91.687 249.34 89.9293 249.777 88.3512C250.23 86.7575 250.887 85.3903 251.746 84.2497C252.605 83.1091 253.644 82.2263 254.863 81.6013C256.097 80.9763 257.496 80.6638 259.058 80.6638C260.574 80.6638 261.894 80.9685 263.019 81.5779C264.16 82.1872 265.128 83.0544 265.925 84.1794C266.738 85.3044 267.386 86.6403 267.871 88.1871C268.355 89.7183 268.706 91.4058 268.925 93.2495V94.5854C268.706 96.3823 268.355 98.0307 267.871 99.5306C267.386 101.031 266.738 102.343 265.925 103.468C265.128 104.577 264.16 105.437 263.019 106.046C261.879 106.655 260.543 106.96 259.011 106.96C257.465 106.96 256.074 106.64 254.84 105.999C253.621 105.359 252.582 104.46 251.722 103.304C250.879 102.148 250.23 100.788 249.777 99.226C249.34 97.6635 249.121 95.9604 249.121 94.1167ZM255.332 93.6245V94.1167C255.332 95.2104 255.426 96.2338 255.613 97.1869C255.801 98.14 256.105 98.9838 256.527 99.7181C256.949 100.437 257.488 100.999 258.144 101.406C258.816 101.812 259.629 102.015 260.582 102.015C261.8 102.015 262.8 101.749 263.582 101.218C264.378 100.671 264.996 99.9291 265.433 98.9916C265.871 98.0385 266.152 96.9682 266.277 95.7807V92.1011C266.214 91.1636 266.05 90.2965 265.785 89.4996C265.535 88.7027 265.175 88.0153 264.707 87.4371C264.253 86.859 263.691 86.4059 263.019 86.0778C262.347 85.7497 261.55 85.5856 260.629 85.5856C259.675 85.5856 258.863 85.7965 258.191 86.2184C257.519 86.6247 256.972 87.195 256.551 87.9293C256.129 88.6637 255.816 89.5152 255.613 90.4839C255.426 91.4527 255.332 92.4995 255.332 93.6245Z" fill="white" style="fill:white;fill-opacity:1;"/>
<path fill-rule="evenodd" clip-rule="evenodd" d="M709 136C731.091 136 749 118.091 749 96C749 73.9086 731.091 56 709 56C686.909 56 669 73.9086 669 96C669 118.091 686.909 136 709 136ZM717.865 77.0654L717.962 87.3302C717.973 88.5781 717.982 89.8566 717.959 90.9423C717.948 91.485 717.929 91.9477 717.903 92.3144C717.879 92.6479 717.855 92.8063 717.85 92.8417L717.85 92.8419L717.849 92.8485C717.849 92.85 717.849 92.8497 717.849 92.8476C717.505 94.3393 716.439 95.3596 713.209 96.0396C712.654 96.1562 711.877 96.1793 708.997 96.1793C706.117 96.1793 705.34 96.1562 704.785 96.0396C701.555 95.3596 700.489 94.3393 700.145 92.8476C700.145 92.8491 700.145 92.8497 700.145 92.8493L700.144 92.8417L700.144 92.8417C700.139 92.8063 700.115 92.6479 700.091 92.3144C700.065 91.9477 700.046 91.485 700.035 90.9423C700.012 89.8566 700.021 88.5781 700.032 87.3302L700.129 77.0654L692.105 76.9996L692.009 87.2644C691.997 88.5053 691.988 89.8829 692.013 91.0885C692.035 92.1639 692.087 93.4989 692.302 94.4308C693.623 100.152 698.552 102.416 703.023 103.357C704.569 103.683 706.328 103.682 708.565 103.68H708.565H708.565H708.565L708.997 103.68L709.429 103.68H709.429H709.429H709.429C711.666 103.682 713.425 103.683 714.971 103.357C719.442 102.416 724.37 100.152 725.692 94.4308C725.907 93.4989 725.959 92.1639 725.981 91.0885C726.006 89.8829 725.997 88.5053 725.985 87.2644L725.889 76.9996L717.865 77.0654ZM725.997 115V107.723H691.997V115H725.997Z" fill="white" style="fill:white;fill-opacity:1;"/>
</svg>
